{
  "notes": [
    {
      "pitch": 45,
      "velocity": 43,
      "onset": 4927,
      "duration": 651,
      "id_score": 0.0,
      "voice_tag": "Unassigned",
      "hue": 90.0,
      "sat": 100.0,
      "regime_state": "TRANSITION SPIKE!"
    },
    {
      "pitch": 52,
      "velocity": 54,
      "onset": 5359,
      "duration": 67,
      "id_score": 6.89,
      "voice_tag": "Background (Solid / Harmony)",
      "hue": 60.0,
      "sat": 100.0,
      "regime_state": "TRANSITION SPIKE!"
    },
    {
      "pitch": 45,
      "velocity": 58,
      "onset": 7666,
      "duration": 380,
      "id_score": 1.39,
      "voice_tag": "Background (Solid / Harmony)",
      "hue": 90.0,
      "sat": 100.0,
      "regime_state": "TRANSITION SPIKE!"
    },
    {
      "pitch": 60,
      "velocity": 72,
      "onset": 8098,
      "duration": 57,
      "id_score": 19.69,
      "voice_tag": "Background (Solid / Harmony)",
      "hue": 0.0,
      "sat": 100.0,
      "regime_state": "TRANSITION SPIKE!"
    },
    {
      "pitch": 52,
      "velocity": 64,
      "onset": 8104,
      "duration": 62,
      "id_score": 671.92,
      "voice_tag": "Voice 1 (Liquid / Melody)",
      "hue": 60.0,
      "sat": 100.0,
      "regime_state": "Stable"
    },
    {
      "pitch": 52,
      "velocity": 61,
      "onset": 8515,
      "duration": 62,
      "id_score": 0.0,
      "voice_tag": "Background (Solid / Harmony)",
      "hue": 60.0,
      "sat": 100.0,
      "regime_state": "TRANSITION SPIKE!"
    },
    {
      "pitch": 60,
      "velocity": 72,
      "onset": 8520,
      "duration": 57,
      "id_score": 907.09,
      "voice_tag": "Voice 1 (Liquid / Melody)",
      "hue": 0.0,
      "sat": 100.0,
      "regime_state": "Stable"
    },
    {
      "pitch": 45,
      "velocity": 60,
      "onset": 8953,
      "duration": 463,
      "id_score": 16.37,
      "voice_tag": "Background (Solid / Harmony)",
      "hue": 90.0,
      "sat": 100.0,
      "regime_state": "TRANSITION SPIKE!"
    },
    {
      "pitch": 52,
      "velocity": 63,
      "onset": 9411,
      "duration": 67,
      "id_score": 7.58,
      "voice_tag": "Background (Solid / Harmony)",
      "hue": 29.7,
      "sat": 86.6,
      "regime_state": "TRANSITION SPIKE!"
    },
    {
      "pitch": 60,
      "velocity": 64,
      "onset": 9411,
      "duration": 67,
      "id_score": 0.0,
      "voice_tag": "Background (Solid / Harmony)",
      "hue": 29.7,
      "sat": 86.6,
      "regime_state": "TRANSITION SPIKE!"
    },
    {
      "pitch": 60,
      "velocity": 72,
      "onset": 9854,
      "duration": 57,
      "id_score": 0.0,
      "voice_tag": "Background (Solid / Harmony)",
      "hue": 0.0,
      "sat": 100.0,
      "regime_state": "TRANSITION SPIKE!"
    },
    {
      "pitch": 52,
      "velocity": 58,
      "onset": 9859,
      "duration": 67,
      "id_score": 730.71,
      "voice_tag": "Voice 1 (Liquid / Melody)",
      "hue": 60.0,
      "sat": 100.0,
      "regime_state": "Stable"
    },
    {
      "pitch": 45,
      "velocity": 43,
      "onset": 10291,
      "duration": 359,
      "id_score": 5.49,
      "voice_tag": "Background (Solid / Harmony)",
      "hue": 90.0,
      "sat": 100.0,
      "regime_state": "TRANSITION SPIKE!"
    },
    {
      "pitch": 64,
      "velocity": 59,
      "onset": 10296,
      "duration": 265,
      "id_score": 1883.04,
      "voice_tag": "Voice 1 (Liquid / Melody)",
      "hue": 60.0,
      "sat": 100.0,
      "regime_state": "Stable"
    },
    {
      "pitch": 52,
      "velocity": 47,
      "onset": 10723,
      "duration": 114,
      "id_score": 10.4,
      "voice_tag": "Background (Solid / Harmony)",
      "hue": 7.7,
      "sat": 3.0,
      "regime_state": "Undefined / Gray Void"
    },
    {
      "pitch": 60,
      "velocity": 51,
      "onset": 10723,
      "duration": 88,
      "id_score": 0.0,
      "voice_tag": "Background (Solid / Harmony)",
      "hue": 7.7,
      "sat": 3.0,
      "regime_state": "Undefined / Gray Void"
    },
    {
      "pitch": 66,
      "velocity": 80,
      "onset": 10723,
      "duration": 72,
      "id_score": 0.0,
      "voice_tag": "Background (Solid / Harmony)",
      "hue": 7.7,
      "sat": 3.0,
      "regime_state": "Undefined / Gray Void"
    },
    {
      "pitch": 68,
      "velocity": 86,
      "onset": 10921,
      "duration": 57,
      "id_score": 7.75,
      "voice_tag": "Background (Solid / Harmony)",
      "hue": 300.0,
      "sat": 100.0,
      "regime_state": "TRANSITION SPIKE!"
    },
    {
      "pitch": 60,
      "velocity": 45,
      "onset": 11140,
      "duration": 67,
      "id_score": 12.94,
      "voice_tag": "Background (Solid / Harmony)",
      "hue": 0.0,
      "sat": 100.0,
      "regime_state": "TRANSITION SPIKE!"
    },
    {
      "pitch": 69,
      "velocity": 70,
      "onset": 11151,
      "duration": 52,
      "id_score": 518.61,
      "voice_tag": "Voice 1 (Liquid / Melody)",
      "hue": 90.0,
      "sat": 100.0,
      "regime_state": "Stable"
    },
    {
      "pitch": 69,
      "velocity": 80,
      "onset": 11557,
      "duration": 322,
      "id_score": 0.0,
      "voice_tag": "Background (Solid / Harmony)",
      "hue": 90.0,
      "sat": 100.0,
      "regime_state": "TRANSITION SPIKE!"
    },
    {
      "pitch": 45,
      "velocity": 59,
      "onset": 11562,
      "duration": 291,
      "id_score": 2229.92,
      "voice_tag": "Voice 1 (Liquid / Melody)",
      "hue": 90.0,
      "sat": 100.0,
      "regime_state": "Regime Locked"
    },
    {
      "pitch": 71,
      "velocity": 70,
      "onset": 12005,
      "duration": 72,
      "id_score": 38.28,
      "voice_tag": "Background (Solid / Harmony)",
      "hue": 150.0,
      "sat": 100.0,
      "regime_state": "TRANSITION SPIKE!"
    },
    {
      "pitch": 62,
      "velocity": 75,
      "onset": 12026,
      "duration": 78,
      "id_score": 261.53,
      "voice_tag": "Voice 1 (Liquid / Melody)",
      "hue": 120.0,
      "sat": 100.0,
      "regime_state": "Stable"
    },
    {
      "pitch": 52,
      "velocity": 44,
      "onset": 12036,
      "duration": 78,
      "id_score": 346.46,
      "voice_tag": "Voice 1 (Liquid / Melody)",
      "hue": 60.0,
      "sat": 100.0,
      "regime_state": "Stable"
    },
    {
      "pitch": 68,
      "velocity": 80,
      "onset": 12223,
      "duration": 62,
      "id_score": 61.08,
      "voice_tag": "Voice 1 (Liquid / Melody)",
      "hue": 300.0,
      "sat": 100.0,
      "regime_state": "Undefined / Gray Void"
    },
    {
      "pitch": 62,
      "velocity": 70,
      "onset": 12432,
      "duration": 78,
      "id_score": 16.35,
      "voice_tag": "Background (Solid / Harmony)",
      "hue": 120.0,
      "sat": 100.0,
      "regime_state": "Undefined / Gray Void"
    },
    {
      "pitch": 52,
      "velocity": 51,
      "onset": 12442,
      "duration": 62,
      "id_score": 401.57,
      "voice_tag": "Voice 1 (Liquid / Melody)",
      "hue": 175.3,
      "sat": 33.9,
      "regime_state": "Undefined / Gray Void"
    },
    {
      "pitch": 66,
      "velocity": 81,
      "onset": 12442,
      "duration": 57,
      "id_score": 0.0,
      "voice_tag": "Background (Solid / Harmony)",
      "hue": 175.3,
      "sat": 33.9,
      "regime_state": "Undefined / Gray Void"
    },
    {
      "pitch": 69,
      "velocity": 67,
      "onset": 12807,
      "duration": 52,
      "id_score": 4.99,
      "voice_tag": "Background (Solid / Harmony)",
      "hue": 90.0,
      "sat": 100.0,
      "regime_state": "TRANSITION SPIKE!"
    },
    {
      "pitch": 45,
      "velocity": 52,
      "onset": 12828,
      "duration": 421,
      "id_score": 467.94,
      "voice_tag": "Voice 1 (Liquid / Melody)",
      "hue": 90.0,
      "sat": 100.0,
      "regime_state": "Regime Locked"
    },
    {
      "pitch": 66,
      "velocity": 94,
      "onset": 12843,
      "duration": 52,
      "id_score": 1139.84,
      "voice_tag": "Voice 1 (Liquid / Melody)",
      "hue": 210.0,
      "sat": 100.0,
      "regime_state": "Stable"
    },
    {
      "pitch": 52,
      "velocity": 53,
      "onset": 13286,
      "duration": 72,
      "id_score": 13.19,
      "voice_tag": "Background (Solid / Harmony)",
      "hue": 60.0,
      "sat": 100.0,
      "regime_state": "TRANSITION SPIKE!"
    },
    {
      "pitch": 60,
      "velocity": 56,
      "onset": 13291,
      "duration": 72,
      "id_score": 705.51,
      "voice_tag": "Voice 1 (Liquid / Melody)",
      "hue": 0.0,
      "sat": 100.0,
      "regime_state": "Stable"
    },
    {
      "pitch": 64,
      "velocity": 85,
      "onset": 13296,
      "duration": 1401,
      "id_score": 571.13,
      "voice_tag": "Voice 1 (Liquid / Melody)",
      "hue": 60.0,
      "sat": 100.0,
      "regime_state": "Stable"
    },
    {
      "pitch": 60,
      "velocity": 69,
      "onset": 13729,
      "duration": 62,
      "id_score": 5.02,
      "voice_tag": "Background (Solid / Harmony)",
      "hue": 0.0,
      "sat": 100.0,
      "regime_state": "TRANSITION SPIKE!"
    },
    {
      "pitch": 52,
      "velocity": 57,
      "onset": 13734,
      "duration": 67,
      "id_score": 718.11,
      "voice_tag": "Voice 1 (Liquid / Melody)",
      "hue": 60.0,
      "sat": 100.0,
      "regime_state": "Stable"
    },
    {
      "pitch": 45,
      "velocity": 66,
      "onset": 14197,
      "duration": 359,
      "id_score": 7.86,
      "voice_tag": "Background (Solid / Harmony)",
      "hue": 90.0,
      "sat": 100.0,
      "regime_state": "TRANSITION SPIKE!"
    },
    {
      "pitch": 60,
      "velocity": 69,
      "onset": 14635,
      "duration": 62,
      "id_score": 18.61,
      "voice_tag": "Background (Solid / Harmony)",
      "hue": 0.0,
      "sat": 100.0,
      "regime_state": "TRANSITION SPIKE!"
    },
    {
      "pitch": 52,
      "velocity": 54,
      "onset": 14640,
      "duration": 62,
      "id_score": 680.31,
      "voice_tag": "Voice 1 (Liquid / Melody)",
      "hue": 60.0,
      "sat": 100.0,
      "regime_state": "Stable"
    },
    {
      "pitch": 60,
      "velocity": 81,
      "onset": 15031,
      "duration": 52,
      "id_score": 13.05,
      "voice_tag": "Background (Solid / Harmony)",
      "hue": 0.0,
      "sat": 100.0,
      "regime_state": "TRANSITION SPIKE!"
    },
    {
      "pitch": 52,
      "velocity": 60,
      "onset": 15046,
      "duration": 62,
      "id_score": 251.97,
      "voice_tag": "Voice 1 (Liquid / Melody)",
      "hue": 60.0,
      "sat": 100.0,
      "regime_state": "Stable"
    },
    {
      "pitch": 45,
      "velocity": 64,
      "onset": 15468,
      "duration": 369,
      "id_score": 8.36,
      "voice_tag": "Background (Solid / Harmony)",
      "hue": 90.0,
      "sat": 100.0,
      "regime_state": "TRANSITION SPIKE!"
    },
    {
      "pitch": 64,
      "velocity": 77,
      "onset": 15677,
      "duration": 72,
      "id_score": 58.79,
      "voice_tag": "Voice 1 (Liquid / Melody)",
      "hue": 60.0,
      "sat": 100.0,
      "regime_state": "TRANSITION SPIKE!"
    },
    {
      "pitch": 66,
      "velocity": 84,
      "onset": 15895,
      "duration": 62,
      "id_score": 6.67,
      "voice_tag": "Background (Solid / Harmony)",
      "hue": 210.0,
      "sat": 100.0,
      "regime_state": "Undefined / Gray Void"
    },
    {
      "pitch": 52,
      "velocity": 52,
      "onset": 15916,
      "duration": 72,
      "id_score": 272.97,
      "voice_tag": "Voice 1 (Liquid / Melody)",
      "hue": 26.6,
      "sat": 86.8,
      "regime_state": "TRANSITION SPIKE!"
    },
    {
      "pitch": 60,
      "velocity": 64,
      "onset": 15916,
      "duration": 67,
      "id_score": 0.0,
      "voice_tag": "Background (Solid / Harmony)",
      "hue": 26.6,
      "sat": 86.8,
      "regime_state": "TRANSITION SPIKE!"
    },
    {
      "pitch": 68,
      "velocity": 82,
      "onset": 16119,
      "duration": 57,
      "id_score": 28.84,
      "voice_tag": "Background (Solid / Harmony)",
      "hue": 300.0,
      "sat": 100.0,
      "regime_state": "TRANSITION SPIKE!"
    },
    {
      "pitch": 60,
      "velocity": 70,
      "onset": 16322,
      "duration": 62,
      "id_score": 21.72,
      "voice_tag": "Background (Solid / Harmony)",
      "hue": 327.2,
      "sat": 86.7,
      "regime_state": "TRANSITION SPIKE!"
    },
    {
      "pitch": 68,
      "velocity": 83,
      "onset": 16322,
      "duration": 223,
      "id_score": 0.0,
      "voice_tag": "Background (Solid / Harmony)",
      "hue": 327.2,
      "sat": 86.7,
      "regime_state": "TRANSITION SPIKE!"
    },
    {
      "pitch": 52,
      "velocity": 60,
      "onset": 16328,
      "duration": 62,
      "id_score": 1259.84,
      "voice_tag": "Voice 1 (Liquid / Melody)",
      "hue": 60.0,
      "sat": 100.0,
      "regime_state": "Stable"
    },
    {
      "pitch": 69,
      "velocity": 74,
      "onset": 16552,
      "duration": 52,
      "id_score": 50.85,
      "voice_tag": "Voice 1 (Liquid / Melody)",
      "hue": 90.0,
      "sat": 100.0,
      "regime_state": "TRANSITION SPIKE!"
    },
    {
      "pitch": 45,
      "velocity": 50,
      "onset": 16812,
      "duration": 281,
      "id_score": 36.34,
      "voice_tag": "Background (Solid / Harmony)",
      "hue": 90.0,
      "sat": 100.0,
      "regime_state": "TRANSITION SPIKE!"
    },
    {
      "pitch": 69,
      "velocity": 75,
      "onset": 17020,
      "duration": 67,
      "id_score": 78.36,
      "voice_tag": "Voice 1 (Liquid / Melody)",
      "hue": 90.0,
      "sat": 100.0,
      "regime_state": "TRANSITION SPIKE!"
    },
    {
      "pitch": 71,
      "velocity": 92,
      "onset": 17244,
      "duration": 67,
      "id_score": 7.65,
      "voice_tag": "Background (Solid / Harmony)",
      "hue": 150.0,
      "sat": 100.0,
      "regime_state": "TRANSITION SPIKE!"
    },
    {
      "pitch": 62,
      "velocity": 70,
      "onset": 17250,
      "duration": 83,
      "id_score": 854.33,
      "voice_tag": "Voice 1 (Liquid / Melody)",
      "hue": 120.0,
      "sat": 100.0,
      "regime_state": "Regime Locked"
    },
    {
      "pitch": 52,
      "velocity": 33,
      "onset": 17265,
      "duration": 83,
      "id_score": 173.23,
      "voice_tag": "Voice 1 (Liquid / Melody)",
      "hue": 60.0,
      "sat": 100.0,
      "regime_state": "Stable"
    },
    {
      "pitch": 68,
      "velocity": 89,
      "onset": 17463,
      "duration": 57,
      "id_score": 64.18,
      "voice_tag": "Voice 1 (Liquid / Melody)",
      "hue": 300.0,
      "sat": 100.0,
      "regime_state": "Undefined / Gray Void"
    },
    {
      "pitch": 52,
      "velocity": 68,
      "onset": 17656,
      "duration": 62,
      "id_score": 44.39,
      "voice_tag": "Background (Solid / Harmony)",
      "hue": 60.0,
      "sat": 100.0,
      "regime_state": "TRANSITION SPIKE!"
    },
    {
      "pitch": 62,
      "velocity": 72,
      "onset": 17661,
      "duration": 72,
      "id_score": 1171.65,
      "voice_tag": "Voice 1 (Liquid / Melody)",
      "hue": 120.0,
      "sat": 100.0,
      "regime_state": "Undefined / Gray Void"
    },
    {
      "pitch": 68,
      "velocity": 84,
      "onset": 17666,
      "duration": 119,
      "id_score": 899.53,
      "voice_tag": "Voice 1 (Liquid / Melody)",
      "hue": 300.0,
      "sat": 100.0,
      "regime_state": "Undefined / Gray Void"
    },
    {
      "pitch": 66,
      "velocity": 85,
      "onset": 17890,
      "duration": 72,
      "id_score": 6.57,
      "voice_tag": "Background (Solid / Harmony)",
      "hue": 210.0,
      "sat": 100.0,
      "regime_state": "Undefined / Gray Void"
    },
    {
      "pitch": 69,
      "velocity": 75,
      "onset": 18109,
      "duration": 46,
      "id_score": 9.3,
      "voice_tag": "Background (Solid / Harmony)",
      "hue": 90.0,
      "sat": 100.0,
      "regime_state": "TRANSITION SPIKE!"
    },
    {
      "pitch": 45,
      "velocity": 59,
      "onset": 18114,
      "duration": 291,
      "id_score": 2229.92,
      "voice_tag": "Voice 1 (Liquid / Melody)",
      "hue": 90.0,
      "sat": 100.0,
      "regime_state": "Stable"
    },
    {
      "pitch": 66,
      "velocity": 92,
      "onset": 18151,
      "duration": 46,
      "id_score": 452.27,
      "voice_tag": "Voice 1 (Liquid / Melody)",
      "hue": 210.0,
      "sat": 100.0,
      "regime_state": "Stable"
    },
    {
      "pitch": 52,
      "velocity": 51,
      "onset": 18526,
      "duration": 72,
      "id_score": 14.99,
      "voice_tag": "Background (Solid / Harmony)",
      "hue": 26.5,
      "sat": 86.8,
      "regime_state": "TRANSITION SPIKE!"
    },
    {
      "pitch": 60,
      "velocity": 63,
      "onset": 18526,
      "duration": 67,
      "id_score": 0.0,
      "voice_tag": "Background (Solid / Harmony)",
      "hue": 26.5,
      "sat": 86.8,
      "regime_state": "TRANSITION SPIKE!"
    },
    {
      "pitch": 64,
      "velocity": 86,
      "onset": 18536,
      "duration": 1458,
      "id_score": 288.92,
      "voice_tag": "Voice 1 (Liquid / Melody)",
      "hue": 60.0,
      "sat": 100.0,
      "regime_state": "Stable"
    },
    {
      "pitch": 60,
      "velocity": 75,
      "onset": 19000,
      "duration": 57,
      "id_score": 5.09,
      "voice_tag": "Background (Solid / Harmony)",
      "hue": 0.0,
      "sat": 100.0,
      "regime_state": "TRANSITION SPIKE!"
    },
    {
      "pitch": 52,
      "velocity": 69,
      "onset": 19005,
      "duration": 67,
      "id_score": 869.29,
      "voice_tag": "Voice 1 (Liquid / Melody)",
      "hue": 60.0,
      "sat": 100.0,
      "regime_state": "Stable"
    },
    {
      "pitch": 45,
      "velocity": 60,
      "onset": 19479,
      "duration": 411,
      "id_score": 6.98,
      "voice_tag": "Background (Solid / Harmony)",
      "hue": 90.0,
      "sat": 100.0,
      "regime_state": "TRANSITION SPIKE!"
    },
    {
      "pitch": 60,
      "velocity": 84,
      "onset": 19942,
      "duration": 52,
      "id_score": 21.43,
      "voice_tag": "Background (Solid / Harmony)",
      "hue": 0.0,
      "sat": 100.0,
      "regime_state": "TRANSITION SPIKE!"
    },
    {
      "pitch": 52,
      "velocity": 73,
      "onset": 19947,
      "duration": 57,
      "id_score": 919.69,
      "voice_tag": "Voice 1 (Liquid / Melody)",
      "hue": 60.0,
      "sat": 100.0,
      "regime_state": "Stable"
    },
    {
      "pitch": 52,
      "velocity": 64,
      "onset": 20380,
      "duration": 62,
      "id_score": 0.0,
      "voice_tag": "Background (Solid / Harmony)",
      "hue": 60.0,
      "sat": 100.0,
      "regime_state": "TRANSITION SPIKE!"
    },
    {
      "pitch": 60,
      "velocity": 77,
      "onset": 20390,
      "duration": 57,
      "id_score": 485.04,
      "voice_tag": "Voice 1 (Liquid / Melody)",
      "hue": 0.0,
      "sat": 100.0,
      "regime_state": "Stable"
    },
    {
      "pitch": 60,
      "velocity": 76,
      "onset": 20817,
      "duration": 57,
      "id_score": 0.0,
      "voice_tag": "Background (Solid / Harmony)",
      "hue": 32.0,
      "sat": 91.4,
      "regime_state": "Stable"
    },
    {
      "pitch": 67,
      "velocity": 93,
      "onset": 20817,
      "duration": 41,
      "id_score": 0.0,
      "voice_tag": "Background (Solid / Harmony)",
      "hue": 32.0,
      "sat": 91.4,
      "regime_state": "Stable"
    },
    {
      "pitch": 76,
      "velocity": 93,
      "onset": 20817,
      "duration": 46,
      "id_score": 0.0,
      "voice_tag": "Background (Solid / Harmony)",
      "hue": 32.0,
      "sat": 91.4,
      "regime_state": "Stable"
    },
    {
      "pitch": 64,
      "velocity": 62,
      "onset": 20828,
      "duration": 78,
      "id_score": 568.07,
      "voice_tag": "Voice 1 (Liquid / Melody)",
      "hue": 60.0,
      "sat": 100.0,
      "regime_state": "TRANSITION SPIKE!"
    },
    {
      "pitch": 65,
      "velocity": 91,
      "onset": 21260,
      "duration": 46,
      "id_score": 1.8,
      "voice_tag": "Background (Solid / Harmony)",
      "hue": 330.0,
      "sat": 100.0,
      "regime_state": "TRANSITION SPIKE!"
    },
    {
      "pitch": 68,
      "velocity": 93,
      "onset": 21276,
      "duration": 41,
      "id_score": 155.61,
      "voice_tag": "Voice 1 (Liquid / Melody)",
      "hue": 300.0,
      "sat": 100.0,
      "regime_state": "Stable"
    },
    {
      "pitch": 76,
      "velocity": 83,
      "onset": 21281,
      "duration": 46,
      "id_score": 1324.51,
      "voice_tag": "Voice 1 (Liquid / Melody)",
      "hue": 60.0,
      "sat": 100.0,
      "regime_state": "Stable"
    },
    {
      "pitch": 60,
      "velocity": 71,
      "onset": 21286,
      "duration": 62,
      "id_score": 1788.98,
      "voice_tag": "Voice 1 (Liquid / Melody)",
      "hue": 0.0,
      "sat": 100.0,
      "regime_state": "Stable"
    },
    {
      "pitch": 66,
      "velocity": 97,
      "onset": 21677,
      "duration": 41,
      "id_score": 12.89,
      "voice_tag": "Background (Solid / Harmony)",
      "hue": 210.0,
      "sat": 100.0,
      "regime_state": "TRANSITION SPIKE!"
    },
    {
      "pitch": 76,
      "velocity": 101,
      "onset": 21682,
      "duration": 41,
      "id_score": 2014.7,
      "voice_tag": "Voice 1 (Liquid / Melody)",
      "hue": 60.0,
      "sat": 100.0,
      "regime_state": "Undefined / Gray Void"
    },
    {
      "pitch": 60,
      "velocity": 95,
      "onset": 21687,
      "duration": 41,
      "id_score": 2393.7,
      "voice_tag": "Voice 1 (Liquid / Melody)",
      "hue": 0.0,
      "sat": 100.0,
      "regime_state": "Undefined / Gray Void"
    },
    {
      "pitch": 69,
      "velocity": 90,
      "onset": 21692,
      "duration": 41,
      "id_score": 1466.93,
      "voice_tag": "Voice 1 (Liquid / Melody)",
      "hue": 90.0,
      "sat": 100.0,
      "regime_state": "Stable"
    },
    {
      "pitch": 76,
      "velocity": 98,
      "onset": 22104,
      "duration": 135,
      "id_score": 16.61,
      "voice_tag": "Background (Solid / Harmony)",
      "hue": 60.0,
      "sat": 100.0,
      "regime_state": "TRANSITION SPIKE!"
    },
    {
      "pitch": 67,
      "velocity": 78,
      "onset": 22125,
      "duration": 822,
      "id_score": 293.93,
      "voice_tag": "Voice 1 (Liquid / Melody)",
      "hue": 90.6,
      "sat": 50.0,
      "regime_state": "Stable"
    },
    {
      "pitch": 71,
      "velocity": 79,
      "onset": 22125,
      "duration": 57,
      "id_score": 0.0,
      "voice_tag": "Background (Solid / Harmony)",
      "hue": 90.6,
      "sat": 50.0,
      "regime_state": "Stable"
    },
    {
      "pitch": 62,
      "velocity": 85,
      "onset": 22130,
      "duration": 838,
      "id_score": 1244.88,
      "voice_tag": "Voice 1 (Liquid / Melody)",
      "hue": 120.0,
      "sat": 100.0,
      "regime_state": "Stable"
    },
    {
      "pitch": 55,
      "velocity": 77,
      "onset": 22140,
      "duration": 848,
      "id_score": 424.41,
      "voice_tag": "Voice 1 (Liquid / Melody)",
      "hue": 30.0,
      "sat": 100.0,
      "regime_state": "Stable"
    },
    {
      "pitch": 71,
      "velocity": 45,
      "onset": 22244,
      "duration": 703,
      "id_score": 64.51,
      "voice_tag": "Voice 1 (Liquid / Melody)",
      "hue": 150.0,
      "sat": 100.0,
      "regime_state": "Stable"
    },
    {
      "pitch": 74,
      "velocity": 81,
      "onset": 22260,
      "duration": 135,
      "id_score": 147.49,
      "voice_tag": "Voice 1 (Liquid / Melody)",
      "hue": 120.0,
      "sat": 100.0,
      "regime_state": "TRANSITION SPIKE!"
    },
    {
      "pitch": 72,
      "velocity": 90,
      "onset": 22390,
      "duration": 114,
      "id_score": 13.08,
      "voice_tag": "Background (Solid / Harmony)",
      "hue": 0.0,
      "sat": 100.0,
      "regime_state": "Stable"
    },
    {
      "pitch": 74,
      "velocity": 88,
      "onset": 22526,
      "duration": 411,
      "id_score": 12.57,
      "voice_tag": "Background (Solid / Harmony)",
      "hue": 120.0,
      "sat": 100.0,
      "regime_state": "TRANSITION SPIKE!"
    },
    {
      "pitch": 72,
      "velocity": 90,
      "onset": 23473,
      "duration": 52,
      "id_score": 1.8,
      "voice_tag": "Background (Solid / Harmony)",
      "hue": 0.0,
      "sat": 100.0,
      "regime_state": "TRANSITION SPIKE!"
    },
    {
      "pitch": 60,
      "velocity": 80,
      "onset": 23479,
      "duration": 57,
      "id_score": 1259.84,
      "voice_tag": "Voice 1 (Liquid / Melody)",
      "hue": 0.0,
      "sat": 100.0,
      "regime_state": "Regime Locked"
    },
    {
      "pitch": 64,
      "velocity": 95,
      "onset": 23484,
      "duration": 46,
      "id_score": 638.32,
      "voice_tag": "Voice 1 (Liquid / Melody)",
      "hue": 60.0,
      "sat": 100.0,
      "regime_state": "Stable"
    },
    {
      "pitch": 57,
      "velocity": 81,
      "onset": 23489,
      "duration": 52,
      "id_score": 892.91,
      "voice_tag": "Voice 1 (Liquid / Melody)",
      "hue": 90.0,
      "sat": 100.0,
      "regime_state": "Stable"
    },
    {
      "pitch": 62,
      "velocity": 82,
      "onset": 23911,
      "duration": 72,
      "id_score": 7.91,
      "voice_tag": "Background (Solid / Harmony)",
      "hue": 45.0,
      "sat": 25.9,
      "regime_state": "Undefined / Gray Void"
    },
    {
      "pitch": 65,
      "velocity": 82,
      "onset": 23911,
      "duration": 52,
      "id_score": 0.0,
      "voice_tag": "Background (Solid / Harmony)",
      "hue": 45.0,
      "sat": 25.9,
      "regime_state": "Undefined / Gray Void"
    },
    {
      "pitch": 72,
      "velocity": 72,
      "onset": 23916,
      "duration": 57,
      "id_score": 952.44,
      "voice_tag": "Voice 1 (Liquid / Melody)",
      "hue": 0.0,
      "sat": 100.0,
      "regime_state": "TRANSITION SPIKE!"
    },
    {
      "pitch": 57,
      "velocity": 48,
      "onset": 23932,
      "duration": 72,
      "id_score": 354.33,
      "voice_tag": "Voice 1 (Liquid / Melody)",
      "hue": 90.0,
      "sat": 100.0,
      "regime_state": "Stable"
    },
    {
      "pitch": 63,
      "velocity": 87,
      "onset": 24328,
      "duration": 52,
      "id_score": 10.9,
      "voice_tag": "Background (Solid / Harmony)",
      "hue": 314.3,
      "sat": 70.7,
      "regime_state": "TRANSITION SPIKE!"
    },
    {
      "pitch": 72,
      "velocity": 85,
      "onset": 24328,
      "duration": 52,
      "id_score": 0.0,
      "voice_tag": "Background (Solid / Harmony)",
      "hue": 314.3,
      "sat": 70.7,
      "regime_state": "TRANSITION SPIKE!"
    },
    {
      "pitch": 66,
      "velocity": 84,
      "onset": 24333,
      "duration": 52,
      "id_score": 873.07,
      "voice_tag": "Voice 1 (Liquid / Melody)",
      "hue": 210.0,
      "sat": 100.0,
      "regime_state": "Stable"
    },
    {
      "pitch": 57,
      "velocity": 71,
      "onset": 24343,
      "duration": 67,
      "id_score": 503.15,
      "voice_tag": "Voice 1 (Liquid / Melody)",
      "hue": 90.0,
      "sat": 100.0,
      "regime_state": "Undefined / Gray Void"
    },
    {
      "pitch": 72,
      "velocity": 88,
      "onset": 24723,
      "duration": 156,
      "id_score": 32.82,
      "voice_tag": "Background (Solid / Harmony)",
      "hue": 0.0,
      "sat": 100.0,
      "regime_state": "TRANSITION SPIKE!"
    },
    {
      "pitch": 52,
      "velocity": 54,
      "onset": 24755,
      "duration": 1010,
      "id_score": 265.75,
      "voice_tag": "Voice 1 (Liquid / Melody)",
      "hue": 77.0,
      "sat": 62.6,
      "regime_state": "Stable"
    },
    {
      "pitch": 59,
      "velocity": 64,
      "onset": 24755,
      "duration": 963,
      "id_score": 0.0,
      "voice_tag": "Background (Solid / Harmony)",
      "hue": 77.0,
      "sat": 62.6,
      "regime_state": "Stable"
    },
    {
      "pitch": 67,
      "velocity": 62,
      "onset": 24755,
      "duration": 968,
      "id_score": 0.0,
      "voice_tag": "Background (Solid / Harmony)",
      "hue": 77.0,
      "sat": 62.6,
      "regime_state": "Stable"
    },
    {
      "pitch": 64,
      "velocity": 72,
      "onset": 24760,
      "duration": 932,
      "id_score": 362.83,
      "voice_tag": "Voice 1 (Liquid / Melody)",
      "hue": 60.0,
      "sat": 100.0,
      "regime_state": "Stable"
    },
    {
      "pitch": 71,
      "velocity": 72,
      "onset": 24895,
      "duration": 109,
      "id_score": 34.79,
      "voice_tag": "Background (Solid / Harmony)",
      "hue": 150.0,
      "sat": 100.0,
      "regime_state": "TRANSITION SPIKE!"
    },
    {
      "pitch": 69,
      "velocity": 64,
      "onset": 25031,
      "duration": 72,
      "id_score": 8.52,
      "voice_tag": "Background (Solid / Harmony)",
      "hue": 90.0,
      "sat": 100.0,
      "regime_state": "Stable"
    },
    {
      "pitch": 71,
      "velocity": 68,
      "onset": 25177,
      "duration": 536,
      "id_score": 8.68,
      "voice_tag": "Background (Solid / Harmony)",
      "hue": 150.0,
      "sat": 100.0,
      "regime_state": "TRANSITION SPIKE!"
    },
    {
      "pitch": 71,
      "velocity": 98,
      "onset": 26109,
      "duration": 177,
      "id_score": 0.0,
      "voice_tag": "Background (Solid / Harmony)",
      "hue": 150.0,
      "sat": 100.0,
      "regime_state": "TRANSITION SPIKE!"
    },
    {
      "pitch": 60,
      "velocity": 81,
      "onset": 26114,
      "duration": 994,
      "id_score": 1403.15,
      "voice_tag": "Voice 1 (Liquid / Melody)",
      "hue": 0.0,
      "sat": 100.0,
      "regime_state": "Undefined / Gray Void"
    },
    {
      "pitch": 53,
      "velocity": 79,
      "onset": 26125,
      "duration": 989,
      "id_score": 395.85,
      "voice_tag": "Voice 1 (Liquid / Melody)",
      "hue": 330.0,
      "sat": 100.0,
      "regime_state": "Stable"
    },
    {
      "pitch": 65,
      "velocity": 88,
      "onset": 26125,
      "duration": 927,
      "id_score": 0.0,
      "voice_tag": "Background (Solid / Harmony)",
      "hue": 330.0,
      "sat": 100.0,
      "regime_state": "Stable"
    },
    {
      "pitch": 69,
      "velocity": 87,
      "onset": 26265,
      "duration": 182,
      "id_score": 22.51,
      "voice_tag": "Background (Solid / Harmony)",
      "hue": 90.0,
      "sat": 100.0,
      "regime_state": "TRANSITION SPIKE!"
    },
    {
      "pitch": 67,
      "velocity": 80,
      "onset": 26437,
      "duration": 135,
      "id_score": 8.18,
      "voice_tag": "Background (Solid / Harmony)",
      "hue": 30.0,
      "sat": 100.0,
      "regime_state": "TRANSITION SPIKE!"
    },
    {
      "pitch": 69,
      "velocity": 75,
      "onset": 26572,
      "duration": 505,
      "id_score": 10.06,
      "voice_tag": "Background (Solid / Harmony)",
      "hue": 90.0,
      "sat": 100.0,
      "regime_state": "Regime Locked"
    },
    {
      "pitch": 67,
      "velocity": 72,
      "onset": 27489,
      "duration": 1380,
      "id_score": 1.38,
      "voice_tag": "Background (Solid / Harmony)",
      "hue": 30.0,
      "sat": 100.0,
      "regime_state": "TRANSITION SPIKE!"
    },
    {
      "pitch": 65,
      "velocity": 72,
      "onset": 27505,
      "duration": 177,
      "id_score": 76.77,
      "voice_tag": "Voice 1 (Liquid / Melody)",
      "hue": 330.0,
      "sat": 100.0,
      "regime_state": "Stable"
    },
    {
      "pitch": 48,
      "velocity": 57,
      "onset": 27510,
      "duration": 1213,
      "id_score": 1525.98,
      "voice_tag": "Voice 1 (Liquid / Melody)",
      "hue": 15.1,
      "sat": 96.6,
      "regime_state": "Stable"
    },
    {
      "pitch": 55,
      "velocity": 58,
      "onset": 27510,
      "duration": 1197,
      "id_score": 0.0,
      "voice_tag": "Background (Solid / Harmony)",
      "hue": 15.1,
      "sat": 96.6,
      "regime_state": "Stable"
    },
    {
      "pitch": 60,
      "velocity": 67,
      "onset": 27515,
      "duration": 1161,
      "id_score": 527.56,
      "voice_tag": "Voice 1 (Liquid / Melody)",
      "hue": 0.0,
      "sat": 100.0,
      "regime_state": "Regime Locked"
    },
    {
      "pitch": 64,
      "velocity": 81,
      "onset": 27703,
      "duration": 151,
      "id_score": 14.47,
      "voice_tag": "Background (Solid / Harmony)",
      "hue": 60.0,
      "sat": 100.0,
      "regime_state": "TRANSITION SPIKE!"
    },
    {
      "pitch": 62,
      "velocity": 76,
      "onset": 27859,
      "duration": 156,
      "id_score": 7.93,
      "voice_tag": "Background (Solid / Harmony)",
      "hue": 120.0,
      "sat": 100.0,
      "regime_state": "TRANSITION SPIKE!"
    },
    {
      "pitch": 64,
      "velocity": 86,
      "onset": 28036,
      "duration": 656,
      "id_score": 8.16,
      "voice_tag": "Background (Solid / Harmony)",
      "hue": 60.0,
      "sat": 100.0,
      "regime_state": "TRANSITION SPIKE!"
    },
    {
      "pitch": 50,
      "velocity": 82,
      "onset": 28989,
      "duration": 291,
      "id_score": 9.49,
      "voice_tag": "Background (Solid / Harmony)",
      "hue": 31.8,
      "sat": 26.6,
      "regime_state": "Undefined / Gray Void"
    },
    {
      "pitch": 65,
      "velocity": 93,
      "onset": 28989,
      "duration": 296,
      "id_score": 0.0,
      "voice_tag": "Background (Solid / Harmony)",
      "hue": 31.8,
      "sat": 26.6,
      "regime_state": "Undefined / Gray Void"
    },
    {
      "pitch": 57,
      "velocity": 82,
      "onset": 28994,
      "duration": 265,
      "id_score": 1033.07,
      "voice_tag": "Voice 1 (Liquid / Melody)",
      "hue": 90.0,
      "sat": 100.0,
      "regime_state": "TRANSITION SPIKE!"
    },
    {
      "pitch": 60,
      "velocity": 84,
      "onset": 29000,
      "duration": 213,
      "id_score": 330.71,
      "voice_tag": "Voice 1 (Liquid / Melody)",
      "hue": 0.0,
      "sat": 100.0,
      "regime_state": "Stable"
    },
    {
      "pitch": 57,
      "velocity": 80,
      "onset": 29380,
      "duration": 67,
      "id_score": 4.97,
      "voice_tag": "Background (Solid / Harmony)",
      "hue": 90.0,
      "sat": 100.0,
      "regime_state": "TRANSITION SPIKE!"
    },
    {
      "pitch": 52,
      "velocity": 77,
      "onset": 29385,
      "duration": 57,
      "id_score": 606.3,
      "voice_tag": "Voice 1 (Liquid / Melody)",
      "hue": 60.0,
      "sat": 100.0,
      "regime_state": "Stable"
    },
    {
      "pitch": 67,
      "velocity": 88,
      "onset": 29390,
      "duration": 57,
      "id_score": 2321.26,
      "voice_tag": "Voice 1 (Liquid / Melody)",
      "hue": 30.0,
      "sat": 100.0,
      "regime_state": "Stable"
    },
    {
      "pitch": 60,
      "velocity": 75,
      "onset": 29411,
      "duration": 57,
      "id_score": 196.85,
      "voice_tag": "Voice 1 (Liquid / Melody)",
      "hue": 0.0,
      "sat": 100.0,
      "regime_state": "Stable"
    },
    {
      "pitch": 57,
      "velocity": 70,
      "onset": 29593,
      "duration": 78,
      "id_score": 9.09,
      "voice_tag": "Background (Solid / Harmony)",
      "hue": 90.0,
      "sat": 100.0,
      "regime_state": "TRANSITION SPIKE!"
    },
    {
      "pitch": 53,
      "velocity": 83,
      "onset": 29598,
      "duration": 72,
      "id_score": 522.83,
      "voice_tag": "Voice 1 (Liquid / Melody)",
      "hue": 330.0,
      "sat": 100.0,
      "regime_state": "Stable"
    },
    {
      "pitch": 69,
      "velocity": 80,
      "onset": 29609,
      "duration": 62,
      "id_score": 1053.69,
      "voice_tag": "Voice 1 (Liquid / Melody)",
      "hue": 90.0,
      "sat": 100.0,
      "regime_state": "Stable"
    },
    {
      "pitch": 60,
      "velocity": 46,
      "onset": 29614,
      "duration": 67,
      "id_score": 651.97,
      "voice_tag": "Voice 1 (Liquid / Melody)",
      "hue": 0.0,
      "sat": 100.0,
      "regime_state": "Stable"
    },
    {
      "pitch": 65,
      "velocity": 103,
      "onset": 29812,
      "duration": 52,
      "id_score": 22.19,
      "voice_tag": "Background (Solid / Harmony)",
      "hue": 330.0,
      "sat": 100.0,
      "regime_state": "TRANSITION SPIKE!"
    },
    {
      "pitch": 60,
      "velocity": 76,
      "onset": 29822,
      "duration": 52,
      "id_score": 299.21,
      "voice_tag": "Voice 1 (Liquid / Melody)",
      "hue": 0.0,
      "sat": 100.0,
      "regime_state": "Stable"
    },
    {
      "pitch": 52,
      "velocity": 69,
      "onset": 29833,
      "duration": 57,
      "id_score": 395.13,
      "voice_tag": "Voice 1 (Liquid / Melody)",
      "hue": 76.1,
      "sat": 96.6,
      "regime_state": "Stable"
    },
    {
      "pitch": 57,
      "velocity": 80,
      "onset": 29833,
      "duration": 52,
      "id_score": 0.0,
      "voice_tag": "Background (Solid / Harmony)",
      "hue": 76.1,
      "sat": 96.6,
      "regime_state": "Stable"
    },
    {
      "pitch": 57,
      "velocity": 101,
      "onset": 30234,
      "duration": 46,
      "id_score": 0.0,
      "voice_tag": "Background (Solid / Harmony)",
      "hue": 90.0,
      "sat": 100.0,
      "regime_state": "TRANSITION SPIKE!"
    },
    {
      "pitch": 53,
      "velocity": 84,
      "onset": 30239,
      "duration": 46,
      "id_score": 529.13,
      "voice_tag": "Voice 1 (Liquid / Melody)",
      "hue": 64.9,
      "sat": 27.5,
      "regime_state": "Stable"
    },
    {
      "pitch": 62,
      "velocity": 102,
      "onset": 30239,
      "duration": 46,
      "id_score": 0.0,
      "voice_tag": "Background (Solid / Harmony)",
      "hue": 64.9,
      "sat": 27.5,
      "regime_state": "Stable"
    },
    {
      "pitch": 59,
      "velocity": 83,
      "onset": 30255,
      "duration": 46,
      "id_score": 122.54,
      "voice_tag": "Voice 1 (Liquid / Melody)",
      "hue": 150.0,
      "sat": 100.0,
      "regime_state": "Stable"
    },
    {
      "pitch": 56,
      "velocity": 103,
      "onset": 30723,
      "duration": 1093,
      "id_score": 5.2,
      "voice_tag": "Background (Solid / Harmony)",
      "hue": 300.0,
      "sat": 100.0,
      "regime_state": "TRANSITION SPIKE!"
    },
    {
      "pitch": 52,
      "velocity": 96,
      "onset": 30729,
      "duration": 1057,
      "id_score": 503.94,
      "voice_tag": "Voice 1 (Liquid / Melody)",
      "hue": 60.0,
      "sat": 100.0,
      "regime_state": "Stable"
    },
    {
      "pitch": 64,
      "velocity": 106,
      "onset": 30729,
      "duration": 1026,
      "id_score": 0.0,
      "voice_tag": "Background (Solid / Harmony)",
      "hue": 60.0,
      "sat": 100.0,
      "regime_state": "Stable"
    },
    {
      "pitch": 59,
      "velocity": 94,
      "onset": 30739,
      "duration": 958,
      "id_score": 370.08,
      "voice_tag": "Voice 1 (Liquid / Melody)",
      "hue": 150.0,
      "sat": 100.0,
      "regime_state": "Stable"
    },
    {
      "pitch": 45,
      "velocity": 40,
      "onset": 33328,
      "duration": 572,
      "id_score": 1.7,
      "voice_tag": "Background (Solid / Harmony)",
      "hue": 90.0,
      "sat": 100.0,
      "regime_state": "TRANSITION SPIKE!"
    },
    {
      "pitch": 52,
      "velocity": 50,
      "onset": 33786,
      "duration": 72,
      "id_score": 6.02,
      "voice_tag": "Background (Solid / Harmony)",
      "hue": 28.7,
      "sat": 86.6,
      "regime_state": "TRANSITION SPIKE!"
    },
    {
      "pitch": 60,
      "velocity": 54,
      "onset": 33786,
      "duration": 72,
      "id_score": 0.0,
      "voice_tag": "Background (Solid / Harmony)",
      "hue": 28.7,
      "sat": 86.6,
      "regime_state": "TRANSITION SPIKE!"
    },
    {
      "pitch": 52,
      "velocity": 52,
      "onset": 34208,
      "duration": 67,
      "id_score": 7.76,
      "voice_tag": "Background (Solid / Harmony)",
      "hue": 26.1,
      "sat": 86.8,
      "regime_state": "Regime Locked"
    },
    {
      "pitch": 60,
      "velocity": 66,
      "onset": 34208,
      "duration": 67,
      "id_score": 0.0,
      "voice_tag": "Background (Solid / Harmony)",
      "hue": 26.1,
      "sat": 86.8,
      "regime_state": "Regime Locked"
    },
    {
      "pitch": 45,
      "velocity": 60,
      "onset": 34666,
      "duration": 494,
      "id_score": 15.47,
      "voice_tag": "Background (Solid / Harmony)",
      "hue": 90.0,
      "sat": 100.0,
      "regime_state": "TRANSITION SPIKE!"
    },
    {
      "pitch": 52,
      "velocity": 61,
      "onset": 35130,
      "duration": 62,
      "id_score": 7.25,
      "voice_tag": "Background (Solid / Harmony)",
      "hue": 26.4,
      "sat": 86.8,
      "regime_state": "TRANSITION SPIKE!"
    },
    {
      "pitch": 60,
      "velocity": 76,
      "onset": 35130,
      "duration": 57,
      "id_score": 0.0,
      "voice_tag": "Background (Solid / Harmony)",
      "hue": 26.4,
      "sat": 86.8,
      "regime_state": "TRANSITION SPIKE!"
    },
    {
      "pitch": 60,
      "velocity": 82,
      "onset": 35536,
      "duration": 52,
      "id_score": 0.0,
      "voice_tag": "Background (Solid / Harmony)",
      "hue": 0.0,
      "sat": 100.0,
      "regime_state": "TRANSITION SPIKE!"
    },
    {
      "pitch": 52,
      "velocity": 65,
      "onset": 35541,
      "duration": 67,
      "id_score": 818.9,
      "voice_tag": "Voice 1 (Liquid / Melody)",
      "hue": 60.0,
      "sat": 100.0,
      "regime_state": "Stable"
    },
    {
      "pitch": 45,
      "velocity": 50,
      "onset": 35973,
      "duration": 494,
      "id_score": 6.38,
      "voice_tag": "Background (Solid / Harmony)",
      "hue": 90.0,
      "sat": 100.0,
      "regime_state": "TRANSITION SPIKE!"
    },
    {
      "pitch": 64,
      "velocity": 71,
      "onset": 35994,
      "duration": 244,
      "id_score": 539.53,
      "voice_tag": "Voice 1 (Liquid / Melody)",
      "hue": 60.0,
      "sat": 100.0,
      "regime_state": "Stable"
    },
    {
      "pitch": 66,
      "velocity": 87,
      "onset": 36421,
      "duration": 57,
      "id_score": 3.53,
      "voice_tag": "Background (Solid / Harmony)",
      "hue": 210.0,
      "sat": 100.0,
      "regime_state": "TRANSITION SPIKE!"
    },
    {
      "pitch": 52,
      "velocity": 55,
      "onset": 36427,
      "duration": 72,
      "id_score": 1010.5,
      "voice_tag": "Voice 1 (Liquid / Melody)",
      "hue": 60.0,
      "sat": 100.0,
      "regime_state": "Stable"
    },
    {
      "pitch": 60,
      "velocity": 50,
      "onset": 36432,
      "duration": 72,
      "id_score": 629.92,
      "voice_tag": "Voice 1 (Liquid / Melody)",
      "hue": 0.0,
      "sat": 100.0,
      "regime_state": "Undefined / Gray Void"
    },
    {
      "pitch": 68,
      "velocity": 83,
      "onset": 36625,
      "duration": 67,
      "id_score": 30.7,
      "voice_tag": "Background (Solid / Harmony)",
      "hue": 300.0,
      "sat": 100.0,
      "regime_state": "Undefined / Gray Void"
    },
    {
      "pitch": 52,
      "velocity": 64,
      "onset": 36843,
      "duration": 83,
      "id_score": 36.99,
      "voice_tag": "Background (Solid / Harmony)",
      "hue": 29.7,
      "sat": 86.6,
      "regime_state": "TRANSITION SPIKE!"
    },
    {
      "pitch": 60,
      "velocity": 65,
      "onset": 36843,
      "duration": 62,
      "id_score": 0.0,
      "voice_tag": "Background (Solid / Harmony)",
      "hue": 29.7,
      "sat": 86.6,
      "regime_state": "TRANSITION SPIKE!"
    },
    {
      "pitch": 69,
      "velocity": 83,
      "onset": 36859,
      "duration": 52,
      "id_score": 422.76,
      "voice_tag": "Voice 1 (Liquid / Melody)",
      "hue": 90.0,
      "sat": 100.0,
      "regime_state": "Stable"
    },
    {
      "pitch": 45,
      "velocity": 67,
      "onset": 37234,
      "duration": 328,
      "id_score": 33.76,
      "voice_tag": "Background (Solid / Harmony)",
      "hue": 90.0,
      "sat": 100.0,
      "regime_state": "TRANSITION SPIKE!"
    },
    {
      "pitch": 69,
      "velocity": 78,
      "onset": 37260,
      "duration": 364,
      "id_score": 651.97,
      "voice_tag": "Voice 1 (Liquid / Melody)",
      "hue": 90.0,
      "sat": 100.0,
      "regime_state": "Regime Locked"
    },
    {
      "pitch": 71,
      "velocity": 82,
      "onset": 37708,
      "duration": 57,
      "id_score": 3.41,
      "voice_tag": "Background (Solid / Harmony)",
      "hue": 150.0,
      "sat": 100.0,
      "regime_state": "TRANSITION SPIKE!"
    },
    {
      "pitch": 62,
      "velocity": 57,
      "onset": 37718,
      "duration": 83,
      "id_score": 417.4,
      "voice_tag": "Voice 1 (Liquid / Melody)",
      "hue": 120.0,
      "sat": 100.0,
      "regime_state": "Stable"
    },
    {
      "pitch": 52,
      "velocity": 42,
      "onset": 37723,
      "duration": 83,
      "id_score": 661.42,
      "voice_tag": "Voice 1 (Liquid / Melody)",
      "hue": 60.0,
      "sat": 100.0,
      "regime_state": "Stable"
    },
    {
      "pitch": 68,
      "velocity": 83,
      "onset": 37906,
      "duration": 62,
      "id_score": 64.76,
      "voice_tag": "Voice 1 (Liquid / Melody)",
      "hue": 300.0,
      "sat": 100.0,
      "regime_state": "Undefined / Gray Void"
    },
    {
      "pitch": 62,
      "velocity": 69,
      "onset": 38114,
      "duration": 72,
      "id_score": 16.19,
      "voice_tag": "Background (Solid / Harmony)",
      "hue": 120.0,
      "sat": 100.0,
      "regime_state": "Undefined / Gray Void"
    },
    {
      "pitch": 52,
      "velocity": 45,
      "onset": 38125,
      "duration": 72,
      "id_score": 322.12,
      "voice_tag": "Voice 1 (Liquid / Melody)",
      "hue": 60.0,
      "sat": 100.0,
      "regime_state": "Undefined / Gray Void"
    },
    {
      "pitch": 66,
      "velocity": 87,
      "onset": 38130,
      "duration": 57,
      "id_score": 2109.92,
      "voice_tag": "Voice 1 (Liquid / Melody)",
      "hue": 210.0,
      "sat": 100.0,
      "regime_state": "Undefined / Gray Void"
    },
    {
      "pitch": 69,
      "velocity": 75,
      "onset": 38489,
      "duration": 46,
      "id_score": 5.68,
      "voice_tag": "Background (Solid / Harmony)",
      "hue": 90.0,
      "sat": 100.0,
      "regime_state": "TRANSITION SPIKE!"
    },
    {
      "pitch": 45,
      "velocity": 59,
      "onset": 38500,
      "duration": 463,
      "id_score": 1013.6,
      "voice_tag": "Voice 1 (Liquid / Melody)",
      "hue": 90.0,
      "sat": 100.0,
      "regime_state": "Regime Locked"
    },
    {
      "pitch": 66,
      "velocity": 98,
      "onset": 38526,
      "duration": 41,
      "id_score": 685.58,
      "voice_tag": "Voice 1 (Liquid / Melody)",
      "hue": 210.0,
      "sat": 100.0,
      "regime_state": "Stable"
    },
    {
      "pitch": 52,
      "velocity": 50,
      "onset": 38968,
      "duration": 72,
      "id_score": 12.47,
      "voice_tag": "Background (Solid / Harmony)",
      "hue": 60.0,
      "sat": 100.0,
      "regime_state": "TRANSITION SPIKE!"
    },
    {
      "pitch": 60,
      "velocity": 49,
      "onset": 38973,
      "duration": 72,
      "id_score": 617.32,
      "voice_tag": "Voice 1 (Liquid / Melody)",
      "hue": 0.0,
      "sat": 100.0,
      "regime_state": "Stable"
    },
    {
      "pitch": 64,
      "velocity": 86,
      "onset": 38984,
      "duration": 1682,
      "id_score": 262.66,
      "voice_tag": "Voice 1 (Liquid / Melody)",
      "hue": 60.0,
      "sat": 100.0,
      "regime_state": "Stable"
    },
    {
      "pitch": 60,
      "velocity": 83,
      "onset": 39411,
      "duration": 52,
      "id_score": 6.12,
      "voice_tag": "Background (Solid / Harmony)",
      "hue": 0.0,
      "sat": 100.0,
      "regime_state": "TRANSITION SPIKE!"
    },
    {
      "pitch": 52,
      "velocity": 78,
      "onset": 39416,
      "duration": 57,
      "id_score": 982.68,
      "voice_tag": "Voice 1 (Liquid / Melody)",
      "hue": 60.0,
      "sat": 100.0,
      "regime_state": "Stable"
    },
    {
      "pitch": 45,
      "velocity": 64,
      "onset": 39906,
      "duration": 406,
      "id_score": 7.2,
      "voice_tag": "Background (Solid / Harmony)",
      "hue": 90.0,
      "sat": 100.0,
      "regime_state": "TRANSITION SPIKE!"
    },
    {
      "pitch": 60,
      "velocity": 78,
      "onset": 40328,
      "duration": 57,
      "id_score": 21.83,
      "voice_tag": "Background (Solid / Harmony)",
      "hue": 0.0,
      "sat": 100.0,
      "regime_state": "TRANSITION SPIKE!"
    },
    {
      "pitch": 52,
      "velocity": 71,
      "onset": 40333,
      "duration": 62,
      "id_score": 894.49,
      "voice_tag": "Voice 1 (Liquid / Melody)",
      "hue": 60.0,
      "sat": 100.0,
      "regime_state": "Stable"
    },
    {
      "pitch": 60,
      "velocity": 81,
      "onset": 40744,
      "duration": 52,
      "id_score": 12.41,
      "voice_tag": "Background (Solid / Harmony)",
      "hue": 0.0,
      "sat": 100.0,
      "regime_state": "TRANSITION SPIKE!"
    },
    {
      "pitch": 52,
      "velocity": 73,
      "onset": 40755,
      "duration": 52,
      "id_score": 418.04,
      "voice_tag": "Voice 1 (Liquid / Melody)",
      "hue": 60.0,
      "sat": 100.0,
      "regime_state": "Stable"
    },
    {
      "pitch": 45,
      "velocity": 55,
      "onset": 41203,
      "duration": 401,
      "id_score": 6.77,
      "voice_tag": "Background (Solid / Harmony)",
      "hue": 90.0,
      "sat": 100.0,
      "regime_state": "TRANSITION SPIKE!"
    },
    {
      "pitch": 64,
      "velocity": 77,
      "onset": 41442,
      "duration": 72,
      "id_score": 51.41,
      "voice_tag": "Voice 1 (Liquid / Melody)",
      "hue": 60.0,
      "sat": 100.0,
      "regime_state": "TRANSITION SPIKE!"
    },
    {
      "pitch": 52,
      "velocity": 57,
      "onset": 41666,
      "duration": 78,
      "id_score": 24.04,
      "voice_tag": "Background (Solid / Harmony)",
      "hue": 172.9,
      "sat": 32.8,
      "regime_state": "TRANSITION SPIKE!"
    },
    {
      "pitch": 66,
      "velocity": 87,
      "onset": 41666,
      "duration": 57,
      "id_score": 0.0,
      "voice_tag": "Background (Solid / Harmony)",
      "hue": 172.9,
      "sat": 32.8,
      "regime_state": "TRANSITION SPIKE!"
    },
    {
      "pitch": 60,
      "velocity": 68,
      "onset": 41671,
      "duration": 57,
      "id_score": 642.52,
      "voice_tag": "Voice 1 (Liquid / Melody)",
      "hue": 0.0,
      "sat": 100.0,
      "regime_state": "Stable"
    },
    {
      "pitch": 68,
      "velocity": 84,
      "onset": 41875,
      "duration": 57,
      "id_score": 29.4,
      "voice_tag": "Background (Solid / Harmony)",
      "hue": 300.0,
      "sat": 100.0,
      "regime_state": "TRANSITION SPIKE!"
    },
    {
      "pitch": 52,
      "velocity": 54,
      "onset": 42093,
      "duration": 67,
      "id_score": 31.21,
      "voice_tag": "Background (Solid / Harmony)",
      "hue": 340.4,
      "sat": 53.1,
      "regime_state": "TRANSITION SPIKE!"
    },
    {
      "pitch": 68,
      "velocity": 82,
      "onset": 42093,
      "duration": 218,
      "id_score": 0.0,
      "voice_tag": "Background (Solid / Harmony)",
      "hue": 340.4,
      "sat": 53.1,
      "regime_state": "TRANSITION SPIKE!"
    },
    {
      "pitch": 60,
      "velocity": 54,
      "onset": 42098,
      "duration": 72,
      "id_score": 680.31,
      "voice_tag": "Voice 1 (Liquid / Melody)",
      "hue": 0.0,
      "sat": 100.0,
      "regime_state": "Stable"
    },
    {
      "pitch": 69,
      "velocity": 70,
      "onset": 42328,
      "duration": 78,
      "id_score": 24.8,
      "voice_tag": "Background (Solid / Harmony)",
      "hue": 90.0,
      "sat": 100.0,
      "regime_state": "TRANSITION SPIKE!"
    },
    {
      "pitch": 45,
      "velocity": 56,
      "onset": 42578,
      "duration": 260,
      "id_score": 42.33,
      "voice_tag": "Background (Solid / Harmony)",
      "hue": 90.0,
      "sat": 100.0,
      "regime_state": "TRANSITION SPIKE!"
    },
    {
      "pitch": 69,
      "velocity": 78,
      "onset": 42791,
      "duration": 83,
      "id_score": 79.58,
      "voice_tag": "Voice 1 (Liquid / Melody)",
      "hue": 90.0,
      "sat": 100.0,
      "regime_state": "TRANSITION SPIKE!"
    },
    {
      "pitch": 52,
      "velocity": 72,
      "onset": 43005,
      "duration": 72,
      "id_score": 45.04,
      "voice_tag": "Background (Solid / Harmony)",
      "hue": 60.0,
      "sat": 100.0,
      "regime_state": "TRANSITION SPIKE!"
    },
    {
      "pitch": 71,
      "velocity": 85,
      "onset": 43010,
      "duration": 62,
      "id_score": 3009.58,
      "voice_tag": "Voice 1 (Liquid / Melody)",
      "hue": 150.0,
      "sat": 100.0,
      "regime_state": "Stable"
    },
    {
      "pitch": 62,
      "velocity": 67,
      "onset": 43026,
      "duration": 78,
      "id_score": 306.64,
      "voice_tag": "Voice 1 (Liquid / Melody)",
      "hue": 120.0,
      "sat": 100.0,
      "regime_state": "Stable"
    },
    {
      "pitch": 68,
      "velocity": 85,
      "onset": 43223,
      "duration": 57,
      "id_score": 23.1,
      "voice_tag": "Background (Solid / Harmony)",
      "hue": 300.0,
      "sat": 100.0,
      "regime_state": "TRANSITION SPIKE!"
    },
    {
      "pitch": 52,
      "velocity": 56,
      "onset": 43437,
      "duration": 67,
      "id_score": 32.97,
      "voice_tag": "Background (Solid / Harmony)",
      "hue": 60.0,
      "sat": 100.0,
      "regime_state": "TRANSITION SPIKE!"
    },
    {
      "pitch": 62,
      "velocity": 57,
      "onset": 43442,
      "duration": 67,
      "id_score": 927.56,
      "voice_tag": "Voice 1 (Liquid / Melody)",
      "hue": 300.0,
      "sat": 17.4,
      "regime_state": "Stable"
    },
    {
      "pitch": 68,
      "velocity": 81,
      "onset": 43442,
      "duration": 218,
      "id_score": 0.0,
      "voice_tag": "Background (Solid / Harmony)",
      "hue": 300.0,
      "sat": 17.4,
      "regime_state": "Stable"
    },
    {
      "pitch": 66,
      "velocity": 80,
      "onset": 43645,
      "duration": 62,
      "id_score": 6.83,
      "voice_tag": "Background (Solid / Harmony)",
      "hue": 210.0,
      "sat": 100.0,
      "regime_state": "Undefined / Gray Void"
    },
    {
      "pitch": 45,
      "velocity": 57,
      "onset": 43864,
      "duration": 395,
      "id_score": 43.04,
      "voice_tag": "Background (Solid / Harmony)",
      "hue": 90.0,
      "sat": 100.0,
      "regime_state": "TRANSITION SPIKE!"
    },
    {
      "pitch": 69,
      "velocity": 77,
      "onset": 43864,
      "duration": 46,
      "id_score": 0.0,
      "voice_tag": "Background (Solid / Harmony)",
      "hue": 90.0,
      "sat": 100.0,
      "regime_state": "TRANSITION SPIKE!"
    },
    {
      "pitch": 66,
      "velocity": 89,
      "onset": 43906,
      "duration": 52,
      "id_score": 55.06,
      "voice_tag": "Voice 1 (Liquid / Melody)",
      "hue": 210.0,
      "sat": 100.0,
      "regime_state": "Stable"
    },
    {
      "pitch": 52,
      "velocity": 65,
      "onset": 44348,
      "duration": 67,
      "id_score": 16.21,
      "voice_tag": "Background (Solid / Harmony)",
      "hue": 60.0,
      "sat": 100.0,
      "regime_state": "TRANSITION SPIKE!"
    },
    {
      "pitch": 60,
      "velocity": 70,
      "onset": 44354,
      "duration": 57,
      "id_score": 734.91,
      "voice_tag": "Voice 1 (Liquid / Melody)",
      "hue": 34.1,
      "sat": 86.8,
      "regime_state": "Stable"
    },
    {
      "pitch": 64,
      "velocity": 90,
      "onset": 44354,
      "duration": 1442,
      "id_score": 0.0,
      "voice_tag": "Background (Solid / Harmony)",
      "hue": 34.1,
      "sat": 86.8,
      "regime_state": "Stable"
    },
    {
      "pitch": 60,
      "velocity": 81,
      "onset": 44796,
      "duration": 52,
      "id_score": 5.77,
      "voice_tag": "Background (Solid / Harmony)",
      "hue": 0.0,
      "sat": 100.0,
      "regime_state": "TRANSITION SPIKE!"
    },
    {
      "pitch": 52,
      "velocity": 70,
      "onset": 44802,
      "duration": 57,
      "id_score": 734.91,
      "voice_tag": "Voice 1 (Liquid / Melody)",
      "hue": 60.0,
      "sat": 100.0,
      "regime_state": "Stable"
    },
    {
      "pitch": 45,
      "velocity": 69,
      "onset": 45276,
      "duration": 489,
      "id_score": 8.02,
      "voice_tag": "Background (Solid / Harmony)",
      "hue": 90.0,
      "sat": 100.0,
      "regime_state": "TRANSITION SPIKE!"
    },
    {
      "pitch": 60,
      "velocity": 84,
      "onset": 45744,
      "duration": 52,
      "id_score": 21.2,
      "voice_tag": "Background (Solid / Harmony)",
      "hue": 0.0,
      "sat": 100.0,
      "regime_state": "TRANSITION SPIKE!"
    },
    {
      "pitch": 52,
      "velocity": 74,
      "onset": 45750,
      "duration": 57,
      "id_score": 776.9,
      "voice_tag": "Voice 1 (Liquid / Melody)",
      "hue": 60.0,
      "sat": 100.0,
      "regime_state": "Stable"
    },
    {
      "pitch": 60,
      "velocity": 91,
      "onset": 46171,
      "duration": 46,
      "id_score": 13.62,
      "voice_tag": "Background (Solid / Harmony)",
      "hue": 0.0,
      "sat": 100.0,
      "regime_state": "TRANSITION SPIKE!"
    },
    {
      "pitch": 52,
      "velocity": 61,
      "onset": 46177,
      "duration": 62,
      "id_score": 640.42,
      "voice_tag": "Voice 1 (Liquid / Melody)",
      "hue": 60.0,
      "sat": 100.0,
      "regime_state": "Stable"
    },
    {
      "pitch": 67,
      "velocity": 86,
      "onset": 46625,
      "duration": 46,
      "id_score": 25.32,
      "voice_tag": "Background (Solid / Harmony)",
      "hue": 30.0,
      "sat": 100.0,
      "regime_state": "TRANSITION SPIKE!"
    },
    {
      "pitch": 76,
      "velocity": 83,
      "onset": 46630,
      "duration": 46,
      "id_score": 1490.08,
      "voice_tag": "Voice 1 (Liquid / Melody)",
      "hue": 60.0,
      "sat": 100.0,
      "regime_state": "Stable"
    },
    {
      "pitch": 64,
      "velocity": 65,
      "onset": 46640,
      "duration": 78,
      "id_score": 655.12,
      "voice_tag": "Voice 1 (Liquid / Melody)",
      "hue": 60.0,
      "sat": 100.0,
      "regime_state": "Stable"
    },
    {
      "pitch": 60,
      "velocity": 62,
      "onset": 46645,
      "duration": 67,
      "id_score": 390.55,
      "voice_tag": "Voice 1 (Liquid / Melody)",
      "hue": 0.0,
      "sat": 100.0,
      "regime_state": "Stable"
    },
    {
      "pitch": 65,
      "velocity": 85,
      "onset": 47062,
      "duration": 57,
      "id_score": 8.69,
      "voice_tag": "Background (Solid / Harmony)",
      "hue": 330.0,
      "sat": 100.0,
      "regime_state": "TRANSITION SPIKE!"
    },
    {
      "pitch": 68,
      "velocity": 89,
      "onset": 47078,
      "duration": 52,
      "id_score": 148.92,
      "voice_tag": "Voice 1 (Liquid / Melody)",
      "hue": 300.0,
      "sat": 100.0,
      "regime_state": "Stable"
    },
    {
      "pitch": 60,
      "velocity": 76,
      "onset": 47083,
      "duration": 57,
      "id_score": 957.48,
      "voice_tag": "Voice 1 (Liquid / Melody)",
      "hue": 30.6,
      "sat": 86.6,
      "regime_state": "Stable"
    },
    {
      "pitch": 76,
      "velocity": 79,
      "onset": 47083,
      "duration": 52,
      "id_score": 0.0,
      "voice_tag": "Background (Solid / Harmony)",
      "hue": 30.6,
      "sat": 86.6,
      "regime_state": "Stable"
    },
    {
      "pitch": 66,
      "velocity": 97,
      "onset": 47484,
      "duration": 46,
      "id_score": 20.95,
      "voice_tag": "Background (Solid / Harmony)",
      "hue": 210.0,
      "sat": 100.0,
      "regime_state": "TRANSITION SPIKE!"
    },
    {
      "pitch": 76,
      "velocity": 95,
      "onset": 47489,
      "duration": 46,
      "id_score": 1895.01,
      "voice_tag": "Voice 1 (Liquid / Melody)",
      "hue": 60.0,
      "sat": 100.0,
      "regime_state": "Undefined / Gray Void"
    },
    {
      "pitch": 69,
      "velocity": 82,
      "onset": 47505,
      "duration": 41,
      "id_score": 324.85,
      "voice_tag": "Voice 1 (Liquid / Melody)",
      "hue": 90.0,
      "sat": 100.0,
      "regime_state": "Stable"
    },
    {
      "pitch": 60,
      "velocity": 87,
      "onset": 47510,
      "duration": 46,
      "id_score": 1233.07,
      "voice_tag": "Voice 1 (Liquid / Melody)",
      "hue": 0.0,
      "sat": 100.0,
      "regime_state": "Stable"
    },
    {
      "pitch": 76,
      "velocity": 97,
      "onset": 47911,
      "duration": 140,
      "id_score": 38.6,
      "voice_tag": "Background (Solid / Harmony)",
      "hue": 60.0,
      "sat": 100.0,
      "regime_state": "TRANSITION SPIKE!"
    },
    {
      "pitch": 67,
      "velocity": 81,
      "onset": 47921,
      "duration": 916,
      "id_score": 640.98,
      "voice_tag": "Voice 1 (Liquid / Melody)",
      "hue": 30.0,
      "sat": 100.0,
      "regime_state": "Stable"
    },
    {
      "pitch": 62,
      "velocity": 86,
      "onset": 47927,
      "duration": 921,
      "id_score": 583.11,
      "voice_tag": "Voice 1 (Liquid / Melody)",
      "hue": 120.0,
      "sat": 100.0,
      "regime_state": "Stable"
    },
    {
      "pitch": 71,
      "velocity": 81,
      "onset": 47932,
      "duration": 916,
      "id_score": 1358.5,
      "voice_tag": "Voice 1 (Liquid / Melody)",
      "hue": 150.0,
      "sat": 100.0,
      "regime_state": "Stable"
    },
    {
      "pitch": 55,
      "velocity": 71,
      "onset": 47937,
      "duration": 947,
      "id_score": 1788.98,
      "voice_tag": "Voice 1 (Liquid / Melody)",
      "hue": 30.0,
      "sat": 100.0,
      "regime_state": "Stable"
    },
    {
      "pitch": 74,
      "velocity": 83,
      "onset": 48067,
      "duration": 135,
      "id_score": 117.81,
      "voice_tag": "Voice 1 (Liquid / Melody)",
      "hue": 120.0,
      "sat": 100.0,
      "regime_state": "TRANSITION SPIKE!"
    },
    {
      "pitch": 72,
      "velocity": 77,
      "onset": 48223,
      "duration": 57,
      "id_score": 9.33,
      "voice_tag": "Background (Solid / Harmony)",
      "hue": 0.0,
      "sat": 100.0,
      "regime_state": "TRANSITION SPIKE!"
    },
    {
      "pitch": 74,
      "velocity": 79,
      "onset": 48348,
      "duration": 484,
      "id_score": 12.28,
      "voice_tag": "Background (Solid / Harmony)",
      "hue": 120.0,
      "sat": 100.0,
      "regime_state": "Stable"
    },
    {
      "pitch": 72,
      "velocity": 85,
      "onset": 49447,
      "duration": 57,
      "id_score": 1.46,
      "voice_tag": "Background (Solid / Harmony)",
      "hue": 0.0,
      "sat": 100.0,
      "regime_state": "TRANSITION SPIKE!"
    },
    {
      "pitch": 60,
      "velocity": 78,
      "onset": 49453,
      "duration": 57,
      "id_score": 1228.35,
      "voice_tag": "Voice 1 (Liquid / Melody)",
      "hue": 32.5,
      "sat": 86.7,
      "regime_state": "Stable"
    },
    {
      "pitch": 64,
      "velocity": 91,
      "onset": 49453,
      "duration": 46,
      "id_score": 0.0,
      "voice_tag": "Background (Solid / Harmony)",
      "hue": 32.5,
      "sat": 86.7,
      "regime_state": "Stable"
    },
    {
      "pitch": 57,
      "velocity": 47,
      "onset": 49494,
      "duration": 72,
      "id_score": 63.18,
      "voice_tag": "Voice 1 (Liquid / Melody)",
      "hue": 90.0,
      "sat": 100.0,
      "regime_state": "Stable"
    },
    {
      "pitch": 62,
      "velocity": 91,
      "onset": 49880,
      "duration": 57,
      "id_score": 9.59,
      "voice_tag": "Background (Solid / Harmony)",
      "hue": 49.8,
      "sat": 26.0,
      "regime_state": "Undefined / Gray Void"
    },
    {
      "pitch": 65,
      "velocity": 87,
      "onset": 49880,
      "duration": 52,
      "id_score": 0.0,
      "voice_tag": "Background (Solid / Harmony)",
      "hue": 49.8,
      "sat": 26.0,
      "regime_state": "Undefined / Gray Void"
    },
    {
      "pitch": 72,
      "velocity": 85,
      "onset": 49890,
      "duration": 57,
      "id_score": 562.2,
      "voice_tag": "Voice 1 (Liquid / Melody)",
      "hue": 0.0,
      "sat": 100.0,
      "regime_state": "TRANSITION SPIKE!"
    },
    {
      "pitch": 57,
      "velocity": 64,
      "onset": 49901,
      "duration": 72,
      "id_score": 687.19,
      "voice_tag": "Voice 1 (Liquid / Melody)",
      "hue": 90.0,
      "sat": 100.0,
      "regime_state": "Stable"
    },
    {
      "pitch": 63,
      "velocity": 97,
      "onset": 50291,
      "duration": 46,
      "id_score": 12.34,
      "voice_tag": "Background (Solid / Harmony)",
      "hue": 270.0,
      "sat": 100.0,
      "regime_state": "TRANSITION SPIKE!"
    },
    {
      "pitch": 66,
      "velocity": 90,
      "onset": 50302,
      "duration": 52,
      "id_score": 212.6,
      "voice_tag": "Voice 1 (Liquid / Melody)",
      "hue": 210.0,
      "sat": 100.0,
      "regime_state": "Stable"
    },
    {
      "pitch": 72,
      "velocity": 84,
      "onset": 50307,
      "duration": 46,
      "id_score": 952.44,
      "voice_tag": "Voice 1 (Liquid / Melody)",
      "hue": 0.0,
      "sat": 100.0,
      "regime_state": "Stable"
    },
    {
      "pitch": 57,
      "velocity": 41,
      "onset": 50333,
      "duration": 67,
      "id_score": 186.25,
      "voice_tag": "Voice 1 (Liquid / Melody)",
      "hue": 90.0,
      "sat": 100.0,
      "regime_state": "Stable"
    },
    {
      "pitch": 72,
      "velocity": 98,
      "onset": 50703,
      "duration": 171,
      "id_score": 37.54,
      "voice_tag": "Background (Solid / Harmony)",
      "hue": 0.0,
      "sat": 100.0,
      "regime_state": "TRANSITION SPIKE!"
    },
    {
      "pitch": 59,
      "velocity": 74,
      "onset": 50718,
      "duration": 1046,
      "id_score": 504.99,
      "voice_tag": "Voice 1 (Liquid / Melody)",
      "hue": 150.0,
      "sat": 100.0,
      "regime_state": "Undefined / Gray Void"
    },
    {
      "pitch": 52,
      "velocity": 62,
      "onset": 50729,
      "duration": 1062,
      "id_score": 310.67,
      "voice_tag": "Voice 1 (Liquid / Melody)",
      "hue": 49.5,
      "sat": 96.9,
      "regime_state": "Stable"
    },
    {
      "pitch": 64,
      "velocity": 79,
      "onset": 50729,
      "duration": 1015,
      "id_score": 0.0,
      "voice_tag": "Background (Solid / Harmony)",
      "hue": 49.5,
      "sat": 96.9,
      "regime_state": "Stable"
    },
    {
      "pitch": 67,
      "velocity": 77,
      "onset": 50729,
      "duration": 1031,
      "id_score": 0.0,
      "voice_tag": "Background (Solid / Harmony)",
      "hue": 49.5,
      "sat": 96.9,
      "regime_state": "Stable"
    },
    {
      "pitch": 71,
      "velocity": 80,
      "onset": 50875,
      "duration": 130,
      "id_score": 20.42,
      "voice_tag": "Background (Solid / Harmony)",
      "hue": 150.0,
      "sat": 100.0,
      "regime_state": "TRANSITION SPIKE!"
    },
    {
      "pitch": 69,
      "velocity": 82,
      "onset": 51005,
      "duration": 67,
      "id_score": 11.42,
      "voice_tag": "Background (Solid / Harmony)",
      "hue": 90.0,
      "sat": 100.0,
      "regime_state": "Stable"
    },
    {
      "pitch": 71,
      "velocity": 84,
      "onset": 51130,
      "duration": 604,
      "id_score": 12.52,
      "voice_tag": "Background (Solid / Harmony)",
      "hue": 150.0,
      "sat": 100.0,
      "regime_state": "TRANSITION SPIKE!"
    },
    {
      "pitch": 60,
      "velocity": 64,
      "onset": 52223,
      "duration": 1052,
      "id_score": 5.07,
      "voice_tag": "Background (Solid / Harmony)",
      "hue": 98.6,
      "sat": 28.3,
      "regime_state": "Undefined / Gray Void"
    },
    {
      "pitch": 71,
      "velocity": 81,
      "onset": 52223,
      "duration": 161,
      "id_score": 0.0,
      "voice_tag": "Background (Solid / Harmony)",
      "hue": 98.6,
      "sat": 28.3,
      "regime_state": "Undefined / Gray Void"
    },
    {
      "pitch": 65,
      "velocity": 67,
      "onset": 52239,
      "duration": 994,
      "id_score": 214.32,
      "voice_tag": "Voice 1 (Liquid / Melody)",
      "hue": 330.0,
      "sat": 100.0,
      "regime_state": "Undefined / Gray Void"
    },
    {
      "pitch": 53,
      "velocity": 58,
      "onset": 52255,
      "duration": 1031,
      "id_score": 342.52,
      "voice_tag": "Voice 1 (Liquid / Melody)",
      "hue": 330.0,
      "sat": 100.0,
      "regime_state": "TRANSITION SPIKE!"
    },
    {
      "pitch": 69,
      "velocity": 70,
      "onset": 52395,
      "duration": 140,
      "id_score": 72.44,
      "voice_tag": "Voice 1 (Liquid / Melody)",
      "hue": 90.0,
      "sat": 100.0,
      "regime_state": "Stable"
    },
    {
      "pitch": 67,
      "velocity": 69,
      "onset": 52536,
      "duration": 114,
      "id_score": 8.61,
      "voice_tag": "Background (Solid / Harmony)",
      "hue": 30.0,
      "sat": 100.0,
      "regime_state": "TRANSITION SPIKE!"
    },
    {
      "pitch": 69,
      "velocity": 66,
      "onset": 52692,
      "duration": 557,
      "id_score": 7.66,
      "voice_tag": "Background (Solid / Harmony)",
      "hue": 90.0,
      "sat": 100.0,
      "regime_state": "TRANSITION SPIKE!"
    },
    {
      "pitch": 67,
      "velocity": 70,
      "onset": 53729,
      "duration": 1625,
      "id_score": 1.19,
      "voice_tag": "Background (Solid / Harmony)",
      "hue": 30.0,
      "sat": 100.0,
      "regime_state": "TRANSITION SPIKE!"
    },
    {
      "pitch": 48,
      "velocity": 54,
      "onset": 53734,
      "duration": 1390,
      "id_score": 1615.75,
      "voice_tag": "Voice 1 (Liquid / Melody)",
      "hue": 0.0,
      "sat": 100.0,
      "regime_state": "Stable"
    },
    {
      "pitch": 55,
      "velocity": 51,
      "onset": 53750,
      "duration": 1359,
      "id_score": 175.69,
      "voice_tag": "Voice 1 (Liquid / Melody)",
      "hue": 15.3,
      "sat": 96.6,
      "regime_state": "Regime Locked"
    },
    {
      "pitch": 60,
      "velocity": 49,
      "onset": 53750,
      "duration": 1291,
      "id_score": 0.0,
      "voice_tag": "Background (Solid / Harmony)",
      "hue": 15.3,
      "sat": 96.6,
      "regime_state": "Regime Locked"
    },
    {
      "pitch": 65,
      "velocity": 60,
      "onset": 53755,
      "duration": 104,
      "id_score": 511.81,
      "voice_tag": "Voice 1 (Liquid / Melody)",
      "hue": 330.0,
      "sat": 100.0,
      "regime_state": "Stable"
    },
    {
      "pitch": 64,
      "velocity": 75,
      "onset": 53906,
      "duration": 130,
      "id_score": 4.17,
      "voice_tag": "Background (Solid / Harmony)",
      "hue": 60.0,
      "sat": 100.0,
      "regime_state": "TRANSITION SPIKE!"
    },
    {
      "pitch": 62,
      "velocity": 76,
      "onset": 54046,
      "duration": 145,
      "id_score": 8.83,
      "voice_tag": "Background (Solid / Harmony)",
      "hue": 120.0,
      "sat": 100.0,
      "regime_state": "Stable"
    },
    {
      "pitch": 64,
      "velocity": 57,
      "onset": 54213,
      "duration": 937,
      "id_score": 5.73,
      "voice_tag": "Background (Solid / Harmony)",
      "hue": 60.0,
      "sat": 100.0,
      "regime_state": "TRANSITION SPIKE!"
    },
    {
      "pitch": 50,
      "velocity": 90,
      "onset": 55411,
      "duration": 57,
      "id_score": 8.28,
      "voice_tag": "Background (Solid / Harmony)",
      "hue": 104.5,
      "sat": 96.6,
      "regime_state": "TRANSITION SPIKE!"
    },
    {
      "pitch": 57,
      "velocity": 96,
      "onset": 55411,
      "duration": 46,
      "id_score": 0.0,
      "voice_tag": "Background (Solid / Harmony)",
      "hue": 104.5,
      "sat": 96.6,
      "regime_state": "TRANSITION SPIKE!"
    },
    {
      "pitch": 65,
      "velocity": 98,
      "onset": 55416,
      "duration": 72,
      "id_score": 1337.53,
      "voice_tag": "Voice 1 (Liquid / Melody)",
      "hue": 330.0,
      "sat": 100.0,
      "regime_state": "Stable"
    },
    {
      "pitch": 60,
      "velocity": 88,
      "onset": 55427,
      "duration": 46,
      "id_score": 314.96,
      "voice_tag": "Voice 1 (Liquid / Melody)",
      "hue": 0.0,
      "sat": 100.0,
      "regime_state": "Stable"
    },
    {
      "pitch": 52,
      "velocity": 79,
      "onset": 55802,
      "duration": 67,
      "id_score": 13.27,
      "voice_tag": "Background (Solid / Harmony)",
      "hue": 60.0,
      "sat": 100.0,
      "regime_state": "TRANSITION SPIKE!"
    },
    {
      "pitch": 67,
      "velocity": 87,
      "onset": 55812,
      "duration": 78,
      "id_score": 1147.44,
      "voice_tag": "Voice 1 (Liquid / Melody)",
      "hue": 30.0,
      "sat": 100.0,
      "regime_state": "Stable"
    },
    {
      "pitch": 57,
      "velocity": 71,
      "onset": 55822,
      "duration": 62,
      "id_score": 559.06,
      "voice_tag": "Voice 1 (Liquid / Melody)",
      "hue": 90.0,
      "sat": 100.0,
      "regime_state": "Stable"
    },
    {
      "pitch": 60,
      "velocity": 63,
      "onset": 55843,
      "duration": 67,
      "id_score": 70.87,
      "voice_tag": "Voice 1 (Liquid / Melody)",
      "hue": 0.0,
      "sat": 100.0,
      "regime_state": "Stable"
    },
    {
      "pitch": 57,
      "velocity": 73,
      "onset": 56000,
      "duration": 83,
      "id_score": 10.98,
      "voice_tag": "Background (Solid / Harmony)",
      "hue": 90.0,
      "sat": 100.0,
      "regime_state": "TRANSITION SPIKE!"
    },
    {
      "pitch": 53,
      "velocity": 83,
      "onset": 56020,
      "duration": 78,
      "id_score": 130.71,
      "voice_tag": "Voice 1 (Liquid / Melody)",
      "hue": 342.8,
      "sat": 96.7,
      "regime_state": "Stable"
    },
    {
      "pitch": 60,
      "velocity": 62,
      "onset": 56020,
      "duration": 67,
      "id_score": 0.0,
      "voice_tag": "Background (Solid / Harmony)",
      "hue": 342.8,
      "sat": 96.7,
      "regime_state": "Stable"
    },
    {
      "pitch": 69,
      "velocity": 82,
      "onset": 56026,
      "duration": 72,
      "id_score": 1113.78,
      "voice_tag": "Voice 1 (Liquid / Melody)",
      "hue": 90.0,
      "sat": 100.0,
      "regime_state": "Stable"
    },
    {
      "pitch": 50,
      "velocity": 87,
      "onset": 56239,
      "duration": 52,
      "id_score": 61.11,
      "voice_tag": "Voice 1 (Liquid / Melody)",
      "hue": 120.0,
      "sat": 100.0,
      "regime_state": "TRANSITION SPIKE!"
    },
    {
      "pitch": 57,
      "velocity": 88,
      "onset": 56244,
      "duration": 46,
      "id_score": 970.08,
      "voice_tag": "Voice 1 (Liquid / Melody)",
      "hue": 24.7,
      "sat": 50.2,
      "regime_state": "Stable"
    },
    {
      "pitch": 65,
      "velocity": 98,
      "onset": 56244,
      "duration": 52,
      "id_score": 0.0,
      "voice_tag": "Background (Solid / Harmony)",
      "hue": 24.7,
      "sat": 50.2,
      "regime_state": "Stable"
    },
    {
      "pitch": 60,
      "velocity": 84,
      "onset": 56250,
      "duration": 52,
      "id_score": 551.18,
      "voice_tag": "Voice 1 (Liquid / Melody)",
      "hue": 0.0,
      "sat": 100.0,
      "regime_state": "Stable"
    },
    {
      "pitch": 53,
      "velocity": 96,
      "onset": 56713,
      "duration": 57,
      "id_score": 11.43,
      "voice_tag": "Background (Solid / Harmony)",
      "hue": 330.0,
      "sat": 100.0,
      "regime_state": "TRANSITION SPIKE!"
    },
    {
      "pitch": 57,
      "velocity": 93,
      "onset": 56718,
      "duration": 46,
      "id_score": 585.83,
      "voice_tag": "Voice 1 (Liquid / Melody)",
      "hue": 106.0,
      "sat": 96.6,
      "regime_state": "Stable"
    },
    {
      "pitch": 62,
      "velocity": 106,
      "onset": 56718,
      "duration": 46,
      "id_score": 0.0,
      "voice_tag": "Background (Solid / Harmony)",
      "hue": 106.0,
      "sat": 96.6,
      "regime_state": "Stable"
    },
    {
      "pitch": 59,
      "velocity": 83,
      "onset": 56734,
      "duration": 46,
      "id_score": 122.54,
      "voice_tag": "Voice 1 (Liquid / Melody)",
      "hue": 150.0,
      "sat": 100.0,
      "regime_state": "Stable"
    },
    {
      "pitch": 64,
      "velocity": 95,
      "onset": 57333,
      "duration": 1177,
      "id_score": 6.66,
      "voice_tag": "Background (Solid / Harmony)",
      "hue": 60.0,
      "sat": 100.0,
      "regime_state": "TRANSITION SPIKE!"
    },
    {
      "pitch": 52,
      "velocity": 72,
      "onset": 57338,
      "duration": 911,
      "id_score": 1360.63,
      "voice_tag": "Voice 1 (Liquid / Melody)",
      "hue": 358.6,
      "sat": 50.0,
      "regime_state": "Stable"
    },
    {
      "pitch": 56,
      "velocity": 74,
      "onset": 57338,
      "duration": 1109,
      "id_score": 0.0,
      "voice_tag": "Background (Solid / Harmony)",
      "hue": 358.6,
      "sat": 50.0,
      "regime_state": "Stable"
    },
    {
      "pitch": 59,
      "velocity": 65,
      "onset": 57354,
      "duration": 1119,
      "id_score": 95.96,
      "voice_tag": "Voice 1 (Liquid / Melody)",
      "hue": 150.0,
      "sat": 100.0,
      "regime_state": "Stable"
    },
    {
      "pitch": 45,
      "velocity": 64,
      "onset": 58906,
      "duration": 447,
      "id_score": 4.55,
      "voice_tag": "Background (Solid / Harmony)",
      "hue": 90.0,
      "sat": 100.0,
      "regime_state": "TRANSITION SPIKE!"
    },
    {
      "pitch": 52,
      "velocity": 52,
      "onset": 59369,
      "duration": 72,
      "id_score": 6.19,
      "voice_tag": "Background (Solid / Harmony)",
      "hue": 60.0,
      "sat": 100.0,
      "regime_state": "TRANSITION SPIKE!"
    },
    {
      "pitch": 60,
      "velocity": 33,
      "onset": 59395,
      "duration": 52,
      "id_score": 79.95,
      "voice_tag": "Voice 1 (Liquid / Melody)",
      "hue": 0.0,
      "sat": 100.0,
      "regime_state": "Stable"
    },
    {
      "pitch": 52,
      "velocity": 63,
      "onset": 59786,
      "duration": 62,
      "id_score": 10.15,
      "voice_tag": "Background (Solid / Harmony)",
      "hue": 60.0,
      "sat": 100.0,
      "regime_state": "TRANSITION SPIKE!"
    },
    {
      "pitch": 60,
      "velocity": 69,
      "onset": 59796,
      "duration": 62,
      "id_score": 434.65,
      "voice_tag": "Voice 1 (Liquid / Melody)",
      "hue": 0.0,
      "sat": 100.0,
      "regime_state": "Stable"
    },
    {
      "pitch": 45,
      "velocity": 57,
      "onset": 60250,
      "duration": 458,
      "id_score": 14.83,
      "voice_tag": "Background (Solid / Harmony)",
      "hue": 90.0,
      "sat": 100.0,
      "regime_state": "TRANSITION SPIKE!"
    },
    {
      "pitch": 52,
      "velocity": 70,
      "onset": 60708,
      "duration": 67,
      "id_score": 8.42,
      "voice_tag": "Background (Solid / Harmony)",
      "hue": 60.0,
      "sat": 100.0,
      "regime_state": "TRANSITION SPIKE!"
    },
    {
      "pitch": 60,
      "velocity": 71,
      "onset": 60718,
      "duration": 57,
      "id_score": 447.24,
      "voice_tag": "Voice 1 (Liquid / Melody)",
      "hue": 0.0,
      "sat": 100.0,
      "regime_state": "Stable"
    },
    {
      "pitch": 52,
      "velocity": 55,
      "onset": 61177,
      "duration": 72,
      "id_score": 7.55,
      "voice_tag": "Background (Solid / Harmony)",
      "hue": 27.2,
      "sat": 86.7,
      "regime_state": "TRANSITION SPIKE!"
    },
    {
      "pitch": 60,
      "velocity": 65,
      "onset": 61177,
      "duration": 62,
      "id_score": 0.0,
      "voice_tag": "Background (Solid / Harmony)",
      "hue": 27.2,
      "sat": 86.7,
      "regime_state": "TRANSITION SPIKE!"
    },
    {
      "pitch": 45,
      "velocity": 44,
      "onset": 61614,
      "duration": 343,
      "id_score": 11.89,
      "voice_tag": "Background (Solid / Harmony)",
      "hue": 90.0,
      "sat": 100.0,
      "regime_state": "TRANSITION SPIKE!"
    },
    {
      "pitch": 64,
      "velocity": 75,
      "onset": 61619,
      "duration": 276,
      "id_score": 2393.7,
      "voice_tag": "Voice 1 (Liquid / Melody)",
      "hue": 60.0,
      "sat": 100.0,
      "regime_state": "Stable"
    },
    {
      "pitch": 60,
      "velocity": 58,
      "onset": 62041,
      "duration": 78,
      "id_score": 4.33,
      "voice_tag": "Background (Solid / Harmony)",
      "hue": 0.0,
      "sat": 100.0,
      "regime_state": "TRANSITION SPIKE!"
    },
    {
      "pitch": 52,
      "velocity": 44,
      "onset": 62046,
      "duration": 78,
      "id_score": 554.33,
      "voice_tag": "Voice 1 (Liquid / Melody)",
      "hue": 186.2,
      "sat": 41.3,
      "regime_state": "Undefined / Gray Void"
    },
    {
      "pitch": 66,
      "velocity": 88,
      "onset": 62046,
      "duration": 62,
      "id_score": 0.0,
      "voice_tag": "Background (Solid / Harmony)",
      "hue": 186.2,
      "sat": 41.3,
      "regime_state": "Undefined / Gray Void"
    },
    {
      "pitch": 68,
      "velocity": 87,
      "onset": 62250,
      "duration": 67,
      "id_score": 7.61,
      "voice_tag": "Background (Solid / Harmony)",
      "hue": 300.0,
      "sat": 100.0,
      "regime_state": "TRANSITION SPIKE!"
    },
    {
      "pitch": 60,
      "velocity": 62,
      "onset": 62468,
      "duration": 67,
      "id_score": 17.92,
      "voice_tag": "Background (Solid / Harmony)",
      "hue": 0.0,
      "sat": 100.0,
      "regime_state": "TRANSITION SPIKE!"
    },
    {
      "pitch": 52,
      "velocity": 53,
      "onset": 62473,
      "duration": 78,
      "id_score": 667.72,
      "voice_tag": "Voice 1 (Liquid / Melody)",
      "hue": 60.0,
      "sat": 100.0,
      "regime_state": "Stable"
    },
    {
      "pitch": 69,
      "velocity": 80,
      "onset": 62484,
      "duration": 52,
      "id_score": 1119.54,
      "voice_tag": "Voice 1 (Liquid / Melody)",
      "hue": 90.0,
      "sat": 100.0,
      "regime_state": "Stable"
    },
    {
      "pitch": 45,
      "velocity": 68,
      "onset": 62869,
      "duration": 239,
      "id_score": 33.38,
      "voice_tag": "Background (Solid / Harmony)",
      "hue": 90.0,
      "sat": 100.0,
      "regime_state": "TRANSITION SPIKE!"
    },
    {
      "pitch": 69,
      "velocity": 93,
      "onset": 62885,
      "duration": 317,
      "id_score": 1263.19,
      "voice_tag": "Voice 1 (Liquid / Melody)",
      "hue": 90.0,
      "sat": 100.0,
      "regime_state": "Regime Locked"
    },
    {
      "pitch": 71,
      "velocity": 83,
      "onset": 63317,
      "duration": 57,
      "id_score": 3.58,
      "voice_tag": "Background (Solid / Harmony)",
      "hue": 150.0,
      "sat": 100.0,
      "regime_state": "TRANSITION SPIKE!"
    },
    {
      "pitch": 62,
      "velocity": 70,
      "onset": 63333,
      "duration": 88,
      "id_score": 320.37,
      "voice_tag": "Voice 1 (Liquid / Melody)",
      "hue": 120.0,
      "sat": 100.0,
      "regime_state": "Stable"
    },
    {
      "pitch": 52,
      "velocity": 46,
      "onset": 63343,
      "duration": 93,
      "id_score": 362.2,
      "voice_tag": "Voice 1 (Liquid / Melody)",
      "hue": 60.0,
      "sat": 100.0,
      "regime_state": "Stable"
    },
    {
      "pitch": 68,
      "velocity": 82,
      "onset": 63526,
      "duration": 62,
      "id_score": 63.98,
      "voice_tag": "Voice 1 (Liquid / Melody)",
      "hue": 300.0,
      "sat": 100.0,
      "regime_state": "Undefined / Gray Void"
    },
    {
      "pitch": 62,
      "velocity": 72,
      "onset": 63734,
      "duration": 72,
      "id_score": 16.9,
      "voice_tag": "Background (Solid / Harmony)",
      "hue": 120.0,
      "sat": 100.0,
      "regime_state": "Undefined / Gray Void"
    },
    {
      "pitch": 52,
      "velocity": 50,
      "onset": 63744,
      "duration": 67,
      "id_score": 393.7,
      "voice_tag": "Voice 1 (Liquid / Melody)",
      "hue": 60.0,
      "sat": 100.0,
      "regime_state": "Undefined / Gray Void"
    },
    {
      "pitch": 66,
      "velocity": 90,
      "onset": 63750,
      "duration": 62,
      "id_score": 1818.9,
      "voice_tag": "Voice 1 (Liquid / Melody)",
      "hue": 210.0,
      "sat": 100.0,
      "regime_state": "Undefined / Gray Void"
    },
    {
      "pitch": 69,
      "velocity": 73,
      "onset": 64109,
      "duration": 62,
      "id_score": 5.52,
      "voice_tag": "Background (Solid / Harmony)",
      "hue": 90.0,
      "sat": 100.0,
      "regime_state": "TRANSITION SPIKE!"
    },
    {
      "pitch": 45,
      "velocity": 51,
      "onset": 64135,
      "duration": 427,
      "id_score": 370.68,
      "voice_tag": "Voice 1 (Liquid / Melody)",
      "hue": 90.0,
      "sat": 100.0,
      "regime_state": "Regime Locked"
    },
    {
      "pitch": 66,
      "velocity": 87,
      "onset": 64161,
      "duration": 52,
      "id_score": 608.63,
      "voice_tag": "Voice 1 (Liquid / Melody)",
      "hue": 210.0,
      "sat": 100.0,
      "regime_state": "Stable"
    },
    {
      "pitch": 64,
      "velocity": 86,
      "onset": 64593,
      "duration": 1348,
      "id_score": 3.34,
      "voice_tag": "Background (Solid / Harmony)",
      "hue": 60.0,
      "sat": 100.0,
      "regime_state": "TRANSITION SPIKE!"
    },
    {
      "pitch": 52,
      "velocity": 53,
      "onset": 64598,
      "duration": 78,
      "id_score": 1001.57,
      "voice_tag": "Voice 1 (Liquid / Melody)",
      "hue": 60.0,
      "sat": 100.0,
      "regime_state": "Regime Locked"
    },
    {
      "pitch": 60,
      "velocity": 60,
      "onset": 64604,
      "duration": 67,
      "id_score": 629.92,
      "voice_tag": "Voice 1 (Liquid / Melody)",
      "hue": 0.0,
      "sat": 100.0,
      "regime_state": "Stable"
    },
    {
      "pitch": 60,
      "velocity": 64,
      "onset": 65046,
      "duration": 67,
      "id_score": 0.0,
      "voice_tag": "Background (Solid / Harmony)",
      "hue": 0.0,
      "sat": 100.0,
      "regime_state": "TRANSITION SPIKE!"
    },
    {
      "pitch": 52,
      "velocity": 57,
      "onset": 65052,
      "duration": 72,
      "id_score": 598.43,
      "voice_tag": "Voice 1 (Liquid / Melody)",
      "hue": 60.0,
      "sat": 100.0,
      "regime_state": "Stable"
    },
    {
      "pitch": 45,
      "velocity": 57,
      "onset": 65546,
      "duration": 291,
      "id_score": 6.36,
      "voice_tag": "Background (Solid / Harmony)",
      "hue": 90.0,
      "sat": 100.0,
      "regime_state": "TRANSITION SPIKE!"
    },
    {
      "pitch": 52,
      "velocity": 64,
      "onset": 65963,
      "duration": 72,
      "id_score": 8.46,
      "voice_tag": "Background (Solid / Harmony)",
      "hue": 60.0,
      "sat": 100.0,
      "regime_state": "TRANSITION SPIKE!"
    },
    {
      "pitch": 60,
      "velocity": 68,
      "onset": 65968,
      "duration": 62,
      "id_score": 856.69,
      "voice_tag": "Voice 1 (Liquid / Melody)",
      "hue": 0.0,
      "sat": 100.0,
      "regime_state": "Stable"
    },
    {
      "pitch": 60,
      "velocity": 75,
      "onset": 66427,
      "duration": 57,
      "id_score": 0.0,
      "voice_tag": "Background (Solid / Harmony)",
      "hue": 0.0,
      "sat": 100.0,
      "regime_state": "TRANSITION SPIKE!"
    },
    {
      "pitch": 52,
      "velocity": 23,
      "onset": 66479,
      "duration": 57,
      "id_score": 27.86,
      "voice_tag": "Background (Solid / Harmony)",
      "hue": 60.0,
      "sat": 100.0,
      "regime_state": "Stable"
    },
    {
      "pitch": 45,
      "velocity": 54,
      "onset": 66885,
      "duration": 322,
      "id_score": 7.33,
      "voice_tag": "Background (Solid / Harmony)",
      "hue": 90.0,
      "sat": 100.0,
      "regime_state": "TRANSITION SPIKE!"
    },
    {
      "pitch": 64,
      "velocity": 73,
      "onset": 67125,
      "duration": 72,
      "id_score": 48.54,
      "voice_tag": "Background (Solid / Harmony)",
      "hue": 60.0,
      "sat": 100.0,
      "regime_state": "TRANSITION SPIKE!"
    },
    {
      "pitch": 60,
      "velocity": 62,
      "onset": 67328,
      "duration": 72,
      "id_score": 9.62,
      "voice_tag": "Background (Solid / Harmony)",
      "hue": 0.0,
      "sat": 100.0,
      "regime_state": "TRANSITION SPIKE!"
    },
    {
      "pitch": 52,
      "velocity": 47,
      "onset": 67333,
      "duration": 78,
      "id_score": 592.13,
      "voice_tag": "Voice 1 (Liquid / Melody)",
      "hue": 184.5,
      "sat": 39.9,
      "regime_state": "Undefined / Gray Void"
    },
    {
      "pitch": 66,
      "velocity": 90,
      "onset": 67333,
      "duration": 62,
      "id_score": 0.0,
      "voice_tag": "Background (Solid / Harmony)",
      "hue": 184.5,
      "sat": 39.9,
      "regime_state": "Undefined / Gray Void"
    },
    {
      "pitch": 68,
      "velocity": 85,
      "onset": 67557,
      "duration": 57,
      "id_score": 6.77,
      "voice_tag": "Background (Solid / Harmony)",
      "hue": 300.0,
      "sat": 100.0,
      "regime_state": "TRANSITION SPIKE!"
    },
    {
      "pitch": 60,
      "velocity": 70,
      "onset": 67765,
      "duration": 57,
      "id_score": 21.2,
      "voice_tag": "Background (Solid / Harmony)",
      "hue": 328.2,
      "sat": 86.6,
      "regime_state": "TRANSITION SPIKE!"
    },
    {
      "pitch": 68,
      "velocity": 78,
      "onset": 67765,
      "duration": 244,
      "id_score": 0.0,
      "voice_tag": "Background (Solid / Harmony)",
      "hue": 328.2,
      "sat": 86.6,
      "regime_state": "TRANSITION SPIKE!"
    },
    {
      "pitch": 52,
      "velocity": 56,
      "onset": 67776,
      "duration": 67,
      "id_score": 641.37,
      "voice_tag": "Voice 1 (Liquid / Melody)",
      "hue": 60.0,
      "sat": 100.0,
      "regime_state": "Stable"
    },
    {
      "pitch": 69,
      "velocity": 76,
      "onset": 68005,
      "duration": 145,
      "id_score": 51.09,
      "voice_tag": "Voice 1 (Liquid / Melody)",
      "hue": 90.0,
      "sat": 100.0,
      "regime_state": "TRANSITION SPIKE!"
    },
    {
      "pitch": 45,
      "velocity": 60,
      "onset": 68234,
      "duration": 281,
      "id_score": 49.51,
      "voice_tag": "Background (Solid / Harmony)",
      "hue": 90.0,
      "sat": 100.0,
      "regime_state": "TRANSITION SPIKE!"
    },
    {
      "pitch": 69,
      "velocity": 83,
      "onset": 68468,
      "duration": 72,
      "id_score": 77.08,
      "voice_tag": "Voice 1 (Liquid / Melody)",
      "hue": 90.0,
      "sat": 100.0,
      "regime_state": "TRANSITION SPIKE!"
    },
    {
      "pitch": 52,
      "velocity": 72,
      "onset": 68671,
      "duration": 67,
      "id_score": 47.48,
      "voice_tag": "Background (Solid / Harmony)",
      "hue": 111.6,
      "sat": 71.2,
      "regime_state": "TRANSITION SPIKE!"
    },
    {
      "pitch": 71,
      "velocity": 91,
      "onset": 68671,
      "duration": 72,
      "id_score": 0.0,
      "voice_tag": "Background (Solid / Harmony)",
      "hue": 111.6,
      "sat": 71.2,
      "regime_state": "TRANSITION SPIKE!"
    },
    {
      "pitch": 62,
      "velocity": 87,
      "onset": 68677,
      "duration": 52,
      "id_score": 1061.81,
      "voice_tag": "Voice 1 (Liquid / Melody)",
      "hue": 120.0,
      "sat": 100.0,
      "regime_state": "Stable"
    },
    {
      "pitch": 68,
      "velocity": 90,
      "onset": 68875,
      "duration": 52,
      "id_score": 24.34,
      "voice_tag": "Background (Solid / Harmony)",
      "hue": 300.0,
      "sat": 100.0,
      "regime_state": "TRANSITION SPIKE!"
    },
    {
      "pitch": 62,
      "velocity": 74,
      "onset": 69088,
      "duration": 67,
      "id_score": 16.96,
      "voice_tag": "Background (Solid / Harmony)",
      "hue": 120.0,
      "sat": 100.0,
      "regime_state": "Undefined / Gray Void"
    },
    {
      "pitch": 52,
      "velocity": 52,
      "onset": 69093,
      "duration": 67,
      "id_score": 818.9,
      "voice_tag": "Voice 1 (Liquid / Melody)",
      "hue": 60.0,
      "sat": 100.0,
      "regime_state": "Undefined / Gray Void"
    },
    {
      "pitch": 68,
      "velocity": 88,
      "onset": 69098,
      "duration": 192,
      "id_score": 2512.97,
      "voice_tag": "Voice 1 (Liquid / Melody)",
      "hue": 300.0,
      "sat": 100.0,
      "regime_state": "Undefined / Gray Void"
    },
    {
      "pitch": 66,
      "velocity": 82,
      "onset": 69307,
      "duration": 62,
      "id_score": 6.8,
      "voice_tag": "Background (Solid / Harmony)",
      "hue": 210.0,
      "sat": 100.0,
      "regime_state": "Undefined / Gray Void"
    },
    {
      "pitch": 45,
      "velocity": 58,
      "onset": 69531,
      "duration": 375,
      "id_score": 42.81,
      "voice_tag": "Background (Solid / Harmony)",
      "hue": 90.0,
      "sat": 100.0,
      "regime_state": "TRANSITION SPIKE!"
    },
    {
      "pitch": 69,
      "velocity": 65,
      "onset": 69552,
      "duration": 52,
      "id_score": 672.67,
      "voice_tag": "Voice 1 (Liquid / Melody)",
      "hue": 90.0,
      "sat": 100.0,
      "regime_state": "Stable"
    },
    {
      "pitch": 66,
      "velocity": 96,
      "onset": 69572,
      "duration": 41,
      "id_score": 124.72,
      "voice_tag": "Voice 1 (Liquid / Melody)",
      "hue": 210.0,
      "sat": 100.0,
      "regime_state": "Stable"
    },
    {
      "pitch": 52,
      "velocity": 54,
      "onset": 70015,
      "duration": 72,
      "id_score": 13.44,
      "voice_tag": "Background (Solid / Harmony)",
      "hue": 27.2,
      "sat": 86.7,
      "regime_state": "TRANSITION SPIKE!"
    },
    {
      "pitch": 60,
      "velocity": 64,
      "onset": 70015,
      "duration": 62,
      "id_score": 0.0,
      "voice_tag": "Background (Solid / Harmony)",
      "hue": 27.2,
      "sat": 86.7,
      "regime_state": "TRANSITION SPIKE!"
    },
    {
      "pitch": 64,
      "velocity": 79,
      "onset": 70026,
      "duration": 1312,
      "id_score": 241.28,
      "voice_tag": "Voice 1 (Liquid / Melody)",
      "hue": 60.0,
      "sat": 100.0,
      "regime_state": "Stable"
    },
    {
      "pitch": 60,
      "velocity": 82,
      "onset": 70468,
      "duration": 52,
      "id_score": 5.84,
      "voice_tag": "Background (Solid / Harmony)",
      "hue": 0.0,
      "sat": 100.0,
      "regime_state": "TRANSITION SPIKE!"
    },
    {
      "pitch": 52,
      "velocity": 58,
      "onset": 70479,
      "duration": 67,
      "id_score": 332.14,
      "voice_tag": "Voice 1 (Liquid / Melody)",
      "hue": 60.0,
      "sat": 100.0,
      "regime_state": "Stable"
    },
    {
      "pitch": 45,
      "velocity": 72,
      "onset": 70953,
      "duration": 437,
      "id_score": 8.37,
      "voice_tag": "Background (Solid / Harmony)",
      "hue": 90.0,
      "sat": 100.0,
      "regime_state": "TRANSITION SPIKE!"
    },
    {
      "pitch": 52,
      "velocity": 72,
      "onset": 71411,
      "duration": 62,
      "id_score": 8.66,
      "voice_tag": "Background (Solid / Harmony)",
      "hue": 60.0,
      "sat": 100.0,
      "regime_state": "TRANSITION SPIKE!"
    },
    {
      "pitch": 60,
      "velocity": 76,
      "onset": 71421,
      "duration": 57,
      "id_score": 478.74,
      "voice_tag": "Voice 1 (Liquid / Melody)",
      "hue": 0.0,
      "sat": 100.0,
      "regime_state": "Stable"
    },
    {
      "pitch": 52,
      "velocity": 60,
      "onset": 71848,
      "duration": 62,
      "id_score": 8.85,
      "voice_tag": "Background (Solid / Harmony)",
      "hue": 60.0,
      "sat": 100.0,
      "regime_state": "TRANSITION SPIKE!"
    },
    {
      "pitch": 60,
      "velocity": 84,
      "onset": 71859,
      "duration": 52,
      "id_score": 481.03,
      "voice_tag": "Voice 1 (Liquid / Melody)",
      "hue": 0.0,
      "sat": 100.0,
      "regime_state": "Stable"
    },
    {
      "pitch": 67,
      "velocity": 84,
      "onset": 72302,
      "duration": 52,
      "id_score": 11.67,
      "voice_tag": "Background (Solid / Harmony)",
      "hue": 30.0,
      "sat": 100.0,
      "regime_state": "TRANSITION SPIKE!"
    },
    {
      "pitch": 60,
      "velocity": 68,
      "onset": 72312,
      "duration": 62,
      "id_score": 374.8,
      "voice_tag": "Voice 1 (Liquid / Melody)",
      "hue": 32.5,
      "sat": 86.7,
      "regime_state": "Stable"
    },
    {
      "pitch": 76,
      "velocity": 79,
      "onset": 72312,
      "duration": 52,
      "id_score": 0.0,
      "voice_tag": "Background (Solid / Harmony)",
      "hue": 32.5,
      "sat": 86.7,
      "regime_state": "Stable"
    },
    {
      "pitch": 64,
      "velocity": 63,
      "onset": 72328,
      "duration": 78,
      "id_score": 396.85,
      "voice_tag": "Voice 1 (Liquid / Melody)",
      "hue": 60.0,
      "sat": 100.0,
      "regime_state": "Stable"
    },
    {
      "pitch": 65,
      "velocity": 82,
      "onset": 72770,
      "duration": 62,
      "id_score": 1.58,
      "voice_tag": "Background (Solid / Harmony)",
      "hue": 313.7,
      "sat": 96.6,
      "regime_state": "TRANSITION SPIKE!"
    },
    {
      "pitch": 68,
      "velocity": 97,
      "onset": 72770,
      "duration": 46,
      "id_score": 0.0,
      "voice_tag": "Background (Solid / Harmony)",
      "hue": 313.7,
      "sat": 96.6,
      "regime_state": "TRANSITION SPIKE!"
    },
    {
      "pitch": 76,
      "velocity": 83,
      "onset": 72776,
      "duration": 46,
      "id_score": 1103.76,
      "voice_tag": "Voice 1 (Liquid / Melody)",
      "hue": 60.0,
      "sat": 100.0,
      "regime_state": "Stable"
    },
    {
      "pitch": 60,
      "velocity": 72,
      "onset": 72791,
      "duration": 67,
      "id_score": 604.72,
      "voice_tag": "Voice 1 (Liquid / Melody)",
      "hue": 0.0,
      "sat": 100.0,
      "regime_state": "Stable"
    },
    {
      "pitch": 66,
      "velocity": 96,
      "onset": 73203,
      "duration": 41,
      "id_score": 12.11,
      "voice_tag": "Background (Solid / Harmony)",
      "hue": 210.0,
      "sat": 100.0,
      "regime_state": "TRANSITION SPIKE!"
    },
    {
      "pitch": 76,
      "velocity": 96,
      "onset": 73208,
      "duration": 41,
      "id_score": 1914.96,
      "voice_tag": "Voice 1 (Liquid / Melody)",
      "hue": 60.0,
      "sat": 100.0,
      "regime_state": "Undefined / Gray Void"
    },
    {
      "pitch": 60,
      "velocity": 86,
      "onset": 73223,
      "duration": 46,
      "id_score": 722.31,
      "voice_tag": "Voice 1 (Liquid / Melody)",
      "hue": 43.3,
      "sat": 70.7,
      "regime_state": "Stable"
    },
    {
      "pitch": 69,
      "velocity": 81,
      "onset": 73223,
      "duration": 46,
      "id_score": 0.0,
      "voice_tag": "Background (Solid / Harmony)",
      "hue": 43.3,
      "sat": 70.7,
      "regime_state": "Stable"
    },
    {
      "pitch": 76,
      "velocity": 95,
      "onset": 73645,
      "duration": 156,
      "id_score": 15.72,
      "voice_tag": "Background (Solid / Harmony)",
      "hue": 60.0,
      "sat": 100.0,
      "regime_state": "TRANSITION SPIKE!"
    },
    {
      "pitch": 71,
      "velocity": 83,
      "onset": 73661,
      "duration": 1041,
      "id_score": 241.67,
      "voice_tag": "Voice 1 (Liquid / Melody)",
      "hue": 150.0,
      "sat": 100.0,
      "regime_state": "Stable"
    },
    {
      "pitch": 62,
      "velocity": 84,
      "onset": 73666,
      "duration": 1041,
      "id_score": 1230.24,
      "voice_tag": "Voice 1 (Liquid / Melody)",
      "hue": 120.0,
      "sat": 100.0,
      "regime_state": "Stable"
    },
    {
      "pitch": 67,
      "velocity": 74,
      "onset": 73671,
      "duration": 1020,
      "id_score": 650.66,
      "voice_tag": "Voice 1 (Liquid / Melody)",
      "hue": 30.0,
      "sat": 100.0,
      "regime_state": "Stable"
    },
    {
      "pitch": 55,
      "velocity": 72,
      "onset": 73677,
      "duration": 1052,
      "id_score": 1133.86,
      "voice_tag": "Voice 1 (Liquid / Melody)",
      "hue": 30.0,
      "sat": 100.0,
      "regime_state": "Stable"
    },
    {
      "pitch": 74,
      "velocity": 78,
      "onset": 73812,
      "duration": 135,
      "id_score": 106.61,
      "voice_tag": "Voice 1 (Liquid / Melody)",
      "hue": 120.0,
      "sat": 100.0,
      "regime_state": "TRANSITION SPIKE!"
    },
    {
      "pitch": 72,
      "velocity": 78,
      "onset": 73958,
      "duration": 52,
      "id_score": 10.1,
      "voice_tag": "Background (Solid / Harmony)",
      "hue": 0.0,
      "sat": 100.0,
      "regime_state": "Stable"
    },
    {
      "pitch": 74,
      "velocity": 92,
      "onset": 74057,
      "duration": 625,
      "id_score": 18.05,
      "voice_tag": "Background (Solid / Harmony)",
      "hue": 120.0,
      "sat": 100.0,
      "regime_state": "TRANSITION SPIKE!"
    },
    {
      "pitch": 60,
      "velocity": 79,
      "onset": 75265,
      "duration": 62,
      "id_score": 7.21,
      "voice_tag": "Background (Solid / Harmony)",
      "hue": 0.0,
      "sat": 100.0,
      "regime_state": "TRANSITION SPIKE!"
    },
    {
      "pitch": 64,
      "velocity": 93,
      "onset": 75270,
      "duration": 52,
      "id_score": 624.88,
      "voice_tag": "Voice 1 (Liquid / Melody)",
      "hue": 30.5,
      "sat": 86.6,
      "regime_state": "Stable"
    },
    {
      "pitch": 72,
      "velocity": 90,
      "onset": 75270,
      "duration": 57,
      "id_score": 0.0,
      "voice_tag": "Background (Solid / Harmony)",
      "hue": 30.5,
      "sat": 86.6,
      "regime_state": "Stable"
    },
    {
      "pitch": 57,
      "velocity": 67,
      "onset": 75291,
      "duration": 67,
      "id_score": 376.83,
      "voice_tag": "Voice 1 (Liquid / Melody)",
      "hue": 90.0,
      "sat": 100.0,
      "regime_state": "Stable"
    },
    {
      "pitch": 62,
      "velocity": 94,
      "onset": 75692,
      "duration": 72,
      "id_score": 9.54,
      "voice_tag": "Background (Solid / Harmony)",
      "hue": 41.6,
      "sat": 25.9,
      "regime_state": "Undefined / Gray Void"
    },
    {
      "pitch": 65,
      "velocity": 97,
      "onset": 75692,
      "duration": 83,
      "id_score": 0.0,
      "voice_tag": "Background (Solid / Harmony)",
      "hue": 41.6,
      "sat": 25.9,
      "regime_state": "Undefined / Gray Void"
    },
    {
      "pitch": 72,
      "velocity": 80,
      "onset": 75708,
      "duration": 98,
      "id_score": 330.71,
      "voice_tag": "Voice 1 (Liquid / Melody)",
      "hue": 0.0,
      "sat": 100.0,
      "regime_state": "TRANSITION SPIKE!"
    },
    {
      "pitch": 57,
      "velocity": 71,
      "onset": 75718,
      "duration": 67,
      "id_score": 838.58,
      "voice_tag": "Voice 1 (Liquid / Melody)",
      "hue": 90.0,
      "sat": 100.0,
      "regime_state": "Stable"
    },
    {
      "pitch": 63,
      "velocity": 98,
      "onset": 76151,
      "duration": 46,
      "id_score": 11.23,
      "voice_tag": "Background (Solid / Harmony)",
      "hue": 274.5,
      "sat": 51.4,
      "regime_state": "TRANSITION SPIKE!"
    },
    {
      "pitch": 66,
      "velocity": 92,
      "onset": 76151,
      "duration": 46,
      "id_score": 0.0,
      "voice_tag": "Background (Solid / Harmony)",
      "hue": 274.5,
      "sat": 51.4,
      "regime_state": "TRANSITION SPIKE!"
    },
    {
      "pitch": 72,
      "velocity": 91,
      "onset": 76151,
      "duration": 52,
      "id_score": 0.0,
      "voice_tag": "Background (Solid / Harmony)",
      "hue": 274.5,
      "sat": 51.4,
      "regime_state": "TRANSITION SPIKE!"
    },
    {
      "pitch": 57,
      "velocity": 80,
      "onset": 76166,
      "duration": 52,
      "id_score": 629.92,
      "voice_tag": "Voice 1 (Liquid / Melody)",
      "hue": 90.0,
      "sat": 100.0,
      "regime_state": "Undefined / Gray Void"
    },
    {
      "pitch": 72,
      "velocity": 91,
      "onset": 76583,
      "duration": 208,
      "id_score": 30.93,
      "voice_tag": "Background (Solid / Harmony)",
      "hue": 0.0,
      "sat": 100.0,
      "regime_state": "TRANSITION SPIKE!"
    },
    {
      "pitch": 59,
      "velocity": 65,
      "onset": 76598,
      "duration": 1015,
      "id_score": 443.57,
      "voice_tag": "Voice 1 (Liquid / Melody)",
      "hue": 101.7,
      "sat": 70.8,
      "regime_state": "Stable"
    },
    {
      "pitch": 64,
      "velocity": 73,
      "onset": 76598,
      "duration": 1010,
      "id_score": 0.0,
      "voice_tag": "Background (Solid / Harmony)",
      "hue": 101.7,
      "sat": 70.8,
      "regime_state": "Stable"
    },
    {
      "pitch": 52,
      "velocity": 54,
      "onset": 76604,
      "duration": 1020,
      "id_score": 850.39,
      "voice_tag": "Voice 1 (Liquid / Melody)",
      "hue": 60.0,
      "sat": 100.0,
      "regime_state": "Stable"
    },
    {
      "pitch": 67,
      "velocity": 51,
      "onset": 76619,
      "duration": 963,
      "id_score": 448.43,
      "voice_tag": "Voice 1 (Liquid / Melody)",
      "hue": 30.0,
      "sat": 100.0,
      "regime_state": "Stable"
    },
    {
      "pitch": 71,
      "velocity": 73,
      "onset": 76776,
      "duration": 145,
      "id_score": 17.33,
      "voice_tag": "Background (Solid / Harmony)",
      "hue": 150.0,
      "sat": 100.0,
      "regime_state": "TRANSITION SPIKE!"
    },
    {
      "pitch": 69,
      "velocity": 82,
      "onset": 76921,
      "duration": 135,
      "id_score": 10.24,
      "voice_tag": "Background (Solid / Harmony)",
      "hue": 90.0,
      "sat": 100.0,
      "regime_state": "Stable"
    },
    {
      "pitch": 71,
      "velocity": 71,
      "onset": 77078,
      "duration": 489,
      "id_score": 8.43,
      "voice_tag": "Background (Solid / Harmony)",
      "hue": 150.0,
      "sat": 100.0,
      "regime_state": "TRANSITION SPIKE!"
    },
    {
      "pitch": 71,
      "velocity": 64,
      "onset": 78192,
      "duration": 171,
      "id_score": 0.0,
      "voice_tag": "Background (Solid / Harmony)",
      "hue": 150.0,
      "sat": 100.0,
      "regime_state": "TRANSITION SPIKE!"
    },
    {
      "pitch": 53,
      "velocity": 59,
      "onset": 78213,
      "duration": 1041,
      "id_score": 398.2,
      "voice_tag": "Voice 1 (Liquid / Melody)",
      "hue": 330.0,
      "sat": 100.0,
      "regime_state": "Undefined / Gray Void"
    },
    {
      "pitch": 60,
      "velocity": 48,
      "onset": 78218,
      "duration": 1161,
      "id_score": 529.13,
      "voice_tag": "Voice 1 (Liquid / Melody)",
      "hue": 346.8,
      "sat": 96.6,
      "regime_state": "Stable"
    },
    {
      "pitch": 65,
      "velocity": 38,
      "onset": 78218,
      "duration": 1083,
      "id_score": 0.0,
      "voice_tag": "Background (Solid / Harmony)",
      "hue": 346.8,
      "sat": 96.6,
      "regime_state": "Stable"
    },
    {
      "pitch": 69,
      "velocity": 60,
      "onset": 78369,
      "duration": 151,
      "id_score": 14.39,
      "voice_tag": "Background (Solid / Harmony)",
      "hue": 90.0,
      "sat": 100.0,
      "regime_state": "TRANSITION SPIKE!"
    },
    {
      "pitch": 67,
      "velocity": 65,
      "onset": 78526,
      "duration": 83,
      "id_score": 7.28,
      "voice_tag": "Background (Solid / Harmony)",
      "hue": 30.0,
      "sat": 100.0,
      "regime_state": "TRANSITION SPIKE!"
    },
    {
      "pitch": 69,
      "velocity": 63,
      "onset": 78671,
      "duration": 552,
      "id_score": 7.87,
      "voice_tag": "Background (Solid / Harmony)",
      "hue": 90.0,
      "sat": 100.0,
      "regime_state": "Regime Locked"
    },
    {
      "pitch": 67,
      "velocity": 86,
      "onset": 79635,
      "duration": 1333,
      "id_score": 1.57,
      "voice_tag": "Background (Solid / Harmony)",
      "hue": 30.0,
      "sat": 100.0,
      "regime_state": "TRANSITION SPIKE!"
    },
    {
      "pitch": 65,
      "velocity": 87,
      "onset": 79640,
      "duration": 166,
      "id_score": 296.85,
      "voice_tag": "Voice 1 (Liquid / Melody)",
      "hue": 330.0,
      "sat": 100.0,
      "regime_state": "Stable"
    },
    {
      "pitch": 48,
      "velocity": 62,
      "onset": 79645,
      "duration": 1229,
      "id_score": 1659.84,
      "voice_tag": "Voice 1 (Liquid / Melody)",
      "hue": 9.7,
      "sat": 97.0,
      "regime_state": "Stable"
    },
    {
      "pitch": 55,
      "velocity": 64,
      "onset": 79645,
      "duration": 1223,
      "id_score": 0.0,
      "voice_tag": "Background (Solid / Harmony)",
      "hue": 9.7,
      "sat": 97.0,
      "regime_state": "Stable"
    },
    {
      "pitch": 60,
      "velocity": 70,
      "onset": 79645,
      "duration": 1161,
      "id_score": 0.0,
      "voice_tag": "Background (Solid / Harmony)",
      "hue": 9.7,
      "sat": 97.0,
      "regime_state": "Stable"
    },
    {
      "pitch": 64,
      "velocity": 94,
      "onset": 79807,
      "duration": 145,
      "id_score": 19.49,
      "voice_tag": "Background (Solid / Harmony)",
      "hue": 60.0,
      "sat": 100.0,
      "regime_state": "TRANSITION SPIKE!"
    },
    {
      "pitch": 62,
      "velocity": 92,
      "onset": 79947,
      "duration": 104,
      "id_score": 10.69,
      "voice_tag": "Background (Solid / Harmony)",
      "hue": 120.0,
      "sat": 100.0,
      "regime_state": "Stable"
    },
    {
      "pitch": 64,
      "velocity": 87,
      "onset": 80088,
      "duration": 807,
      "id_score": 10.36,
      "voice_tag": "Background (Solid / Harmony)",
      "hue": 60.0,
      "sat": 100.0,
      "regime_state": "TRANSITION SPIKE!"
    },
    {
      "pitch": 50,
      "velocity": 84,
      "onset": 81302,
      "duration": 239,
      "id_score": 7.63,
      "voice_tag": "Background (Solid / Harmony)",
      "hue": 41.7,
      "sat": 48.8,
      "regime_state": "TRANSITION SPIKE!"
    },
    {
      "pitch": 57,
      "velocity": 91,
      "onset": 81302,
      "duration": 208,
      "id_score": 0.0,
      "voice_tag": "Background (Solid / Harmony)",
      "hue": 41.7,
      "sat": 48.8,
      "regime_state": "TRANSITION SPIKE!"
    },
    {
      "pitch": 60,
      "velocity": 93,
      "onset": 81302,
      "duration": 166,
      "id_score": 0.0,
      "voice_tag": "Background (Solid / Harmony)",
      "hue": 41.7,
      "sat": 48.8,
      "regime_state": "TRANSITION SPIKE!"
    },
    {
      "pitch": 65,
      "velocity": 93,
      "onset": 81302,
      "duration": 250,
      "id_score": 0.0,
      "voice_tag": "Background (Solid / Harmony)",
      "hue": 41.7,
      "sat": 48.8,
      "regime_state": "TRANSITION SPIKE!"
    },
    {
      "pitch": 52,
      "velocity": 72,
      "onset": 81692,
      "duration": 72,
      "id_score": 18.9,
      "voice_tag": "Background (Solid / Harmony)",
      "hue": 60.0,
      "sat": 100.0,
      "regime_state": "TRANSITION SPIKE!"
    },
    {
      "pitch": 67,
      "velocity": 86,
      "onset": 81703,
      "duration": 78,
      "id_score": 1031.14,
      "voice_tag": "Voice 1 (Liquid / Melody)",
      "hue": 30.0,
      "sat": 100.0,
      "regime_state": "Stable"
    },
    {
      "pitch": 57,
      "velocity": 72,
      "onset": 81713,
      "duration": 62,
      "id_score": 566.93,
      "voice_tag": "Voice 1 (Liquid / Melody)",
      "hue": 42.3,
      "sat": 70.8,
      "regime_state": "Stable"
    },
    {
      "pitch": 60,
      "velocity": 79,
      "onset": 81713,
      "duration": 57,
      "id_score": 0.0,
      "voice_tag": "Background (Solid / Harmony)",
      "hue": 42.3,
      "sat": 70.8,
      "regime_state": "Stable"
    },
    {
      "pitch": 57,
      "velocity": 65,
      "onset": 81895,
      "duration": 98,
      "id_score": 8.44,
      "voice_tag": "Background (Solid / Harmony)",
      "hue": 90.0,
      "sat": 100.0,
      "regime_state": "Stable"
    },
    {
      "pitch": 53,
      "velocity": 84,
      "onset": 81906,
      "duration": 72,
      "id_score": 240.52,
      "voice_tag": "Voice 1 (Liquid / Melody)",
      "hue": 30.0,
      "sat": 50.0,
      "regime_state": "TRANSITION SPIKE!"
    },
    {
      "pitch": 69,
      "velocity": 84,
      "onset": 81906,
      "duration": 88,
      "id_score": 0.0,
      "voice_tag": "Background (Solid / Harmony)",
      "hue": 30.0,
      "sat": 50.0,
      "regime_state": "TRANSITION SPIKE!"
    },
    {
      "pitch": 60,
      "velocity": 47,
      "onset": 81911,
      "duration": 72,
      "id_score": 666.14,
      "voice_tag": "Voice 1 (Liquid / Melody)",
      "hue": 0.0,
      "sat": 100.0,
      "regime_state": "Stable"
    },
    {
      "pitch": 60,
      "velocity": 79,
      "onset": 82125,
      "duration": 62,
      "id_score": 0.0,
      "voice_tag": "Background (Solid / Harmony)",
      "hue": 343.5,
      "sat": 96.6,
      "regime_state": "TRANSITION SPIKE!"
    },
    {
      "pitch": 65,
      "velocity": 96,
      "onset": 82125,
      "duration": 46,
      "id_score": 0.0,
      "voice_tag": "Background (Solid / Harmony)",
      "hue": 343.5,
      "sat": 96.6,
      "regime_state": "TRANSITION SPIKE!"
    },
    {
      "pitch": 50,
      "velocity": 80,
      "onset": 82135,
      "duration": 52,
      "id_score": 944.88,
      "voice_tag": "Voice 1 (Liquid / Melody)",
      "hue": 104.4,
      "sat": 96.6,
      "regime_state": "Stable"
    },
    {
      "pitch": 57,
      "velocity": 86,
      "onset": 82135,
      "duration": 52,
      "id_score": 0.0,
      "voice_tag": "Background (Solid / Harmony)",
      "hue": 104.4,
      "sat": 96.6,
      "regime_state": "Stable"
    },
    {
      "pitch": 53,
      "velocity": 86,
      "onset": 82588,
      "duration": 57,
      "id_score": 5.98,
      "voice_tag": "Background (Solid / Harmony)",
      "hue": 31.1,
      "sat": 50.0,
      "regime_state": "TRANSITION SPIKE!"
    },
    {
      "pitch": 57,
      "velocity": 88,
      "onset": 82588,
      "duration": 52,
      "id_score": 0.0,
      "voice_tag": "Background (Solid / Harmony)",
      "hue": 31.1,
      "sat": 50.0,
      "regime_state": "TRANSITION SPIKE!"
    },
    {
      "pitch": 62,
      "velocity": 102,
      "onset": 82593,
      "duration": 52,
      "id_score": 829.92,
      "voice_tag": "Voice 1 (Liquid / Melody)",
      "hue": 120.0,
      "sat": 100.0,
      "regime_state": "Stable"
    },
    {
      "pitch": 59,
      "velocity": 82,
      "onset": 82604,
      "duration": 46,
      "id_score": 176.09,
      "voice_tag": "Voice 1 (Liquid / Melody)",
      "hue": 150.0,
      "sat": 100.0,
      "regime_state": "Stable"
    },
    {
      "pitch": 56,
      "velocity": 71,
      "onset": 83197,
      "duration": 1333,
      "id_score": 2.83,
      "voice_tag": "Background (Solid / Harmony)",
      "hue": 12.1,
      "sat": 51.1,
      "regime_state": "TRANSITION SPIKE!"
    },
    {
      "pitch": 64,
      "velocity": 91,
      "onset": 83197,
      "duration": 1156,
      "id_score": 0.0,
      "voice_tag": "Background (Solid / Harmony)",
      "hue": 12.1,
      "sat": 51.1,
      "regime_state": "TRANSITION SPIKE!"
    },
    {
      "pitch": 52,
      "velocity": 76,
      "onset": 83203,
      "duration": 1307,
      "id_score": 1196.85,
      "voice_tag": "Voice 1 (Liquid / Melody)",
      "hue": 60.0,
      "sat": 100.0,
      "regime_state": "Stable"
    },
    {
      "pitch": 59,
      "velocity": 63,
      "onset": 83213,
      "duration": 994,
      "id_score": 347.24,
      "voice_tag": "Voice 1 (Liquid / Melody)",
      "hue": 150.0,
      "sat": 100.0,
      "regime_state": "Stable"
    },
    {
      "pitch": 69,
      "velocity": 71,
      "onset": 85463,
      "duration": 1213,
      "id_score": 2.86,
      "voice_tag": "Background (Solid / Harmony)",
      "hue": 90.0,
      "sat": 100.0,
      "regime_state": "TRANSITION SPIKE!"
    },
    {
      "pitch": 73,
      "velocity": 53,
      "onset": 86104,
      "duration": 130,
      "id_score": 3.17,
      "voice_tag": "Background (Solid / Harmony)",
      "hue": 180.0,
      "sat": 100.0,
      "regime_state": "TRANSITION SPIKE!"
    },
    {
      "pitch": 76,
      "velocity": 52,
      "onset": 86109,
      "duration": 88,
      "id_score": 311.18,
      "voice_tag": "Voice 1 (Liquid / Melody)",
      "hue": 60.0,
      "sat": 100.0,
      "regime_state": "Stable"
    },
    {
      "pitch": 71,
      "velocity": 66,
      "onset": 86635,
      "duration": 307,
      "id_score": 5.85,
      "voice_tag": "Background (Solid / Harmony)",
      "hue": 165.5,
      "sat": 96.6,
      "regime_state": "TRANSITION SPIKE!"
    },
    {
      "pitch": 73,
      "velocity": 70,
      "onset": 86635,
      "duration": 317,
      "id_score": 0.0,
      "voice_tag": "Background (Solid / Harmony)",
      "hue": 165.5,
      "sat": 96.6,
      "regime_state": "TRANSITION SPIKE!"
    },
    {
      "pitch": 76,
      "velocity": 59,
      "onset": 86656,
      "duration": 354,
      "id_score": 84.06,
      "voice_tag": "Voice 1 (Liquid / Melody)",
      "hue": 60.0,
      "sat": 100.0,
      "regime_state": "Stable"
    },
    {
      "pitch": 68,
      "velocity": 81,
      "onset": 86916,
      "duration": 78,
      "id_score": 22.24,
      "voice_tag": "Background (Solid / Harmony)",
      "hue": 300.0,
      "sat": 100.0,
      "regime_state": "Undefined / Gray Void"
    },
    {
      "pitch": 68,
      "velocity": 68,
      "onset": 87130,
      "duration": 109,
      "id_score": 0.0,
      "voice_tag": "Background (Solid / Harmony)",
      "hue": 300.0,
      "sat": 100.0,
      "regime_state": "TRANSITION SPIKE!"
    },
    {
      "pitch": 66,
      "velocity": 88,
      "onset": 87223,
      "duration": 229,
      "id_score": 16.39,
      "voice_tag": "Background (Solid / Harmony)",
      "hue": 210.0,
      "sat": 100.0,
      "regime_state": "Stable"
    },
    {
      "pitch": 64,
      "velocity": 83,
      "onset": 87484,
      "duration": 72,
      "id_score": 5.34,
      "voice_tag": "Background (Solid / Harmony)",
      "hue": 60.0,
      "sat": 100.0,
      "regime_state": "Undefined / Gray Void"
    },
    {
      "pitch": 64,
      "velocity": 73,
      "onset": 87802,
      "duration": 1145,
      "id_score": 0.0,
      "voice_tag": "Background (Solid / Harmony)",
      "hue": 60.0,
      "sat": 100.0,
      "regime_state": "TRANSITION SPIKE!"
    },
    {
      "pitch": 68,
      "velocity": 52,
      "onset": 87822,
      "duration": 255,
      "id_score": 92.81,
      "voice_tag": "Voice 1 (Liquid / Melody)",
      "hue": 300.0,
      "sat": 100.0,
      "regime_state": "Stable"
    },
    {
      "pitch": 74,
      "velocity": 55,
      "onset": 87838,
      "duration": 359,
      "id_score": 200.3,
      "voice_tag": "Voice 1 (Liquid / Melody)",
      "hue": 120.0,
      "sat": 100.0,
      "regime_state": "Stable"
    },
    {
      "pitch": 76,
      "velocity": 60,
      "onset": 87843,
      "duration": 343,
      "id_score": 239.37,
      "voice_tag": "Voice 1 (Liquid / Melody)",
      "hue": 60.0,
      "sat": 100.0,
      "regime_state": "Stable"
    },
    {
      "pitch": 68,
      "velocity": 69,
      "onset": 88411,
      "duration": 83,
      "id_score": 8.67,
      "voice_tag": "Background (Solid / Harmony)",
      "hue": 300.0,
      "sat": 100.0,
      "regime_state": "TRANSITION SPIKE!"
    },
    {
      "pitch": 76,
      "velocity": 66,
      "onset": 88421,
      "duration": 260,
      "id_score": 526.61,
      "voice_tag": "Voice 1 (Liquid / Melody)",
      "hue": 60.0,
      "sat": 100.0,
      "regime_state": "Stable"
    },
    {
      "pitch": 74,
      "velocity": 54,
      "onset": 88437,
      "duration": 182,
      "id_score": 65.55,
      "voice_tag": "Voice 1 (Liquid / Melody)",
      "hue": 120.0,
      "sat": 100.0,
      "regime_state": "Stable"
    },
    {
      "pitch": 69,
      "velocity": 88,
      "onset": 88953,
      "duration": 484,
      "id_score": 7.72,
      "voice_tag": "Background (Solid / Harmony)",
      "hue": 90.0,
      "sat": 100.0,
      "regime_state": "TRANSITION SPIKE!"
    },
    {
      "pitch": 71,
      "velocity": 68,
      "onset": 89453,
      "duration": 286,
      "id_score": 2.53,
      "voice_tag": "Background (Solid / Harmony)",
      "hue": 150.0,
      "sat": 100.0,
      "regime_state": "TRANSITION SPIKE!"
    },
    {
      "pitch": 73,
      "velocity": 74,
      "onset": 89468,
      "duration": 67,
      "id_score": 94.52,
      "voice_tag": "Voice 1 (Liquid / Melody)",
      "hue": 180.0,
      "sat": 100.0,
      "regime_state": "Stable"
    },
    {
      "pitch": 76,
      "velocity": 75,
      "onset": 89479,
      "duration": 140,
      "id_score": 204.01,
      "voice_tag": "Voice 1 (Liquid / Melody)",
      "hue": 60.0,
      "sat": 100.0,
      "regime_state": "Stable"
    },
    {
      "pitch": 73,
      "velocity": 70,
      "onset": 89729,
      "duration": 161,
      "id_score": 8.05,
      "voice_tag": "Background (Solid / Harmony)",
      "hue": 180.0,
      "sat": 100.0,
      "regime_state": "TRANSITION SPIKE!"
    },
    {
      "pitch": 73,
      "velocity": 77,
      "onset": 89994,
      "duration": 229,
      "id_score": 0.0,
      "voice_tag": "Background (Solid / Harmony)",
      "hue": 180.0,
      "sat": 100.0,
      "regime_state": "TRANSITION SPIKE!"
    },
    {
      "pitch": 69,
      "velocity": 74,
      "onset": 90005,
      "duration": 291,
      "id_score": 243.66,
      "voice_tag": "Voice 1 (Liquid / Melody)",
      "hue": 90.0,
      "sat": 100.0,
      "regime_state": "Stable"
    },
    {
      "pitch": 76,
      "velocity": 69,
      "onset": 90010,
      "duration": 250,
      "id_score": 963.46,
      "voice_tag": "Voice 1 (Liquid / Melody)",
      "hue": 60.0,
      "sat": 100.0,
      "regime_state": "Stable"
    },
    {
      "pitch": 66,
      "velocity": 77,
      "onset": 90270,
      "duration": 130,
      "id_score": 25.65,
      "voice_tag": "Background (Solid / Harmony)",
      "hue": 210.0,
      "sat": 100.0,
      "regime_state": "TRANSITION SPIKE!"
    },
    {
      "pitch": 68,
      "velocity": 90,
      "onset": 90479,
      "duration": 130,
      "id_score": 7.69,
      "voice_tag": "Background (Solid / Harmony)",
      "hue": 300.0,
      "sat": 100.0,
      "regime_state": "TRANSITION SPIKE!"
    },
    {
      "pitch": 66,
      "velocity": 78,
      "onset": 90562,
      "duration": 260,
      "id_score": 16.28,
      "voice_tag": "Background (Solid / Harmony)",
      "hue": 210.0,
      "sat": 100.0,
      "regime_state": "Stable"
    },
    {
      "pitch": 64,
      "velocity": 85,
      "onset": 90828,
      "duration": 57,
      "id_score": 5.37,
      "voice_tag": "Background (Solid / Harmony)",
      "hue": 60.0,
      "sat": 100.0,
      "regime_state": "Undefined / Gray Void"
    },
    {
      "pitch": 64,
      "velocity": 74,
      "onset": 91130,
      "duration": 677,
      "id_score": 0.0,
      "voice_tag": "Background (Solid / Harmony)",
      "hue": 60.0,
      "sat": 100.0,
      "regime_state": "TRANSITION SPIKE!"
    },
    {
      "pitch": 76,
      "velocity": 63,
      "onset": 91145,
      "duration": 333,
      "id_score": 502.68,
      "voice_tag": "Voice 1 (Liquid / Melody)",
      "hue": 60.0,
      "sat": 100.0,
      "regime_state": "Regime Locked"
    },
    {
      "pitch": 68,
      "velocity": 51,
      "onset": 91156,
      "duration": 244,
      "id_score": 330.99,
      "voice_tag": "Voice 1 (Liquid / Melody)",
      "hue": 300.0,
      "sat": 100.0,
      "regime_state": "Stable"
    },
    {
      "pitch": 74,
      "velocity": 47,
      "onset": 91177,
      "duration": 317,
      "id_score": 130.41,
      "voice_tag": "Voice 1 (Liquid / Melody)",
      "hue": 120.0,
      "sat": 100.0,
      "regime_state": "Stable"
    },
    {
      "pitch": 68,
      "velocity": 75,
      "onset": 91744,
      "duration": 125,
      "id_score": 7.08,
      "voice_tag": "Background (Solid / Harmony)",
      "hue": 300.0,
      "sat": 7.1,
      "regime_state": "Undefined / Gray Void"
    },
    {
      "pitch": 74,
      "velocity": 65,
      "onset": 91744,
      "duration": 218,
      "id_score": 0.0,
      "voice_tag": "Background (Solid / Harmony)",
      "hue": 300.0,
      "sat": 7.1,
      "regime_state": "Undefined / Gray Void"
    },
    {
      "pitch": 76,
      "velocity": 57,
      "onset": 91750,
      "duration": 229,
      "id_score": 189.5,
      "voice_tag": "Voice 1 (Liquid / Melody)",
      "hue": 60.0,
      "sat": 100.0,
      "regime_state": "Undefined / Gray Void"
    },
    {
      "pitch": 69,
      "velocity": 77,
      "onset": 92307,
      "duration": 947,
      "id_score": 8.76,
      "voice_tag": "Background (Solid / Harmony)",
      "hue": 90.0,
      "sat": 100.0,
      "regime_state": "TRANSITION SPIKE!"
    },
    {
      "pitch": 76,
      "velocity": 60,
      "onset": 92817,
      "duration": 250,
      "id_score": 8.21,
      "voice_tag": "Background (Solid / Harmony)",
      "hue": 60.0,
      "sat": 100.0,
      "regime_state": "TRANSITION SPIKE!"
    },
    {
      "pitch": 73,
      "velocity": 61,
      "onset": 92833,
      "duration": 197,
      "id_score": 109.57,
      "voice_tag": "Voice 1 (Liquid / Melody)",
      "hue": 180.0,
      "sat": 100.0,
      "regime_state": "Stable"
    },
    {
      "pitch": 64,
      "velocity": 74,
      "onset": 93307,
      "duration": 291,
      "id_score": 11.8,
      "voice_tag": "Background (Solid / Harmony)",
      "hue": 90.2,
      "sat": 57.6,
      "regime_state": "TRANSITION SPIKE!"
    },
    {
      "pitch": 73,
      "velocity": 71,
      "onset": 93307,
      "duration": 328,
      "id_score": 0.0,
      "voice_tag": "Background (Solid / Harmony)",
      "hue": 90.2,
      "sat": 57.6,
      "regime_state": "TRANSITION SPIKE!"
    },
    {
      "pitch": 76,
      "velocity": 67,
      "onset": 93307,
      "duration": 328,
      "id_score": 0.0,
      "voice_tag": "Background (Solid / Harmony)",
      "hue": 90.2,
      "sat": 57.6,
      "regime_state": "TRANSITION SPIKE!"
    },
    {
      "pitch": 66,
      "velocity": 75,
      "onset": 93588,
      "duration": 83,
      "id_score": 23.12,
      "voice_tag": "Background (Solid / Harmony)",
      "hue": 210.0,
      "sat": 100.0,
      "regime_state": "TRANSITION SPIKE!"
    },
    {
      "pitch": 66,
      "velocity": 82,
      "onset": 93833,
      "duration": 307,
      "id_score": 0.0,
      "voice_tag": "Background (Solid / Harmony)",
      "hue": 210.0,
      "sat": 100.0,
      "regime_state": "TRANSITION SPIKE!"
    },
    {
      "pitch": 68,
      "velocity": 83,
      "onset": 94104,
      "duration": 78,
      "id_score": 5.47,
      "voice_tag": "Background (Solid / Harmony)",
      "hue": 300.0,
      "sat": 100.0,
      "regime_state": "TRANSITION SPIKE!"
    },
    {
      "pitch": 68,
      "velocity": 90,
      "onset": 94380,
      "duration": 890,
      "id_score": 0.0,
      "voice_tag": "Background (Solid / Harmony)",
      "hue": 300.0,
      "sat": 100.0,
      "regime_state": "TRANSITION SPIKE!"
    },
    {
      "pitch": 73,
      "velocity": 57,
      "onset": 94406,
      "duration": 312,
      "id_score": 105.01,
      "voice_tag": "Voice 1 (Liquid / Melody)",
      "hue": 112.0,
      "sat": 50.5,
      "regime_state": "Undefined / Gray Void"
    },
    {
      "pitch": 76,
      "velocity": 67,
      "onset": 94406,
      "duration": 312,
      "id_score": 0.0,
      "voice_tag": "Background (Solid / Harmony)",
      "hue": 112.0,
      "sat": 50.5,
      "regime_state": "Undefined / Gray Void"
    },
    {
      "pitch": 76,
      "velocity": 53,
      "onset": 95010,
      "duration": 390,
      "id_score": 0.0,
      "voice_tag": "Background (Solid / Harmony)",
      "hue": 60.0,
      "sat": 100.0,
      "regime_state": "TRANSITION SPIKE!"
    },
    {
      "pitch": 73,
      "velocity": 57,
      "onset": 95015,
      "duration": 364,
      "id_score": 327.64,
      "voice_tag": "Voice 1 (Liquid / Melody)",
      "hue": 180.0,
      "sat": 100.0,
      "regime_state": "Stable"
    },
    {
      "pitch": 68,
      "velocity": 89,
      "onset": 95500,
      "duration": 317,
      "id_score": 8.19,
      "voice_tag": "Background (Solid / Harmony)",
      "hue": 300.0,
      "sat": 100.0,
      "regime_state": "TRANSITION SPIKE!"
    },
    {
      "pitch": 71,
      "velocity": 82,
      "onset": 95770,
      "duration": 119,
      "id_score": 8.49,
      "voice_tag": "Background (Solid / Harmony)",
      "hue": 150.0,
      "sat": 100.0,
      "regime_state": "Undefined / Gray Void"
    },
    {
      "pitch": 71,
      "velocity": 71,
      "onset": 96015,
      "duration": 296,
      "id_score": 0.0,
      "voice_tag": "Background (Solid / Harmony)",
      "hue": 150.0,
      "sat": 100.0,
      "regime_state": "TRANSITION SPIKE!"
    },
    {
      "pitch": 73,
      "velocity": 86,
      "onset": 96036,
      "duration": 302,
      "id_score": 78.47,
      "voice_tag": "Voice 1 (Liquid / Melody)",
      "hue": 180.0,
      "sat": 100.0,
      "regime_state": "Stable"
    },
    {
      "pitch": 76,
      "velocity": 78,
      "onset": 96041,
      "duration": 317,
      "id_score": 466.77,
      "voice_tag": "Voice 1 (Liquid / Melody)",
      "hue": 60.0,
      "sat": 100.0,
      "regime_state": "Stable"
    },
    {
      "pitch": 69,
      "velocity": 76,
      "onset": 96286,
      "duration": 161,
      "id_score": 19.66,
      "voice_tag": "Background (Solid / Harmony)",
      "hue": 90.0,
      "sat": 100.0,
      "regime_state": "TRANSITION SPIKE!"
    },
    {
      "pitch": 64,
      "velocity": 75,
      "onset": 96562,
      "duration": 322,
      "id_score": 11.41,
      "voice_tag": "Background (Solid / Harmony)",
      "hue": 60.0,
      "sat": 100.0,
      "regime_state": "TRANSITION SPIKE!"
    },
    {
      "pitch": 73,
      "velocity": 73,
      "onset": 96572,
      "duration": 338,
      "id_score": 629.41,
      "voice_tag": "Voice 1 (Liquid / Melody)",
      "hue": 180.0,
      "sat": 100.0,
      "regime_state": "Stable"
    },
    {
      "pitch": 76,
      "velocity": 64,
      "onset": 96583,
      "duration": 333,
      "id_score": 174.09,
      "voice_tag": "Voice 1 (Liquid / Melody)",
      "hue": 60.0,
      "sat": 100.0,
      "regime_state": "Stable"
    },
    {
      "pitch": 66,
      "velocity": 79,
      "onset": 96833,
      "duration": 130,
      "id_score": 27.37,
      "voice_tag": "Background (Solid / Harmony)",
      "hue": 210.0,
      "sat": 100.0,
      "regime_state": "TRANSITION SPIKE!"
    },
    {
      "pitch": 66,
      "velocity": 91,
      "onset": 97083,
      "duration": 359,
      "id_score": 0.0,
      "voice_tag": "Background (Solid / Harmony)",
      "hue": 210.0,
      "sat": 100.0,
      "regime_state": "TRANSITION SPIKE!"
    },
    {
      "pitch": 68,
      "velocity": 97,
      "onset": 97390,
      "duration": 67,
      "id_score": 5.64,
      "voice_tag": "Background (Solid / Harmony)",
      "hue": 300.0,
      "sat": 100.0,
      "regime_state": "TRANSITION SPIKE!"
    },
    {
      "pitch": 68,
      "velocity": 88,
      "onset": 97760,
      "duration": 1078,
      "id_score": 0.0,
      "voice_tag": "Background (Solid / Harmony)",
      "hue": 300.0,
      "sat": 100.0,
      "regime_state": "Regime Locked"
    },
    {
      "pitch": 76,
      "velocity": 68,
      "onset": 97765,
      "duration": 281,
      "id_score": 1085.14,
      "voice_tag": "Voice 1 (Liquid / Melody)",
      "hue": 60.0,
      "sat": 100.0,
      "regime_state": "TRANSITION SPIKE!"
    },
    {
      "pitch": 73,
      "velocity": 61,
      "onset": 97781,
      "duration": 239,
      "id_score": 109.57,
      "voice_tag": "Voice 1 (Liquid / Melody)",
      "hue": 180.0,
      "sat": 100.0,
      "regime_state": "Undefined / Gray Void"
    },
    {
      "pitch": 73,
      "velocity": 68,
      "onset": 98625,
      "duration": 447,
      "id_score": 0.0,
      "voice_tag": "Background (Solid / Harmony)",
      "hue": 180.0,
      "sat": 100.0,
      "regime_state": "TRANSITION SPIKE!"
    },
    {
      "pitch": 76,
      "velocity": 59,
      "onset": 98635,
      "duration": 463,
      "id_score": 176.54,
      "voice_tag": "Voice 1 (Liquid / Melody)",
      "hue": 60.0,
      "sat": 100.0,
      "regime_state": "Stable"
    },
    {
      "pitch": 69,
      "velocity": 80,
      "onset": 99432,
      "duration": 1046,
      "id_score": 6.36,
      "voice_tag": "Background (Solid / Harmony)",
      "hue": 90.0,
      "sat": 100.0,
      "regime_state": "TRANSITION SPIKE!"
    },
    {
      "pitch": 73,
      "velocity": 66,
      "onset": 99994,
      "duration": 109,
      "id_score": 4.5,
      "voice_tag": "Background (Solid / Harmony)",
      "hue": 180.0,
      "sat": 100.0,
      "regime_state": "TRANSITION SPIKE!"
    },
    {
      "pitch": 76,
      "velocity": 62,
      "onset": 100000,
      "duration": 78,
      "id_score": 309.19,
      "voice_tag": "Voice 1 (Liquid / Melody)",
      "hue": 60.0,
      "sat": 100.0,
      "regime_state": "Stable"
    },
    {
      "pitch": 71,
      "velocity": 73,
      "onset": 100473,
      "duration": 270,
      "id_score": 7.19,
      "voice_tag": "Background (Solid / Harmony)",
      "hue": 150.0,
      "sat": 100.0,
      "regime_state": "TRANSITION SPIKE!"
    },
    {
      "pitch": 73,
      "velocity": 70,
      "onset": 100479,
      "duration": 250,
      "id_score": 223.53,
      "voice_tag": "Voice 1 (Liquid / Melody)",
      "hue": 180.0,
      "sat": 100.0,
      "regime_state": "Stable"
    },
    {
      "pitch": 76,
      "velocity": 68,
      "onset": 100484,
      "duration": 286,
      "id_score": 406.93,
      "voice_tag": "Voice 1 (Liquid / Melody)",
      "hue": 60.0,
      "sat": 100.0,
      "regime_state": "Stable"
    },
    {
      "pitch": 68,
      "velocity": 75,
      "onset": 100739,
      "duration": 67,
      "id_score": 21.0,
      "voice_tag": "Background (Solid / Harmony)",
      "hue": 300.0,
      "sat": 100.0,
      "regime_state": "Undefined / Gray Void"
    },
    {
      "pitch": 68,
      "velocity": 79,
      "onset": 100968,
      "duration": 130,
      "id_score": 0.0,
      "voice_tag": "Background (Solid / Harmony)",
      "hue": 300.0,
      "sat": 100.0,
      "regime_state": "TRANSITION SPIKE!"
    },
    {
      "pitch": 66,
      "velocity": 83,
      "onset": 101067,
      "duration": 239,
      "id_score": 14.52,
      "voice_tag": "Background (Solid / Harmony)",
      "hue": 210.0,
      "sat": 100.0,
      "regime_state": "Stable"
    },
    {
      "pitch": 64,
      "velocity": 87,
      "onset": 101312,
      "duration": 57,
      "id_score": 5.96,
      "voice_tag": "Background (Solid / Harmony)",
      "hue": 60.0,
      "sat": 100.0,
      "regime_state": "Undefined / Gray Void"
    },
    {
      "pitch": 64,
      "velocity": 84,
      "onset": 101604,
      "duration": 911,
      "id_score": 0.0,
      "voice_tag": "Background (Solid / Harmony)",
      "hue": 60.0,
      "sat": 100.0,
      "regime_state": "TRANSITION SPIKE!"
    },
    {
      "pitch": 68,
      "velocity": 67,
      "onset": 101609,
      "duration": 250,
      "id_score": 478.32,
      "voice_tag": "Voice 1 (Liquid / Melody)",
      "hue": 359.3,
      "sat": 50.0,
      "regime_state": "Stable"
    },
    {
      "pitch": 76,
      "velocity": 66,
      "onset": 101609,
      "duration": 317,
      "id_score": 0.0,
      "voice_tag": "Background (Solid / Harmony)",
      "hue": 359.3,
      "sat": 50.0,
      "regime_state": "Stable"
    },
    {
      "pitch": 74,
      "velocity": 64,
      "onset": 101645,
      "duration": 302,
      "id_score": 34.53,
      "voice_tag": "Background (Solid / Harmony)",
      "hue": 120.0,
      "sat": 100.0,
      "regime_state": "Stable"
    },
    {
      "pitch": 68,
      "velocity": 78,
      "onset": 102239,
      "duration": 83,
      "id_score": 7.03,
      "voice_tag": "Background (Solid / Harmony)",
      "hue": 354.7,
      "sat": 50.2,
      "regime_state": "TRANSITION SPIKE!"
    },
    {
      "pitch": 76,
      "velocity": 70,
      "onset": 102239,
      "duration": 307,
      "id_score": 0.0,
      "voice_tag": "Background (Solid / Harmony)",
      "hue": 354.7,
      "sat": 50.2,
      "regime_state": "TRANSITION SPIKE!"
    },
    {
      "pitch": 74,
      "velocity": 61,
      "onset": 102255,
      "duration": 255,
      "id_score": 74.05,
      "voice_tag": "Voice 1 (Liquid / Melody)",
      "hue": 120.0,
      "sat": 100.0,
      "regime_state": "Stable"
    },
    {
      "pitch": 69,
      "velocity": 91,
      "onset": 102750,
      "duration": 473,
      "id_score": 8.32,
      "voice_tag": "Background (Solid / Harmony)",
      "hue": 90.0,
      "sat": 100.0,
      "regime_state": "TRANSITION SPIKE!"
    },
    {
      "pitch": 71,
      "velocity": 69,
      "onset": 103244,
      "duration": 296,
      "id_score": 2.6,
      "voice_tag": "Background (Solid / Harmony)",
      "hue": 150.0,
      "sat": 100.0,
      "regime_state": "TRANSITION SPIKE!"
    },
    {
      "pitch": 73,
      "velocity": 76,
      "onset": 103265,
      "duration": 62,
      "id_score": 69.34,
      "voice_tag": "Voice 1 (Liquid / Melody)",
      "hue": 180.0,
      "sat": 100.0,
      "regime_state": "Stable"
    },
    {
      "pitch": 76,
      "velocity": 74,
      "onset": 103270,
      "duration": 114,
      "id_score": 442.83,
      "voice_tag": "Voice 1 (Liquid / Melody)",
      "hue": 60.0,
      "sat": 100.0,
      "regime_state": "Stable"
    },
    {
      "pitch": 73,
      "velocity": 74,
      "onset": 103520,
      "duration": 125,
      "id_score": 8.51,
      "voice_tag": "Background (Solid / Harmony)",
      "hue": 180.0,
      "sat": 100.0,
      "regime_state": "TRANSITION SPIKE!"
    },
    {
      "pitch": 73,
      "velocity": 62,
      "onset": 103776,
      "duration": 312,
      "id_score": 0.0,
      "voice_tag": "Background (Solid / Harmony)",
      "hue": 180.0,
      "sat": 100.0,
      "regime_state": "TRANSITION SPIKE!"
    },
    {
      "pitch": 69,
      "velocity": 76,
      "onset": 103791,
      "duration": 333,
      "id_score": 183.52,
      "voice_tag": "Voice 1 (Liquid / Melody)",
      "hue": 90.0,
      "sat": 100.0,
      "regime_state": "Stable"
    },
    {
      "pitch": 76,
      "velocity": 58,
      "onset": 103796,
      "duration": 333,
      "id_score": 809.87,
      "voice_tag": "Voice 1 (Liquid / Melody)",
      "hue": 60.0,
      "sat": 100.0,
      "regime_state": "Stable"
    },
    {
      "pitch": 66,
      "velocity": 77,
      "onset": 104067,
      "duration": 151,
      "id_score": 24.61,
      "voice_tag": "Background (Solid / Harmony)",
      "hue": 210.0,
      "sat": 100.0,
      "regime_state": "TRANSITION SPIKE!"
    },
    {
      "pitch": 68,
      "velocity": 92,
      "onset": 104286,
      "duration": 140,
      "id_score": 7.5,
      "voice_tag": "Background (Solid / Harmony)",
      "hue": 300.0,
      "sat": 100.0,
      "regime_state": "TRANSITION SPIKE!"
    },
    {
      "pitch": 66,
      "velocity": 78,
      "onset": 104380,
      "duration": 244,
      "id_score": 14.37,
      "voice_tag": "Background (Solid / Harmony)",
      "hue": 210.0,
      "sat": 100.0,
      "regime_state": "Stable"
    },
    {
      "pitch": 64,
      "velocity": 85,
      "onset": 104645,
      "duration": 62,
      "id_score": 5.39,
      "voice_tag": "Background (Solid / Harmony)",
      "hue": 60.0,
      "sat": 100.0,
      "regime_state": "Undefined / Gray Void"
    },
    {
      "pitch": 64,
      "velocity": 85,
      "onset": 104953,
      "duration": 718,
      "id_score": 0.0,
      "voice_tag": "Background (Solid / Harmony)",
      "hue": 60.0,
      "sat": 100.0,
      "regime_state": "TRANSITION SPIKE!"
    },
    {
      "pitch": 76,
      "velocity": 63,
      "onset": 104973,
      "duration": 286,
      "id_score": 377.01,
      "voice_tag": "Voice 1 (Liquid / Melody)",
      "hue": 60.0,
      "sat": 100.0,
      "regime_state": "Regime Locked"
    },
    {
      "pitch": 68,
      "velocity": 57,
      "onset": 104984,
      "duration": 125,
      "id_score": 369.94,
      "voice_tag": "Voice 1 (Liquid / Melody)",
      "hue": 300.0,
      "sat": 100.0,
      "regime_state": "Stable"
    },
    {
      "pitch": 74,
      "velocity": 44,
      "onset": 105010,
      "duration": 239,
      "id_score": 98.61,
      "voice_tag": "Voice 1 (Liquid / Melody)",
      "hue": 120.0,
      "sat": 100.0,
      "regime_state": "Stable"
    },
    {
      "pitch": 68,
      "velocity": 74,
      "onset": 105578,
      "duration": 78,
      "id_score": 6.98,
      "voice_tag": "Background (Solid / Harmony)",
      "hue": 300.0,
      "sat": 100.0,
      "regime_state": "TRANSITION SPIKE!"
    },
    {
      "pitch": 76,
      "velocity": 59,
      "onset": 105593,
      "duration": 88,
      "id_score": 313.84,
      "voice_tag": "Voice 1 (Liquid / Melody)",
      "hue": 60.0,
      "sat": 100.0,
      "regime_state": "Stable"
    },
    {
      "pitch": 74,
      "velocity": 58,
      "onset": 105598,
      "duration": 88,
      "id_score": 225.3,
      "voice_tag": "Voice 1 (Liquid / Melody)",
      "hue": 120.0,
      "sat": 100.0,
      "regime_state": "Undefined / Gray Void"
    },
    {
      "pitch": 69,
      "velocity": 64,
      "onset": 106171,
      "duration": 1031,
      "id_score": 5.06,
      "voice_tag": "Background (Solid / Harmony)",
      "hue": 90.0,
      "sat": 100.0,
      "regime_state": "TRANSITION SPIKE!"
    },
    {
      "pitch": 76,
      "velocity": 49,
      "onset": 106703,
      "duration": 250,
      "id_score": 6.43,
      "voice_tag": "Background (Solid / Harmony)",
      "hue": 60.0,
      "sat": 100.0,
      "regime_state": "TRANSITION SPIKE!"
    },
    {
      "pitch": 73,
      "velocity": 55,
      "onset": 106723,
      "duration": 197,
      "id_score": 79.04,
      "voice_tag": "Voice 1 (Liquid / Melody)",
      "hue": 180.0,
      "sat": 100.0,
      "regime_state": "Stable"
    },
    {
      "pitch": 64,
      "velocity": 57,
      "onset": 107239,
      "duration": 322,
      "id_score": 8.35,
      "voice_tag": "Background (Solid / Harmony)",
      "hue": 60.0,
      "sat": 100.0,
      "regime_state": "TRANSITION SPIKE!"
    },
    {
      "pitch": 76,
      "velocity": 50,
      "onset": 107250,
      "duration": 369,
      "id_score": 544.02,
      "voice_tag": "Voice 1 (Liquid / Melody)",
      "hue": 60.0,
      "sat": 100.0,
      "regime_state": "Regime Locked"
    },
    {
      "pitch": 73,
      "velocity": 42,
      "onset": 107255,
      "duration": 380,
      "id_score": 241.42,
      "voice_tag": "Voice 1 (Liquid / Melody)",
      "hue": 180.0,
      "sat": 100.0,
      "regime_state": "Stable"
    },
    {
      "pitch": 66,
      "velocity": 67,
      "onset": 107552,
      "duration": 72,
      "id_score": 13.68,
      "voice_tag": "Background (Solid / Harmony)",
      "hue": 210.0,
      "sat": 100.0,
      "regime_state": "TRANSITION SPIKE!"
    },
    {
      "pitch": 66,
      "velocity": 80,
      "onset": 107859,
      "duration": 343,
      "id_score": 0.0,
      "voice_tag": "Background (Solid / Harmony)",
      "hue": 210.0,
      "sat": 100.0,
      "regime_state": "TRANSITION SPIKE!"
    },
    {
      "pitch": 67,
      "velocity": 77,
      "onset": 108145,
      "duration": 130,
      "id_score": 2.37,
      "voice_tag": "Background (Solid / Harmony)",
      "hue": 30.0,
      "sat": 100.0,
      "regime_state": "Undefined / Gray Void"
    },
    {
      "pitch": 67,
      "velocity": 94,
      "onset": 108494,
      "duration": 968,
      "id_score": 0.0,
      "voice_tag": "Background (Solid / Harmony)",
      "hue": 30.0,
      "sat": 100.0,
      "regime_state": "TRANSITION SPIKE!"
    },
    {
      "pitch": 73,
      "velocity": 85,
      "onset": 108515,
      "duration": 380,
      "id_score": 232.66,
      "voice_tag": "Voice 1 (Liquid / Melody)",
      "hue": 180.0,
      "sat": 100.0,
      "regime_state": "Undefined / Gray Void"
    },
    {
      "pitch": 76,
      "velocity": 76,
      "onset": 108520,
      "duration": 364,
      "id_score": 454.8,
      "voice_tag": "Voice 1 (Liquid / Melody)",
      "hue": 60.0,
      "sat": 100.0,
      "regime_state": "Stable"
    },
    {
      "pitch": 73,
      "velocity": 74,
      "onset": 109265,
      "duration": 375,
      "id_score": 2.85,
      "voice_tag": "Background (Solid / Harmony)",
      "hue": 180.0,
      "sat": 100.0,
      "regime_state": "TRANSITION SPIKE!"
    },
    {
      "pitch": 76,
      "velocity": 70,
      "onset": 109270,
      "duration": 390,
      "id_score": 418.9,
      "voice_tag": "Voice 1 (Liquid / Melody)",
      "hue": 60.0,
      "sat": 100.0,
      "regime_state": "Stable"
    },
    {
      "pitch": 67,
      "velocity": 80,
      "onset": 109828,
      "duration": 322,
      "id_score": 11.35,
      "voice_tag": "Background (Solid / Harmony)",
      "hue": 30.0,
      "sat": 100.0,
      "regime_state": "TRANSITION SPIKE!"
    },
    {
      "pitch": 68,
      "velocity": 97,
      "onset": 110135,
      "duration": 203,
      "id_score": 2.82,
      "voice_tag": "Background (Solid / Harmony)",
      "hue": 300.0,
      "sat": 100.0,
      "regime_state": "TRANSITION SPIKE!"
    },
    {
      "pitch": 68,
      "velocity": 97,
      "onset": 110458,
      "duration": 968,
      "id_score": 0.0,
      "voice_tag": "Background (Solid / Harmony)",
      "hue": 300.0,
      "sat": 100.0,
      "regime_state": "Regime Locked"
    },
    {
      "pitch": 76,
      "velocity": 83,
      "onset": 110473,
      "duration": 375,
      "id_score": 441.5,
      "voice_tag": "Voice 1 (Liquid / Melody)",
      "hue": 60.0,
      "sat": 100.0,
      "regime_state": "TRANSITION SPIKE!"
    },
    {
      "pitch": 73,
      "velocity": 86,
      "onset": 110479,
      "duration": 395,
      "id_score": 411.94,
      "voice_tag": "Voice 1 (Liquid / Melody)",
      "hue": 180.0,
      "sat": 100.0,
      "regime_state": "Undefined / Gray Void"
    },
    {
      "pitch": 73,
      "velocity": 89,
      "onset": 111286,
      "duration": 255,
      "id_score": 0.0,
      "voice_tag": "Background (Solid / Harmony)",
      "hue": 180.0,
      "sat": 100.0,
      "regime_state": "TRANSITION SPIKE!"
    },
    {
      "pitch": 76,
      "velocity": 78,
      "onset": 111291,
      "duration": 276,
      "id_score": 466.77,
      "voice_tag": "Voice 1 (Liquid / Melody)",
      "hue": 60.0,
      "sat": 100.0,
      "regime_state": "Stable"
    },
    {
      "pitch": 68,
      "velocity": 102,
      "onset": 112015,
      "duration": 385,
      "id_score": 10.06,
      "voice_tag": "Background (Solid / Harmony)",
      "hue": 300.0,
      "sat": 100.0,
      "regime_state": "TRANSITION SPIKE!"
    },
    {
      "pitch": 69,
      "velocity": 102,
      "onset": 112348,
      "duration": 218,
      "id_score": 2.77,
      "voice_tag": "Background (Solid / Harmony)",
      "hue": 90.0,
      "sat": 100.0,
      "regime_state": "TRANSITION SPIKE!"
    },
    {
      "pitch": 69,
      "velocity": 106,
      "onset": 112713,
      "duration": 1067,
      "id_score": 0.0,
      "voice_tag": "Background (Solid / Harmony)",
      "hue": 90.0,
      "sat": 100.0,
      "regime_state": "Regime Locked"
    },
    {
      "pitch": 73,
      "velocity": 98,
      "onset": 112729,
      "duration": 354,
      "id_score": 234.71,
      "voice_tag": "Voice 1 (Liquid / Melody)",
      "hue": 124.2,
      "sat": 50.1,
      "regime_state": "TRANSITION SPIKE!"
    },
    {
      "pitch": 76,
      "velocity": 90,
      "onset": 112729,
      "duration": 333,
      "id_score": 0.0,
      "voice_tag": "Background (Solid / Harmony)",
      "hue": 124.2,
      "sat": 50.1,
      "regime_state": "TRANSITION SPIKE!"
    },
    {
      "pitch": 73,
      "velocity": 82,
      "onset": 113765,
      "duration": 515,
      "id_score": 2.27,
      "voice_tag": "Background (Solid / Harmony)",
      "hue": 132.1,
      "sat": 51.1,
      "regime_state": "TRANSITION SPIKE!"
    },
    {
      "pitch": 76,
      "velocity": 64,
      "onset": 113765,
      "duration": 1171,
      "id_score": 0.0,
      "voice_tag": "Background (Solid / Harmony)",
      "hue": 132.1,
      "sat": 51.1,
      "regime_state": "TRANSITION SPIKE!"
    },
    {
      "pitch": 45,
      "velocity": 36,
      "onset": 114979,
      "duration": 359,
      "id_score": 7.24,
      "voice_tag": "Background (Solid / Harmony)",
      "hue": 90.0,
      "sat": 100.0,
      "regime_state": "TRANSITION SPIKE!"
    },
    {
      "pitch": 60,
      "velocity": 64,
      "onset": 115421,
      "duration": 78,
      "id_score": 17.1,
      "voice_tag": "Background (Solid / Harmony)",
      "hue": 0.0,
      "sat": 100.0,
      "regime_state": "TRANSITION SPIKE!"
    },
    {
      "pitch": 52,
      "velocity": 53,
      "onset": 115427,
      "duration": 78,
      "id_score": 556.43,
      "voice_tag": "Voice 1 (Liquid / Melody)",
      "hue": 60.0,
      "sat": 100.0,
      "regime_state": "Stable"
    },
    {
      "pitch": 60,
      "velocity": 72,
      "onset": 115843,
      "duration": 62,
      "id_score": 10.9,
      "voice_tag": "Background (Solid / Harmony)",
      "hue": 0.0,
      "sat": 100.0,
      "regime_state": "TRANSITION SPIKE!"
    },
    {
      "pitch": 52,
      "velocity": 46,
      "onset": 115854,
      "duration": 78,
      "id_score": 263.42,
      "voice_tag": "Voice 1 (Liquid / Melody)",
      "hue": 60.0,
      "sat": 100.0,
      "regime_state": "Stable"
    },
    {
      "pitch": 45,
      "velocity": 49,
      "onset": 116307,
      "duration": 432,
      "id_score": 5.96,
      "voice_tag": "Background (Solid / Harmony)",
      "hue": 90.0,
      "sat": 100.0,
      "regime_state": "TRANSITION SPIKE!"
    },
    {
      "pitch": 52,
      "velocity": 48,
      "onset": 116760,
      "duration": 72,
      "id_score": 5.84,
      "voice_tag": "Background (Solid / Harmony)",
      "hue": 60.0,
      "sat": 100.0,
      "regime_state": "TRANSITION SPIKE!"
    },
    {
      "pitch": 60,
      "velocity": 54,
      "onset": 116765,
      "duration": 72,
      "id_score": 680.31,
      "voice_tag": "Voice 1 (Liquid / Melody)",
      "hue": 0.0,
      "sat": 100.0,
      "regime_state": "Stable"
    },
    {
      "pitch": 52,
      "velocity": 43,
      "onset": 117197,
      "duration": 72,
      "id_score": 6.27,
      "voice_tag": "Background (Solid / Harmony)",
      "hue": 24.6,
      "sat": 87.0,
      "regime_state": "TRANSITION SPIKE!"
    },
    {
      "pitch": 60,
      "velocity": 60,
      "onset": 117197,
      "duration": 67,
      "id_score": 0.0,
      "voice_tag": "Background (Solid / Harmony)",
      "hue": 24.6,
      "sat": 87.0,
      "regime_state": "TRANSITION SPIKE!"
    },
    {
      "pitch": 45,
      "velocity": 40,
      "onset": 117604,
      "duration": 369,
      "id_score": 11.61,
      "voice_tag": "Background (Solid / Harmony)",
      "hue": 71.2,
      "sat": 96.8,
      "regime_state": "TRANSITION SPIKE!"
    },
    {
      "pitch": 64,
      "velocity": 66,
      "onset": 117604,
      "duration": 265,
      "id_score": 0.0,
      "voice_tag": "Background (Solid / Harmony)",
      "hue": 71.2,
      "sat": 96.8,
      "regime_state": "TRANSITION SPIKE!"
    },
    {
      "pitch": 52,
      "velocity": 39,
      "onset": 118026,
      "duration": 83,
      "id_score": 8.73,
      "voice_tag": "Background (Solid / Harmony)",
      "hue": 188.4,
      "sat": 43.4,
      "regime_state": "TRANSITION SPIKE!"
    },
    {
      "pitch": 66,
      "velocity": 83,
      "onset": 118026,
      "duration": 62,
      "id_score": 0.0,
      "voice_tag": "Background (Solid / Harmony)",
      "hue": 188.4,
      "sat": 43.4,
      "regime_state": "TRANSITION SPIKE!"
    },
    {
      "pitch": 60,
      "velocity": 42,
      "onset": 118031,
      "duration": 83,
      "id_score": 396.85,
      "voice_tag": "Voice 1 (Liquid / Melody)",
      "hue": 0.0,
      "sat": 100.0,
      "regime_state": "Undefined / Gray Void"
    },
    {
      "pitch": 68,
      "velocity": 81,
      "onset": 118223,
      "duration": 62,
      "id_score": 30.12,
      "voice_tag": "Background (Solid / Harmony)",
      "hue": 300.0,
      "sat": 100.0,
      "regime_state": "TRANSITION SPIKE!"
    },
    {
      "pitch": 69,
      "velocity": 83,
      "onset": 118453,
      "duration": 57,
      "id_score": 3.27,
      "voice_tag": "Background (Solid / Harmony)",
      "hue": 90.0,
      "sat": 100.0,
      "regime_state": "Undefined / Gray Void"
    },
    {
      "pitch": 52,
      "velocity": 41,
      "onset": 118463,
      "duration": 78,
      "id_score": 548.82,
      "voice_tag": "Voice 1 (Liquid / Melody)",
      "hue": 30.8,
      "sat": 86.6,
      "regime_state": "TRANSITION SPIKE!"
    },
    {
      "pitch": 60,
      "velocity": 39,
      "onset": 118463,
      "duration": 62,
      "id_score": 0.0,
      "voice_tag": "Background (Solid / Harmony)",
      "hue": 30.8,
      "sat": 86.6,
      "regime_state": "TRANSITION SPIKE!"
    },
    {
      "pitch": 45,
      "velocity": 60,
      "onset": 118838,
      "duration": 244,
      "id_score": 18.9,
      "voice_tag": "Background (Solid / Harmony)",
      "hue": 90.0,
      "sat": 100.0,
      "regime_state": "TRANSITION SPIKE!"
    },
    {
      "pitch": 69,
      "velocity": 80,
      "onset": 118854,
      "duration": 322,
      "id_score": 1086.61,
      "voice_tag": "Voice 1 (Liquid / Melody)",
      "hue": 90.0,
      "sat": 100.0,
      "regime_state": "Regime Locked"
    },
    {
      "pitch": 71,
      "velocity": 79,
      "onset": 119286,
      "duration": 67,
      "id_score": 3.41,
      "voice_tag": "Background (Solid / Harmony)",
      "hue": 150.0,
      "sat": 100.0,
      "regime_state": "TRANSITION SPIKE!"
    },
    {
      "pitch": 62,
      "velocity": 58,
      "onset": 119291,
      "duration": 93,
      "id_score": 849.45,
      "voice_tag": "Voice 1 (Liquid / Melody)",
      "hue": 120.0,
      "sat": 100.0,
      "regime_state": "Stable"
    },
    {
      "pitch": 52,
      "velocity": 49,
      "onset": 119296,
      "duration": 88,
      "id_score": 771.65,
      "voice_tag": "Voice 1 (Liquid / Melody)",
      "hue": 60.0,
      "sat": 100.0,
      "regime_state": "Stable"
    },
    {
      "pitch": 68,
      "velocity": 78,
      "onset": 119520,
      "duration": 67,
      "id_score": 49.72,
      "voice_tag": "Background (Solid / Harmony)",
      "hue": 300.0,
      "sat": 100.0,
      "regime_state": "Undefined / Gray Void"
    },
    {
      "pitch": 62,
      "velocity": 64,
      "onset": 119718,
      "duration": 78,
      "id_score": 15.78,
      "voice_tag": "Background (Solid / Harmony)",
      "hue": 120.0,
      "sat": 100.0,
      "regime_state": "Undefined / Gray Void"
    },
    {
      "pitch": 52,
      "velocity": 47,
      "onset": 119723,
      "duration": 67,
      "id_score": 740.16,
      "voice_tag": "Voice 1 (Liquid / Melody)",
      "hue": 60.0,
      "sat": 100.0,
      "regime_state": "Undefined / Gray Void"
    },
    {
      "pitch": 66,
      "velocity": 77,
      "onset": 119739,
      "duration": 62,
      "id_score": 583.56,
      "voice_tag": "Voice 1 (Liquid / Melody)",
      "hue": 210.0,
      "sat": 100.0,
      "regime_state": "Undefined / Gray Void"
    },
    {
      "pitch": 69,
      "velocity": 73,
      "onset": 120078,
      "duration": 52,
      "id_score": 5.85,
      "voice_tag": "Background (Solid / Harmony)",
      "hue": 90.0,
      "sat": 100.0,
      "regime_state": "TRANSITION SPIKE!"
    },
    {
      "pitch": 45,
      "velocity": 57,
      "onset": 120098,
      "duration": 369,
      "id_score": 538.58,
      "voice_tag": "Voice 1 (Liquid / Melody)",
      "hue": 90.0,
      "sat": 100.0,
      "regime_state": "Regime Locked"
    },
    {
      "pitch": 66,
      "velocity": 78,
      "onset": 120130,
      "duration": 57,
      "id_score": 443.36,
      "voice_tag": "Voice 1 (Liquid / Melody)",
      "hue": 210.0,
      "sat": 100.0,
      "regime_state": "Stable"
    },
    {
      "pitch": 60,
      "velocity": 62,
      "onset": 120536,
      "duration": 78,
      "id_score": 7.21,
      "voice_tag": "Background (Solid / Harmony)",
      "hue": 0.0,
      "sat": 100.0,
      "regime_state": "TRANSITION SPIKE!"
    },
    {
      "pitch": 52,
      "velocity": 45,
      "onset": 120546,
      "duration": 78,
      "id_score": 283.46,
      "voice_tag": "Voice 1 (Liquid / Melody)",
      "hue": 60.0,
      "sat": 100.0,
      "regime_state": "Stable"
    },
    {
      "pitch": 64,
      "velocity": 70,
      "onset": 120572,
      "duration": 1244,
      "id_score": 271.35,
      "voice_tag": "Voice 1 (Liquid / Melody)",
      "hue": 60.0,
      "sat": 100.0,
      "regime_state": "Stable"
    },
    {
      "pitch": 60,
      "velocity": 71,
      "onset": 120958,
      "duration": 62,
      "id_score": 5.79,
      "voice_tag": "Background (Solid / Harmony)",
      "hue": 0.0,
      "sat": 100.0,
      "regime_state": "TRANSITION SPIKE!"
    },
    {
      "pitch": 52,
      "velocity": 50,
      "onset": 120973,
      "duration": 67,
      "id_score": 209.97,
      "voice_tag": "Voice 1 (Liquid / Melody)",
      "hue": 60.0,
      "sat": 100.0,
      "regime_state": "Stable"
    },
    {
      "pitch": 45,
      "velocity": 71,
      "onset": 121411,
      "duration": 411,
      "id_score": 8.93,
      "voice_tag": "Background (Solid / Harmony)",
      "hue": 90.0,
      "sat": 100.0,
      "regime_state": "TRANSITION SPIKE!"
    },
    {
      "pitch": 60,
      "velocity": 73,
      "onset": 121843,
      "duration": 62,
      "id_score": 19.96,
      "voice_tag": "Background (Solid / Harmony)",
      "hue": 0.0,
      "sat": 100.0,
      "regime_state": "TRANSITION SPIKE!"
    },
    {
      "pitch": 52,
      "velocity": 54,
      "onset": 121859,
      "duration": 67,
      "id_score": 212.6,
      "voice_tag": "Voice 1 (Liquid / Melody)",
      "hue": 60.0,
      "sat": 100.0,
      "regime_state": "Stable"
    },
    {
      "pitch": 60,
      "velocity": 78,
      "onset": 122265,
      "duration": 57,
      "id_score": 12.1,
      "voice_tag": "Background (Solid / Harmony)",
      "hue": 0.0,
      "sat": 100.0,
      "regime_state": "TRANSITION SPIKE!"
    },
    {
      "pitch": 52,
      "velocity": 57,
      "onset": 122270,
      "duration": 67,
      "id_score": 718.11,
      "voice_tag": "Voice 1 (Liquid / Melody)",
      "hue": 60.0,
      "sat": 100.0,
      "regime_state": "Stable"
    },
    {
      "pitch": 45,
      "velocity": 54,
      "onset": 122666,
      "duration": 333,
      "id_score": 7.52,
      "voice_tag": "Background (Solid / Harmony)",
      "hue": 90.0,
      "sat": 100.0,
      "regime_state": "TRANSITION SPIKE!"
    },
    {
      "pitch": 64,
      "velocity": 80,
      "onset": 122885,
      "duration": 78,
      "id_score": 58.29,
      "voice_tag": "Voice 1 (Liquid / Melody)",
      "hue": 60.0,
      "sat": 100.0,
      "regime_state": "TRANSITION SPIKE!"
    },
    {
      "pitch": 52,
      "velocity": 57,
      "onset": 123078,
      "duration": 78,
      "id_score": 27.91,
      "voice_tag": "Background (Solid / Harmony)",
      "hue": 60.0,
      "sat": 100.0,
      "regime_state": "TRANSITION SPIKE!"
    },
    {
      "pitch": 60,
      "velocity": 64,
      "onset": 123083,
      "duration": 67,
      "id_score": 806.3,
      "voice_tag": "Voice 1 (Liquid / Melody)",
      "hue": 0.0,
      "sat": 100.0,
      "regime_state": "Stable"
    },
    {
      "pitch": 66,
      "velocity": 82,
      "onset": 123093,
      "duration": 62,
      "id_score": 426.14,
      "voice_tag": "Voice 1 (Liquid / Melody)",
      "hue": 210.0,
      "sat": 100.0,
      "regime_state": "Stable"
    },
    {
      "pitch": 68,
      "velocity": 84,
      "onset": 123312,
      "duration": 57,
      "id_score": 6.85,
      "voice_tag": "Background (Solid / Harmony)",
      "hue": 300.0,
      "sat": 100.0,
      "regime_state": "TRANSITION SPIKE!"
    },
    {
      "pitch": 68,
      "velocity": 83,
      "onset": 123510,
      "duration": 250,
      "id_score": 0.0,
      "voice_tag": "Background (Solid / Harmony)",
      "hue": 300.0,
      "sat": 100.0,
      "regime_state": "TRANSITION SPIKE!"
    },
    {
      "pitch": 52,
      "velocity": 60,
      "onset": 123520,
      "duration": 88,
      "id_score": 755.91,
      "voice_tag": "Voice 1 (Liquid / Melody)",
      "hue": 27.5,
      "sat": 86.7,
      "regime_state": "Stable"
    },
    {
      "pitch": 60,
      "velocity": 70,
      "onset": 123520,
      "duration": 57,
      "id_score": 0.0,
      "voice_tag": "Background (Solid / Harmony)",
      "hue": 27.5,
      "sat": 86.7,
      "regime_state": "Stable"
    },
    {
      "pitch": 69,
      "velocity": 80,
      "onset": 123750,
      "duration": 72,
      "id_score": 28.35,
      "voice_tag": "Background (Solid / Harmony)",
      "hue": 90.0,
      "sat": 100.0,
      "regime_state": "TRANSITION SPIKE!"
    },
    {
      "pitch": 45,
      "velocity": 64,
      "onset": 123963,
      "duration": 270,
      "id_score": 56.78,
      "voice_tag": "Voice 1 (Liquid / Melody)",
      "hue": 90.0,
      "sat": 100.0,
      "regime_state": "TRANSITION SPIKE!"
    },
    {
      "pitch": 69,
      "velocity": 84,
      "onset": 124187,
      "duration": 62,
      "id_score": 81.5,
      "voice_tag": "Voice 1 (Liquid / Melody)",
      "hue": 90.0,
      "sat": 100.0,
      "regime_state": "TRANSITION SPIKE!"
    },
    {
      "pitch": 62,
      "velocity": 83,
      "onset": 124395,
      "duration": 72,
      "id_score": 22.73,
      "voice_tag": "Background (Solid / Harmony)",
      "hue": 135.0,
      "sat": 96.6,
      "regime_state": "TRANSITION SPIKE!"
    },
    {
      "pitch": 71,
      "velocity": 83,
      "onset": 124395,
      "duration": 57,
      "id_score": 0.0,
      "voice_tag": "Background (Solid / Harmony)",
      "hue": 135.0,
      "sat": 96.6,
      "regime_state": "TRANSITION SPIKE!"
    },
    {
      "pitch": 52,
      "velocity": 64,
      "onset": 124401,
      "duration": 78,
      "id_score": 1595.8,
      "voice_tag": "Voice 1 (Liquid / Melody)",
      "hue": 60.0,
      "sat": 100.0,
      "regime_state": "Stable"
    },
    {
      "pitch": 68,
      "velocity": 81,
      "onset": 124619,
      "duration": 57,
      "id_score": 53.05,
      "voice_tag": "Voice 1 (Liquid / Melody)",
      "hue": 300.0,
      "sat": 100.0,
      "regime_state": "TRANSITION SPIKE!"
    },
    {
      "pitch": 68,
      "velocity": 73,
      "onset": 124817,
      "duration": 203,
      "id_score": 0.0,
      "voice_tag": "Background (Solid / Harmony)",
      "hue": 300.0,
      "sat": 100.0,
      "regime_state": "TRANSITION SPIKE!"
    },
    {
      "pitch": 52,
      "velocity": 57,
      "onset": 124838,
      "duration": 62,
      "id_score": 341.96,
      "voice_tag": "Voice 1 (Liquid / Melody)",
      "hue": 90.3,
      "sat": 86.6,
      "regime_state": "Stable"
    },
    {
      "pitch": 62,
      "velocity": 58,
      "onset": 124838,
      "duration": 67,
      "id_score": 0.0,
      "voice_tag": "Background (Solid / Harmony)",
      "hue": 90.3,
      "sat": 86.6,
      "regime_state": "Stable"
    },
    {
      "pitch": 66,
      "velocity": 75,
      "onset": 125036,
      "duration": 72,
      "id_score": 13.12,
      "voice_tag": "Background (Solid / Harmony)",
      "hue": 210.0,
      "sat": 100.0,
      "regime_state": "Undefined / Gray Void"
    },
    {
      "pitch": 45,
      "velocity": 60,
      "onset": 125250,
      "duration": 255,
      "id_score": 46.36,
      "voice_tag": "Background (Solid / Harmony)",
      "hue": 90.0,
      "sat": 100.0,
      "regime_state": "TRANSITION SPIKE!"
    },
    {
      "pitch": 69,
      "velocity": 75,
      "onset": 125250,
      "duration": 46,
      "id_score": 0.0,
      "voice_tag": "Background (Solid / Harmony)",
      "hue": 90.0,
      "sat": 100.0,
      "regime_state": "TRANSITION SPIKE!"
    },
    {
      "pitch": 66,
      "velocity": 83,
      "onset": 125296,
      "duration": 57,
      "id_score": 46.88,
      "voice_tag": "Background (Solid / Harmony)",
      "hue": 210.0,
      "sat": 100.0,
      "regime_state": "Stable"
    },
    {
      "pitch": 52,
      "velocity": 55,
      "onset": 125708,
      "duration": 72,
      "id_score": 14.72,
      "voice_tag": "Background (Solid / Harmony)",
      "hue": 60.0,
      "sat": 100.0,
      "regime_state": "TRANSITION SPIKE!"
    },
    {
      "pitch": 64,
      "velocity": 85,
      "onset": 125713,
      "duration": 1218,
      "id_score": 1713.39,
      "voice_tag": "Voice 1 (Liquid / Melody)",
      "hue": 60.0,
      "sat": 100.0,
      "regime_state": "Regime Locked"
    },
    {
      "pitch": 60,
      "velocity": 46,
      "onset": 125723,
      "duration": 67,
      "id_score": 144.88,
      "voice_tag": "Voice 1 (Liquid / Melody)",
      "hue": 0.0,
      "sat": 100.0,
      "regime_state": "Stable"
    },
    {
      "pitch": 60,
      "velocity": 75,
      "onset": 126145,
      "duration": 52,
      "id_score": 0.0,
      "voice_tag": "Background (Solid / Harmony)",
      "hue": 0.0,
      "sat": 100.0,
      "regime_state": "TRANSITION SPIKE!"
    },
    {
      "pitch": 52,
      "velocity": 52,
      "onset": 126156,
      "duration": 67,
      "id_score": 297.78,
      "voice_tag": "Voice 1 (Liquid / Melody)",
      "hue": 60.0,
      "sat": 100.0,
      "regime_state": "Stable"
    },
    {
      "pitch": 45,
      "velocity": 51,
      "onset": 126645,
      "duration": 375,
      "id_score": 5.75,
      "voice_tag": "Background (Solid / Harmony)",
      "hue": 90.0,
      "sat": 100.0,
      "regime_state": "TRANSITION SPIKE!"
    },
    {
      "pitch": 60,
      "velocity": 77,
      "onset": 127098,
      "duration": 62,
      "id_score": 20.08,
      "voice_tag": "Background (Solid / Harmony)",
      "hue": 0.0,
      "sat": 100.0,
      "regime_state": "TRANSITION SPIKE!"
    },
    {
      "pitch": 52,
      "velocity": 72,
      "onset": 127119,
      "duration": 57,
      "id_score": 215.97,
      "voice_tag": "Voice 1 (Liquid / Melody)",
      "hue": 60.0,
      "sat": 100.0,
      "regime_state": "Stable"
    },
    {
      "pitch": 52,
      "velocity": 74,
      "onset": 127546,
      "duration": 52,
      "id_score": 0.0,
      "voice_tag": "Background (Solid / Harmony)",
      "hue": 60.0,
      "sat": 100.0,
      "regime_state": "TRANSITION SPIKE!"
    },
    {
      "pitch": 60,
      "velocity": 93,
      "onset": 127552,
      "duration": 46,
      "id_score": 976.38,
      "voice_tag": "Voice 1 (Liquid / Melody)",
      "hue": 0.0,
      "sat": 100.0,
      "regime_state": "Stable"
    },
    {
      "pitch": 60,
      "velocity": 83,
      "onset": 127994,
      "duration": 46,
      "id_score": 0.0,
      "voice_tag": "Background (Solid / Harmony)",
      "hue": 28.2,
      "sat": 91.5,
      "regime_state": "Stable"
    },
    {
      "pitch": 64,
      "velocity": 69,
      "onset": 127994,
      "duration": 72,
      "id_score": 0.0,
      "voice_tag": "Background (Solid / Harmony)",
      "hue": 28.2,
      "sat": 91.5,
      "regime_state": "Stable"
    },
    {
      "pitch": 67,
      "velocity": 87,
      "onset": 127994,
      "duration": 41,
      "id_score": 0.0,
      "voice_tag": "Background (Solid / Harmony)",
      "hue": 28.2,
      "sat": 91.5,
      "regime_state": "Stable"
    },
    {
      "pitch": 76,
      "velocity": 86,
      "onset": 128000,
      "duration": 41,
      "id_score": 1286.61,
      "voice_tag": "Voice 1 (Liquid / Melody)",
      "hue": 60.0,
      "sat": 100.0,
      "regime_state": "TRANSITION SPIKE!"
    },
    {
      "pitch": 65,
      "velocity": 90,
      "onset": 128427,
      "duration": 62,
      "id_score": 19.78,
      "voice_tag": "Background (Solid / Harmony)",
      "hue": 330.0,
      "sat": 100.0,
      "regime_state": "TRANSITION SPIKE!"
    },
    {
      "pitch": 60,
      "velocity": 83,
      "onset": 128447,
      "duration": 57,
      "id_score": 163.39,
      "voice_tag": "Voice 1 (Liquid / Melody)",
      "hue": 328.7,
      "sat": 86.6,
      "regime_state": "Stable"
    },
    {
      "pitch": 68,
      "velocity": 90,
      "onset": 128447,
      "duration": 46,
      "id_score": 0.0,
      "voice_tag": "Background (Solid / Harmony)",
      "hue": 328.7,
      "sat": 86.6,
      "regime_state": "Stable"
    },
    {
      "pitch": 76,
      "velocity": 75,
      "onset": 128458,
      "duration": 52,
      "id_score": 544.02,
      "voice_tag": "Voice 1 (Liquid / Melody)",
      "hue": 60.0,
      "sat": 100.0,
      "regime_state": "Stable"
    },
    {
      "pitch": 66,
      "velocity": 94,
      "onset": 128854,
      "duration": 52,
      "id_score": 20.56,
      "voice_tag": "Background (Solid / Harmony)",
      "hue": 210.0,
      "sat": 100.0,
      "regime_state": "TRANSITION SPIKE!"
    },
    {
      "pitch": 76,
      "velocity": 92,
      "onset": 128859,
      "duration": 46,
      "id_score": 1835.17,
      "voice_tag": "Voice 1 (Liquid / Melody)",
      "hue": 60.0,
      "sat": 100.0,
      "regime_state": "Undefined / Gray Void"
    },
    {
      "pitch": 69,
      "velocity": 88,
      "onset": 128869,
      "duration": 41,
      "id_score": 557.8,
      "voice_tag": "Voice 1 (Liquid / Melody)",
      "hue": 90.0,
      "sat": 100.0,
      "regime_state": "Stable"
    },
    {
      "pitch": 60,
      "velocity": 87,
      "onset": 128874,
      "duration": 41,
      "id_score": 1233.07,
      "voice_tag": "Voice 1 (Liquid / Melody)",
      "hue": 0.0,
      "sat": 100.0,
      "regime_state": "Stable"
    },
    {
      "pitch": 76,
      "velocity": 98,
      "onset": 129281,
      "duration": 197,
      "id_score": 38.42,
      "voice_tag": "Background (Solid / Harmony)",
      "hue": 60.0,
      "sat": 100.0,
      "regime_state": "TRANSITION SPIKE!"
    },
    {
      "pitch": 62,
      "velocity": 80,
      "onset": 129307,
      "duration": 1005,
      "id_score": 350.49,
      "voice_tag": "Voice 1 (Liquid / Melody)",
      "hue": 134.4,
      "sat": 96.6,
      "regime_state": "Stable"
    },
    {
      "pitch": 71,
      "velocity": 74,
      "onset": 129307,
      "duration": 937,
      "id_score": 0.0,
      "voice_tag": "Background (Solid / Harmony)",
      "hue": 134.4,
      "sat": 96.6,
      "regime_state": "Stable"
    },
    {
      "pitch": 67,
      "velocity": 70,
      "onset": 129312,
      "duration": 968,
      "id_score": 492.39,
      "voice_tag": "Voice 1 (Liquid / Melody)",
      "hue": 30.0,
      "sat": 100.0,
      "regime_state": "Stable"
    },
    {
      "pitch": 55,
      "velocity": 70,
      "onset": 129317,
      "duration": 979,
      "id_score": 1322.83,
      "voice_tag": "Voice 1 (Liquid / Melody)",
      "hue": 30.0,
      "sat": 100.0,
      "regime_state": "Stable"
    },
    {
      "pitch": 74,
      "velocity": 79,
      "onset": 129453,
      "duration": 130,
      "id_score": 107.18,
      "voice_tag": "Voice 1 (Liquid / Melody)",
      "hue": 120.0,
      "sat": 100.0,
      "regime_state": "TRANSITION SPIKE!"
    },
    {
      "pitch": 72,
      "velocity": 85,
      "onset": 129588,
      "duration": 57,
      "id_score": 11.9,
      "voice_tag": "Background (Solid / Harmony)",
      "hue": 0.0,
      "sat": 100.0,
      "regime_state": "Stable"
    },
    {
      "pitch": 74,
      "velocity": 88,
      "onset": 129682,
      "duration": 572,
      "id_score": 18.18,
      "voice_tag": "Background (Solid / Harmony)",
      "hue": 120.0,
      "sat": 100.0,
      "regime_state": "TRANSITION SPIKE!"
    },
    {
      "pitch": 57,
      "velocity": 84,
      "onset": 130869,
      "duration": 62,
      "id_score": 9.47,
      "voice_tag": "Background (Solid / Harmony)",
      "hue": 90.0,
      "sat": 100.0,
      "regime_state": "TRANSITION SPIKE!"
    },
    {
      "pitch": 60,
      "velocity": 67,
      "onset": 130874,
      "duration": 62,
      "id_score": 316.54,
      "voice_tag": "Voice 1 (Liquid / Melody)",
      "hue": 21.3,
      "sat": 87.6,
      "regime_state": "Stable"
    },
    {
      "pitch": 64,
      "velocity": 86,
      "onset": 130874,
      "duration": 52,
      "id_score": 0.0,
      "voice_tag": "Background (Solid / Harmony)",
      "hue": 21.3,
      "sat": 87.6,
      "regime_state": "Stable"
    },
    {
      "pitch": 72,
      "velocity": 81,
      "onset": 130874,
      "duration": 57,
      "id_score": 0.0,
      "voice_tag": "Background (Solid / Harmony)",
      "hue": 21.3,
      "sat": 87.6,
      "regime_state": "Stable"
    },
    {
      "pitch": 62,
      "velocity": 96,
      "onset": 131276,
      "duration": 62,
      "id_score": 19.43,
      "voice_tag": "Background (Solid / Harmony)",
      "hue": 120.0,
      "sat": 100.0,
      "regime_state": "TRANSITION SPIKE!"
    },
    {
      "pitch": 65,
      "velocity": 91,
      "onset": 131281,
      "duration": 62,
      "id_score": 465.75,
      "voice_tag": "Voice 1 (Liquid / Melody)",
      "hue": 330.0,
      "sat": 100.0,
      "regime_state": "Undefined / Gray Void"
    },
    {
      "pitch": 57,
      "velocity": 86,
      "onset": 131296,
      "duration": 62,
      "id_score": 361.15,
      "voice_tag": "Voice 1 (Liquid / Melody)",
      "hue": 45.3,
      "sat": 70.7,
      "regime_state": "Stable"
    },
    {
      "pitch": 72,
      "velocity": 85,
      "onset": 131296,
      "duration": 62,
      "id_score": 0.0,
      "voice_tag": "Background (Solid / Harmony)",
      "hue": 45.3,
      "sat": 70.7,
      "regime_state": "Stable"
    },
    {
      "pitch": 63,
      "velocity": 103,
      "onset": 131703,
      "duration": 52,
      "id_score": 18.83,
      "voice_tag": "Background (Solid / Harmony)",
      "hue": 270.0,
      "sat": 100.0,
      "regime_state": "TRANSITION SPIKE!"
    },
    {
      "pitch": 66,
      "velocity": 94,
      "onset": 131708,
      "duration": 52,
      "id_score": 488.5,
      "voice_tag": "Voice 1 (Liquid / Melody)",
      "hue": 210.0,
      "sat": 100.0,
      "regime_state": "Stable"
    },
    {
      "pitch": 72,
      "velocity": 86,
      "onset": 131713,
      "duration": 52,
      "id_score": 975.12,
      "voice_tag": "Voice 1 (Liquid / Melody)",
      "hue": 0.0,
      "sat": 100.0,
      "regime_state": "Stable"
    },
    {
      "pitch": 57,
      "velocity": 95,
      "onset": 131718,
      "duration": 41,
      "id_score": 2244.09,
      "voice_tag": "Voice 1 (Liquid / Melody)",
      "hue": 90.0,
      "sat": 100.0,
      "regime_state": "Undefined / Gray Void"
    },
    {
      "pitch": 72,
      "velocity": 104,
      "onset": 132182,
      "duration": 265,
      "id_score": 31.77,
      "voice_tag": "Background (Solid / Harmony)",
      "hue": 0.0,
      "sat": 100.0,
      "regime_state": "TRANSITION SPIKE!"
    },
    {
      "pitch": 64,
      "velocity": 98,
      "onset": 132192,
      "duration": 1140,
      "id_score": 658.48,
      "voice_tag": "Voice 1 (Liquid / Melody)",
      "hue": 60.0,
      "sat": 100.0,
      "regime_state": "Stable"
    },
    {
      "pitch": 59,
      "velocity": 86,
      "onset": 132203,
      "duration": 1187,
      "id_score": 307.8,
      "voice_tag": "Voice 1 (Liquid / Melody)",
      "hue": 90.0,
      "sat": 50.0,
      "regime_state": "Stable"
    },
    {
      "pitch": 67,
      "velocity": 86,
      "onset": 132203,
      "duration": 67,
      "id_score": 0.0,
      "voice_tag": "Background (Solid / Harmony)",
      "hue": 90.0,
      "sat": 50.0,
      "regime_state": "Stable"
    },
    {
      "pitch": 52,
      "velocity": 75,
      "onset": 132208,
      "duration": 1114,
      "id_score": 1771.65,
      "voice_tag": "Voice 1 (Liquid / Melody)",
      "hue": 60.0,
      "sat": 100.0,
      "regime_state": "Stable"
    },
    {
      "pitch": 67,
      "velocity": 31,
      "onset": 132343,
      "duration": 947,
      "id_score": 30.29,
      "voice_tag": "Background (Solid / Harmony)",
      "hue": 30.0,
      "sat": 100.0,
      "regime_state": "TRANSITION SPIKE!"
    },
    {
      "pitch": 71,
      "velocity": 93,
      "onset": 132390,
      "duration": 130,
      "id_score": 73.75,
      "voice_tag": "Voice 1 (Liquid / Melody)",
      "hue": 150.0,
      "sat": 100.0,
      "regime_state": "Stable"
    },
    {
      "pitch": 69,
      "velocity": 86,
      "onset": 132531,
      "duration": 67,
      "id_score": 11.05,
      "voice_tag": "Background (Solid / Harmony)",
      "hue": 90.0,
      "sat": 100.0,
      "regime_state": "TRANSITION SPIKE!"
    },
    {
      "pitch": 71,
      "velocity": 86,
      "onset": 132614,
      "duration": 713,
      "id_score": 19.31,
      "voice_tag": "Background (Solid / Harmony)",
      "hue": 150.0,
      "sat": 100.0,
      "regime_state": "Stable"
    },
    {
      "pitch": 71,
      "velocity": 80,
      "onset": 133755,
      "duration": 161,
      "id_score": 0.0,
      "voice_tag": "Background (Solid / Harmony)",
      "hue": 150.0,
      "sat": 100.0,
      "regime_state": "TRANSITION SPIKE!"
    },
    {
      "pitch": 60,
      "velocity": 56,
      "onset": 133776,
      "duration": 963,
      "id_score": 230.97,
      "voice_tag": "Voice 1 (Liquid / Melody)",
      "hue": 0.0,
      "sat": 100.0,
      "regime_state": "Stable"
    },
    {
      "pitch": 53,
      "velocity": 64,
      "onset": 133781,
      "duration": 989,
      "id_score": 705.51,
      "voice_tag": "Voice 1 (Liquid / Melody)",
      "hue": 330.0,
      "sat": 100.0,
      "regime_state": "Undefined / Gray Void"
    },
    {
      "pitch": 65,
      "velocity": 46,
      "onset": 133791,
      "duration": 1000,
      "id_score": 470.87,
      "voice_tag": "Voice 1 (Liquid / Melody)",
      "hue": 330.0,
      "sat": 100.0,
      "regime_state": "Stable"
    },
    {
      "pitch": 69,
      "velocity": 62,
      "onset": 133932,
      "duration": 140,
      "id_score": 15.93,
      "voice_tag": "Background (Solid / Harmony)",
      "hue": 90.0,
      "sat": 100.0,
      "regime_state": "TRANSITION SPIKE!"
    },
    {
      "pitch": 67,
      "velocity": 72,
      "onset": 134078,
      "duration": 140,
      "id_score": 8.67,
      "voice_tag": "Background (Solid / Harmony)",
      "hue": 30.0,
      "sat": 100.0,
      "regime_state": "Stable"
    },
    {
      "pitch": 69,
      "velocity": 60,
      "onset": 134229,
      "duration": 531,
      "id_score": 7.2,
      "voice_tag": "Background (Solid / Harmony)",
      "hue": 90.0,
      "sat": 100.0,
      "regime_state": "TRANSITION SPIKE!"
    },
    {
      "pitch": 55,
      "velocity": 57,
      "onset": 135218,
      "duration": 1437,
      "id_score": 6.35,
      "voice_tag": "Background (Solid / Harmony)",
      "hue": 30.0,
      "sat": 100.0,
      "regime_state": "TRANSITION SPIKE!"
    },
    {
      "pitch": 48,
      "velocity": 53,
      "onset": 135223,
      "duration": 1395,
      "id_score": 584.25,
      "voice_tag": "Voice 1 (Liquid / Melody)",
      "hue": 0.0,
      "sat": 100.0,
      "regime_state": "Stable"
    },
    {
      "pitch": 60,
      "velocity": 51,
      "onset": 135229,
      "duration": 1364,
      "id_score": 803.15,
      "voice_tag": "Voice 1 (Liquid / Melody)",
      "hue": 343.0,
      "sat": 96.6,
      "regime_state": "Stable"
    },
    {
      "pitch": 65,
      "velocity": 66,
      "onset": 135229,
      "duration": 151,
      "id_score": 0.0,
      "voice_tag": "Background (Solid / Harmony)",
      "hue": 343.0,
      "sat": 96.6,
      "regime_state": "Stable"
    },
    {
      "pitch": 67,
      "velocity": 54,
      "onset": 135234,
      "duration": 1598,
      "id_score": 189.92,
      "voice_tag": "Voice 1 (Liquid / Melody)",
      "hue": 30.0,
      "sat": 100.0,
      "regime_state": "Stable"
    },
    {
      "pitch": 64,
      "velocity": 68,
      "onset": 135427,
      "duration": 177,
      "id_score": 8.88,
      "voice_tag": "Background (Solid / Harmony)",
      "hue": 60.0,
      "sat": 100.0,
      "regime_state": "TRANSITION SPIKE!"
    },
    {
      "pitch": 62,
      "velocity": 69,
      "onset": 135609,
      "duration": 135,
      "id_score": 6.17,
      "voice_tag": "Background (Solid / Harmony)",
      "hue": 120.0,
      "sat": 100.0,
      "regime_state": "TRANSITION SPIKE!"
    },
    {
      "pitch": 64,
      "velocity": 60,
      "onset": 135796,
      "duration": 859,
      "id_score": 5.39,
      "voice_tag": "Background (Solid / Harmony)",
      "hue": 60.0,
      "sat": 100.0,
      "regime_state": "TRANSITION SPIKE!"
    },
    {
      "pitch": 57,
      "velocity": 93,
      "onset": 136895,
      "duration": 52,
      "id_score": 4.66,
      "voice_tag": "Background (Solid / Harmony)",
      "hue": 44.4,
      "sat": 70.7,
      "regime_state": "TRANSITION SPIKE!"
    },
    {
      "pitch": 60,
      "velocity": 95,
      "onset": 136895,
      "duration": 57,
      "id_score": 0.0,
      "voice_tag": "Background (Solid / Harmony)",
      "hue": 44.4,
      "sat": 70.7,
      "regime_state": "TRANSITION SPIKE!"
    },
    {
      "pitch": 50,
      "velocity": 82,
      "onset": 136901,
      "duration": 83,
      "id_score": 1076.12,
      "voice_tag": "Voice 1 (Liquid / Melody)",
      "hue": 37.5,
      "sat": 26.1,
      "regime_state": "Stable"
    },
    {
      "pitch": 65,
      "velocity": 88,
      "onset": 136901,
      "duration": 192,
      "id_score": 0.0,
      "voice_tag": "Background (Solid / Harmony)",
      "hue": 37.5,
      "sat": 26.1,
      "regime_state": "Stable"
    },
    {
      "pitch": 52,
      "velocity": 81,
      "onset": 137270,
      "duration": 62,
      "id_score": 22.47,
      "voice_tag": "Background (Solid / Harmony)",
      "hue": 60.0,
      "sat": 100.0,
      "regime_state": "TRANSITION SPIKE!"
    },
    {
      "pitch": 57,
      "velocity": 83,
      "onset": 137286,
      "duration": 52,
      "id_score": 204.23,
      "voice_tag": "Voice 1 (Liquid / Melody)",
      "hue": 58.7,
      "sat": 86.6,
      "regime_state": "Stable"
    },
    {
      "pitch": 67,
      "velocity": 90,
      "onset": 137286,
      "duration": 83,
      "id_score": 0.0,
      "voice_tag": "Background (Solid / Harmony)",
      "hue": 58.7,
      "sat": 86.6,
      "regime_state": "Stable"
    },
    {
      "pitch": 60,
      "velocity": 75,
      "onset": 137307,
      "duration": 57,
      "id_score": 196.85,
      "voice_tag": "Voice 1 (Liquid / Melody)",
      "hue": 0.0,
      "sat": 100.0,
      "regime_state": "Stable"
    },
    {
      "pitch": 57,
      "velocity": 75,
      "onset": 137489,
      "duration": 78,
      "id_score": 9.73,
      "voice_tag": "Background (Solid / Harmony)",
      "hue": 90.0,
      "sat": 100.0,
      "regime_state": "TRANSITION SPIKE!"
    },
    {
      "pitch": 53,
      "velocity": 83,
      "onset": 137500,
      "duration": 62,
      "id_score": 237.65,
      "voice_tag": "Voice 1 (Liquid / Melody)",
      "hue": 30.0,
      "sat": 50.0,
      "regime_state": "Stable"
    },
    {
      "pitch": 69,
      "velocity": 83,
      "onset": 137500,
      "duration": 83,
      "id_score": 0.0,
      "voice_tag": "Background (Solid / Harmony)",
      "hue": 30.0,
      "sat": 50.0,
      "regime_state": "Stable"
    },
    {
      "pitch": 60,
      "velocity": 48,
      "onset": 137510,
      "duration": 67,
      "id_score": 340.16,
      "voice_tag": "Voice 1 (Liquid / Melody)",
      "hue": 0.0,
      "sat": 100.0,
      "regime_state": "Stable"
    },
    {
      "pitch": 50,
      "velocity": 98,
      "onset": 137734,
      "duration": 57,
      "id_score": 34.45,
      "voice_tag": "Background (Solid / Harmony)",
      "hue": 120.0,
      "sat": 100.0,
      "regime_state": "TRANSITION SPIKE!"
    },
    {
      "pitch": 57,
      "velocity": 101,
      "onset": 137744,
      "duration": 41,
      "id_score": 556.69,
      "voice_tag": "Voice 1 (Liquid / Melody)",
      "hue": 28.5,
      "sat": 50.0,
      "regime_state": "Stable"
    },
    {
      "pitch": 65,
      "velocity": 104,
      "onset": 137744,
      "duration": 57,
      "id_score": 0.0,
      "voice_tag": "Background (Solid / Harmony)",
      "hue": 28.5,
      "sat": 50.0,
      "regime_state": "Stable"
    },
    {
      "pitch": 60,
      "velocity": 95,
      "onset": 137750,
      "duration": 46,
      "id_score": 623.36,
      "voice_tag": "Voice 1 (Liquid / Melody)",
      "hue": 0.0,
      "sat": 100.0,
      "regime_state": "Stable"
    },
    {
      "pitch": 53,
      "velocity": 101,
      "onset": 138182,
      "duration": 41,
      "id_score": 12.89,
      "voice_tag": "Background (Solid / Harmony)",
      "hue": 78.0,
      "sat": 48.6,
      "regime_state": "TRANSITION SPIKE!"
    },
    {
      "pitch": 57,
      "velocity": 105,
      "onset": 138182,
      "duration": 46,
      "id_score": 0.0,
      "voice_tag": "Background (Solid / Harmony)",
      "hue": 78.0,
      "sat": 48.6,
      "regime_state": "TRANSITION SPIKE!"
    },
    {
      "pitch": 62,
      "velocity": 111,
      "onset": 138182,
      "duration": 93,
      "id_score": 0.0,
      "voice_tag": "Background (Solid / Harmony)",
      "hue": 78.0,
      "sat": 48.6,
      "regime_state": "TRANSITION SPIKE!"
    },
    {
      "pitch": 59,
      "velocity": 97,
      "onset": 138192,
      "duration": 36,
      "id_score": 229.13,
      "voice_tag": "Voice 1 (Liquid / Melody)",
      "hue": 150.0,
      "sat": 100.0,
      "regime_state": "Stable"
    },
    {
      "pitch": 64,
      "velocity": 72,
      "onset": 138833,
      "duration": 1307,
      "id_score": 4.72,
      "voice_tag": "Background (Solid / Harmony)",
      "hue": 60.0,
      "sat": 100.0,
      "regime_state": "TRANSITION SPIKE!"
    },
    {
      "pitch": 59,
      "velocity": 43,
      "onset": 138854,
      "duration": 994,
      "id_score": 80.61,
      "voice_tag": "Voice 1 (Liquid / Melody)",
      "hue": 150.0,
      "sat": 100.0,
      "regime_state": "Stable"
    },
    {
      "pitch": 52,
      "velocity": 48,
      "onset": 138859,
      "duration": 1171,
      "id_score": 529.13,
      "voice_tag": "Voice 1 (Liquid / Melody)",
      "hue": 4.3,
      "sat": 50.1,
      "regime_state": "Stable"
    },
    {
      "pitch": 56,
      "velocity": 44,
      "onset": 138859,
      "duration": 1244,
      "id_score": 0.0,
      "voice_tag": "Background (Solid / Harmony)",
      "hue": 4.3,
      "sat": 50.1,
      "regime_state": "Stable"
    },
    {
      "pitch": 52,
      "velocity": 43,
      "onset": 141333,
      "duration": 3296,
      "id_score": 0.55,
      "voice_tag": "Background (Solid / Harmony)",
      "hue": 60.0,
      "sat": 100.0,
      "regime_state": "TRANSITION SPIKE!"
    },
    {
      "pitch": 45,
      "velocity": 39,
      "onset": 141343,
      "duration": 3281,
      "id_score": 214.96,
      "voice_tag": "Voice 1 (Liquid / Melody)",
      "hue": 90.0,
      "sat": 100.0,
      "regime_state": "Stable"
    },
    {
      "pitch": 69,
      "velocity": 67,
      "onset": 141354,
      "duration": 1015,
      "id_score": 1323.69,
      "voice_tag": "Voice 1 (Liquid / Melody)",
      "hue": 90.0,
      "sat": 100.0,
      "regime_state": "Stable"
    },
    {
      "pitch": 61,
      "velocity": 61,
      "onset": 141359,
      "duration": 1484,
      "id_score": 781.31,
      "voice_tag": "Voice 1 (Liquid / Melody)",
      "hue": 180.0,
      "sat": 100.0,
      "regime_state": "Stable"
    },
    {
      "pitch": 71,
      "velocity": 51,
      "onset": 142489,
      "duration": 270,
      "id_score": 4.21,
      "voice_tag": "Background (Solid / Harmony)",
      "hue": 150.0,
      "sat": 100.0,
      "regime_state": "TRANSITION SPIKE!"
    },
    {
      "pitch": 68,
      "velocity": 73,
      "onset": 142760,
      "duration": 62,
      "id_score": 7.21,
      "voice_tag": "Background (Solid / Harmony)",
      "hue": 300.0,
      "sat": 100.0,
      "regime_state": "TRANSITION SPIKE!"
    },
    {
      "pitch": 68,
      "velocity": 77,
      "onset": 143046,
      "duration": 93,
      "id_score": 0.0,
      "voice_tag": "Background (Solid / Harmony)",
      "hue": 300.0,
      "sat": 100.0,
      "regime_state": "TRANSITION SPIKE!"
    },
    {
      "pitch": 62,
      "velocity": 76,
      "onset": 143088,
      "duration": 1447,
      "id_score": 88.34,
      "voice_tag": "Voice 1 (Liquid / Melody)",
      "hue": 120.0,
      "sat": 100.0,
      "regime_state": "Undefined / Gray Void"
    },
    {
      "pitch": 66,
      "velocity": 85,
      "onset": 143114,
      "duration": 265,
      "id_score": 113.26,
      "voice_tag": "Voice 1 (Liquid / Melody)",
      "hue": 210.0,
      "sat": 100.0,
      "regime_state": "Stable"
    },
    {
      "pitch": 64,
      "velocity": 82,
      "onset": 143411,
      "duration": 62,
      "id_score": 4.64,
      "voice_tag": "Background (Solid / Harmony)",
      "hue": 60.0,
      "sat": 100.0,
      "regime_state": "Undefined / Gray Void"
    },
    {
      "pitch": 64,
      "velocity": 69,
      "onset": 143833,
      "duration": 776,
      "id_score": 0.0,
      "voice_tag": "Background (Solid / Harmony)",
      "hue": 60.0,
      "sat": 100.0,
      "regime_state": "TRANSITION SPIKE!"
    },
    {
      "pitch": 52,
      "velocity": 56,
      "onset": 145088,
      "duration": 3291,
      "id_score": 4.22,
      "voice_tag": "Background (Solid / Harmony)",
      "hue": 77.2,
      "sat": 96.7,
      "regime_state": "TRANSITION SPIKE!"
    },
    {
      "pitch": 69,
      "velocity": 75,
      "onset": 145088,
      "duration": 510,
      "id_score": 0.0,
      "voice_tag": "Background (Solid / Harmony)",
      "hue": 77.2,
      "sat": 96.7,
      "regime_state": "TRANSITION SPIKE!"
    },
    {
      "pitch": 45,
      "velocity": 51,
      "onset": 145093,
      "duration": 3276,
      "id_score": 1927.56,
      "voice_tag": "Voice 1 (Liquid / Melody)",
      "hue": 143.5,
      "sat": 71.5,
      "regime_state": "Stable"
    },
    {
      "pitch": 61,
      "velocity": 69,
      "onset": 145093,
      "duration": 1447,
      "id_score": 0.0,
      "voice_tag": "Background (Solid / Harmony)",
      "hue": 143.5,
      "sat": 71.5,
      "regime_state": "Stable"
    },
    {
      "pitch": 71,
      "velocity": 74,
      "onset": 145677,
      "duration": 286,
      "id_score": 11.81,
      "voice_tag": "Background (Solid / Harmony)",
      "hue": 150.0,
      "sat": 100.0,
      "regime_state": "TRANSITION SPIKE!"
    },
    {
      "pitch": 73,
      "velocity": 84,
      "onset": 145947,
      "duration": 390,
      "id_score": 5.96,
      "voice_tag": "Background (Solid / Harmony)",
      "hue": 180.0,
      "sat": 100.0,
      "regime_state": "TRANSITION SPIKE!"
    },
    {
      "pitch": 69,
      "velocity": 66,
      "onset": 146244,
      "duration": 229,
      "id_score": 8.05,
      "voice_tag": "Background (Solid / Harmony)",
      "hue": 90.0,
      "sat": 100.0,
      "regime_state": "TRANSITION SPIKE!"
    },
    {
      "pitch": 66,
      "velocity": 82,
      "onset": 146468,
      "duration": 62,
      "id_score": 9.51,
      "voice_tag": "Background (Solid / Harmony)",
      "hue": 210.0,
      "sat": 100.0,
      "regime_state": "TRANSITION SPIKE!"
    },
    {
      "pitch": 68,
      "velocity": 88,
      "onset": 146781,
      "duration": 62,
      "id_score": 5.02,
      "voice_tag": "Background (Solid / Harmony)",
      "hue": 300.0,
      "sat": 100.0,
      "regime_state": "TRANSITION SPIKE!"
    },
    {
      "pitch": 62,
      "velocity": 85,
      "onset": 146802,
      "duration": 1484,
      "id_score": 197.6,
      "voice_tag": "Voice 1 (Liquid / Melody)",
      "hue": 120.0,
      "sat": 100.0,
      "regime_state": "Undefined / Gray Void"
    },
    {
      "pitch": 66,
      "velocity": 97,
      "onset": 146828,
      "duration": 312,
      "id_score": 129.25,
      "voice_tag": "Voice 1 (Liquid / Melody)",
      "hue": 210.0,
      "sat": 100.0,
      "regime_state": "Stable"
    },
    {
      "pitch": 64,
      "velocity": 78,
      "onset": 147161,
      "duration": 57,
      "id_score": 3.93,
      "voice_tag": "Background (Solid / Harmony)",
      "hue": 60.0,
      "sat": 100.0,
      "regime_state": "TRANSITION SPIKE!"
    },
    {
      "pitch": 64,
      "velocity": 83,
      "onset": 147572,
      "duration": 760,
      "id_score": 0.0,
      "voice_tag": "Background (Solid / Harmony)",
      "hue": 60.0,
      "sat": 100.0,
      "regime_state": "Regime Locked"
    },
    {
      "pitch": 69,
      "velocity": 76,
      "onset": 148744,
      "duration": 135,
      "id_score": 2.94,
      "voice_tag": "Background (Solid / Harmony)",
      "hue": 90.0,
      "sat": 100.0,
      "regime_state": "TRANSITION SPIKE!"
    },
    {
      "pitch": 45,
      "velocity": 66,
      "onset": 148828,
      "duration": 2692,
      "id_score": 148.48,
      "voice_tag": "Voice 1 (Liquid / Melody)",
      "hue": 74.3,
      "sat": 96.6,
      "regime_state": "Stable"
    },
    {
      "pitch": 52,
      "velocity": 72,
      "onset": 148828,
      "duration": 2692,
      "id_score": 0.0,
      "voice_tag": "Background (Solid / Harmony)",
      "hue": 74.3,
      "sat": 96.6,
      "regime_state": "Stable"
    },
    {
      "pitch": 66,
      "velocity": 89,
      "onset": 148875,
      "duration": 83,
      "id_score": 229.62,
      "voice_tag": "Voice 1 (Liquid / Melody)",
      "hue": 210.0,
      "sat": 100.0,
      "regime_state": "Stable"
    },
    {
      "pitch": 61,
      "velocity": 87,
      "onset": 148890,
      "duration": 2609,
      "id_score": 232.15,
      "voice_tag": "Voice 1 (Liquid / Melody)",
      "hue": 180.0,
      "sat": 100.0,
      "regime_state": "Stable"
    },
    {
      "pitch": 64,
      "velocity": 80,
      "onset": 149677,
      "duration": 1817,
      "id_score": 2.56,
      "voice_tag": "Background (Solid / Harmony)",
      "hue": 60.0,
      "sat": 100.0,
      "regime_state": "TRANSITION SPIKE!"
    },
    {
      "pitch": 69,
      "velocity": 74,
      "onset": 152630,
      "duration": 281,
      "id_score": 1.13,
      "voice_tag": "Background (Solid / Harmony)",
      "hue": 90.0,
      "sat": 100.0,
      "regime_state": "TRANSITION SPIKE!"
    },
    {
      "pitch": 45,
      "velocity": 59,
      "onset": 152890,
      "duration": 4255,
      "id_score": 42.88,
      "voice_tag": "Background (Solid / Harmony)",
      "hue": 90.0,
      "sat": 100.0,
      "regime_state": "TRANSITION SPIKE!"
    },
    {
      "pitch": 52,
      "velocity": 53,
      "onset": 152901,
      "duration": 4130,
      "id_score": 265.57,
      "voice_tag": "Voice 1 (Liquid / Melody)",
      "hue": 5.6,
      "sat": 71.7,
      "regime_state": "Stable"
    },
    {
      "pitch": 65,
      "velocity": 74,
      "onset": 152901,
      "duration": 78,
      "id_score": 0.0,
      "voice_tag": "Background (Solid / Harmony)",
      "hue": 5.6,
      "sat": 71.7,
      "regime_state": "Stable"
    },
    {
      "pitch": 60,
      "velocity": 75,
      "onset": 152916,
      "duration": 5510,
      "id_score": 196.85,
      "voice_tag": "Voice 1 (Liquid / Melody)",
      "hue": 0.0,
      "sat": 100.0,
      "regime_state": "Stable"
    },
    {
      "pitch": 64,
      "velocity": 83,
      "onset": 153817,
      "duration": 4572,
      "id_score": 3.09,
      "voice_tag": "Background (Solid / Harmony)",
      "hue": 60.0,
      "sat": 100.0,
      "regime_state": "TRANSITION SPIKE!"
    },
    {
      "pitch": 33,
      "velocity": 84,
      "onset": 158067,
      "duration": 109,
      "id_score": 4.82,
      "voice_tag": "Background (Solid / Harmony)",
      "hue": 90.0,
      "sat": 100.0,
      "regime_state": "TRANSITION SPIKE!"
    }
  ],
  "regimes": [
    {
      "start_time": 4927,
      "end_time": 8104,
      "state": "TRANSITION SPIKE!",
      "hue": 0.0,
      "saturation": 100.0,
      "v_vec": 100.0
    },
    {
      "start_time": 8104,
      "end_time": 8515,
      "state": "Stable",
      "hue": 28.1,
      "saturation": 86.7,
      "v_vec": 47.1
    },
    {
      "start_time": 8515,
      "end_time": 8520,
      "state": "TRANSITION SPIKE!",
      "hue": 60.0,
      "saturation": 100.0,
      "v_vec": 52.9
    },
    {
      "start_time": 8520,
      "end_time": 8953,
      "state": "Stable",
      "hue": 27.3,
      "saturation": 86.7,
      "v_vec": 54.1
    },
    {
      "start_time": 8953,
      "end_time": 9859,
      "state": "TRANSITION SPIKE!",
      "hue": 0.0,
      "saturation": 100.0,
      "v_vec": 97.8
    },
    {
      "start_time": 9859,
      "end_time": 10291,
      "state": "Stable",
      "hue": 26.4,
      "saturation": 86.8,
      "v_vec": 44.6
    },
    {
      "start_time": 10291,
      "end_time": 10296,
      "state": "TRANSITION SPIKE!",
      "hue": 90.0,
      "saturation": 100.0,
      "v_vec": 99.0
    },
    {
      "start_time": 10296,
      "end_time": 10723,
      "state": "Stable",
      "hue": 72.6,
      "saturation": 96.7,
      "v_vec": 29.9
    },
    {
      "start_time": 10723,
      "end_time": 10921,
      "state": "Undefined / Gray Void",
      "hue": 7.7,
      "saturation": 3.0,
      "v_vec": 95.5
    },
    {
      "start_time": 10921,
      "end_time": 11151,
      "state": "TRANSITION SPIKE!",
      "hue": 319.8,
      "saturation": 88.0,
      "v_vec": 32.2
    },
    {
      "start_time": 11151,
      "end_time": 11557,
      "state": "Stable",
      "hue": 357.1,
      "saturation": 43.8,
      "v_vec": 59.4
    },
    {
      "start_time": 11557,
      "end_time": 11562,
      "state": "TRANSITION SPIKE!",
      "hue": 90.0,
      "saturation": 100.0,
      "v_vec": 111.2
    },
    {
      "start_time": 11562,
      "end_time": 12005,
      "state": "Regime Locked",
      "hue": 90.0,
      "saturation": 100.0,
      "v_vec": 0.0
    },
    {
      "start_time": 12005,
      "end_time": 12026,
      "state": "TRANSITION SPIKE!",
      "hue": 150.0,
      "saturation": 100.0,
      "v_vec": 100.0
    },
    {
      "start_time": 12026,
      "end_time": 12223,
      "state": "Stable",
      "hue": 118.9,
      "saturation": 83.4,
      "v_vec": 26.8
    },
    {
      "start_time": 12223,
      "end_time": 12807,
      "state": "Undefined / Gray Void",
      "hue": 187.2,
      "saturation": 14.2,
      "v_vec": 54.5
    },
    {
      "start_time": 12807,
      "end_time": 12828,
      "state": "TRANSITION SPIKE!",
      "hue": 90.0,
      "saturation": 100.0,
      "v_vec": 102.7
    },
    {
      "start_time": 12828,
      "end_time": 12843,
      "state": "Regime Locked",
      "hue": 90.0,
      "saturation": 100.0,
      "v_vec": 0.0
    },
    {
      "start_time": 12843,
      "end_time": 13286,
      "state": "Stable",
      "hue": 138.5,
      "saturation": 51.0,
      "v_vec": 76.4
    },
    {
      "start_time": 13286,
      "end_time": 13291,
      "state": "TRANSITION SPIKE!",
      "hue": 60.0,
      "saturation": 100.0,
      "v_vec": 102.8
    },
    {
      "start_time": 13291,
      "end_time": 13729,
      "state": "Stable",
      "hue": 43.7,
      "saturation": 89.1,
      "v_vec": 51.4
    },
    {
      "start_time": 13729,
      "end_time": 13734,
      "state": "TRANSITION SPIKE!",
      "hue": 0.0,
      "saturation": 100.0,
      "v_vec": 71.1
    },
    {
      "start_time": 13734,
      "end_time": 14197,
      "state": "Stable",
      "hue": 26.9,
      "saturation": 86.7,
      "v_vec": 45.2
    },
    {
      "start_time": 14197,
      "end_time": 14640,
      "state": "TRANSITION SPIKE!",
      "hue": 0.0,
      "saturation": 100.0,
      "v_vec": 98.4
    },
    {
      "start_time": 14640,
      "end_time": 15031,
      "state": "Stable",
      "hue": 26.0,
      "saturation": 86.8,
      "v_vec": 43.9
    },
    {
      "start_time": 15031,
      "end_time": 15046,
      "state": "TRANSITION SPIKE!",
      "hue": 0.0,
      "saturation": 100.0,
      "v_vec": 43.9
    },
    {
      "start_time": 15046,
      "end_time": 15468,
      "state": "Stable",
      "hue": 25.1,
      "saturation": 86.9,
      "v_vec": 42.6
    },
    {
      "start_time": 15468,
      "end_time": 15895,
      "state": "TRANSITION SPIKE!",
      "hue": 73.6,
      "saturation": 96.6,
      "v_vec": 100.9
    },
    {
      "start_time": 15895,
      "end_time": 15916,
      "state": "Undefined / Gray Void",
      "hue": 144.2,
      "saturation": 26.2,
      "v_vec": 91.3
    },
    {
      "start_time": 15916,
      "end_time": 16328,
      "state": "TRANSITION SPIKE!",
      "hue": 316.9,
      "saturation": 88.9,
      "v_vec": 42.6
    },
    {
      "start_time": 16328,
      "end_time": 16552,
      "state": "Stable",
      "hue": 333.5,
      "saturation": 69.1,
      "v_vec": 30.1
    },
    {
      "start_time": 16552,
      "end_time": 17250,
      "state": "TRANSITION SPIKE!",
      "hue": 123.4,
      "saturation": 86.8,
      "v_vec": 51.2
    },
    {
      "start_time": 17250,
      "end_time": 17265,
      "state": "Regime Locked",
      "hue": 122.3,
      "saturation": 90.6,
      "v_vec": 4.2
    },
    {
      "start_time": 17265,
      "end_time": 17463,
      "state": "Stable",
      "hue": 115.0,
      "saturation": 85.9,
      "v_vec": 12.1
    },
    {
      "start_time": 17463,
      "end_time": 17656,
      "state": "Undefined / Gray Void",
      "hue": 132.7,
      "saturation": 27.9,
      "v_vec": 60.0
    },
    {
      "start_time": 17656,
      "end_time": 17661,
      "state": "TRANSITION SPIKE!",
      "hue": 347.0,
      "saturation": 51.3,
      "v_vec": 76.0
    },
    {
      "start_time": 17661,
      "end_time": 18109,
      "state": "Undefined / Gray Void",
      "hue": 169.9,
      "saturation": 11.0,
      "v_vec": 44.1
    },
    {
      "start_time": 18109,
      "end_time": 18114,
      "state": "TRANSITION SPIKE!",
      "hue": 156.2,
      "saturation": 50.3,
      "v_vec": 39.6
    },
    {
      "start_time": 18114,
      "end_time": 18526,
      "state": "Stable",
      "hue": 163.5,
      "saturation": 51.4,
      "v_vec": 24.8
    },
    {
      "start_time": 18526,
      "end_time": 18536,
      "state": "TRANSITION SPIKE!",
      "hue": 26.5,
      "saturation": 86.8,
      "v_vec": 129.2
    },
    {
      "start_time": 18536,
      "end_time": 19000,
      "state": "Stable",
      "hue": 42.1,
      "saturation": 88.6,
      "v_vec": 23.8
    },
    {
      "start_time": 19000,
      "end_time": 19005,
      "state": "TRANSITION SPIKE!",
      "hue": 0.0,
      "saturation": 100.0,
      "v_vec": 68.5
    },
    {
      "start_time": 19005,
      "end_time": 19479,
      "state": "Stable",
      "hue": 28.6,
      "saturation": 86.6,
      "v_vec": 47.9
    },
    {
      "start_time": 19479,
      "end_time": 19947,
      "state": "TRANSITION SPIKE!",
      "hue": 0.0,
      "saturation": 100.0,
      "v_vec": 95.9
    },
    {
      "start_time": 19947,
      "end_time": 20380,
      "state": "Stable",
      "hue": 27.7,
      "saturation": 86.7,
      "v_vec": 46.5
    },
    {
      "start_time": 20380,
      "end_time": 20390,
      "state": "TRANSITION SPIKE!",
      "hue": 60.0,
      "saturation": 100.0,
      "v_vec": 53.5
    },
    {
      "start_time": 20390,
      "end_time": 20828,
      "state": "Stable",
      "hue": 32.0,
      "saturation": 91.4,
      "v_vec": 54.6
    },
    {
      "start_time": 20828,
      "end_time": 21276,
      "state": "TRANSITION SPIKE!",
      "hue": 330.0,
      "saturation": 100.0,
      "v_vec": 9.0
    },
    {
      "start_time": 21276,
      "end_time": 21677,
      "state": "Stable",
      "hue": 347.2,
      "saturation": 72.2,
      "v_vec": 26.2
    },
    {
      "start_time": 21677,
      "end_time": 21682,
      "state": "TRANSITION SPIKE!",
      "hue": 210.0,
      "saturation": 100.0,
      "v_vec": 160.6
    },
    {
      "start_time": 21682,
      "end_time": 21692,
      "state": "Undefined / Gray Void",
      "hue": 32.4,
      "saturation": 24.8,
      "v_vec": 98.5
    },
    {
      "start_time": 21692,
      "end_time": 22104,
      "state": "Stable",
      "hue": 64.5,
      "saturation": 37.3,
      "v_vec": 21.0
    },
    {
      "start_time": 22104,
      "end_time": 22125,
      "state": "TRANSITION SPIKE!",
      "hue": 60.0,
      "saturation": 100.0,
      "v_vec": 62.9
    },
    {
      "start_time": 22125,
      "end_time": 22260,
      "state": "Stable",
      "hue": 83.6,
      "saturation": 64.9,
      "v_vec": 38.4
    },
    {
      "start_time": 22260,
      "end_time": 22390,
      "state": "TRANSITION SPIKE!",
      "hue": 91.1,
      "saturation": 67.8,
      "v_vec": 9.2
    },
    {
      "start_time": 22390,
      "end_time": 22526,
      "state": "Stable",
      "hue": 77.3,
      "saturation": 59.6,
      "v_vec": 17.3
    },
    {
      "start_time": 22526,
      "end_time": 23479,
      "state": "TRANSITION SPIKE!",
      "hue": 0.0,
      "saturation": 100.0,
      "v_vec": 24.2
    },
    {
      "start_time": 23479,
      "end_time": 23484,
      "state": "Regime Locked",
      "hue": 0.0,
      "saturation": 100.0,
      "v_vec": 0.0
    },
    {
      "start_time": 23484,
      "end_time": 23911,
      "state": "Stable",
      "hue": 36.9,
      "saturation": 78.6,
      "v_vec": 35.8
    },
    {
      "start_time": 23911,
      "end_time": 23916,
      "state": "Undefined / Gray Void",
      "hue": 45.0,
      "saturation": 25.9,
      "v_vec": 53.1
    },
    {
      "start_time": 23916,
      "end_time": 23932,
      "state": "TRANSITION SPIKE!",
      "hue": 16.4,
      "saturation": 45.1,
      "v_vec": 25.5
    },
    {
      "start_time": 23932,
      "end_time": 24328,
      "state": "Stable",
      "hue": 37.4,
      "saturation": 45.2,
      "v_vec": 16.5
    },
    {
      "start_time": 24328,
      "end_time": 24333,
      "state": "TRANSITION SPIKE!",
      "hue": 314.3,
      "saturation": 70.7,
      "v_vec": 79.2
    },
    {
      "start_time": 24333,
      "end_time": 24343,
      "state": "Stable",
      "hue": 275.4,
      "saturation": 50.6,
      "v_vec": 44.6
    },
    {
      "start_time": 24343,
      "end_time": 24723,
      "state": "Undefined / Gray Void",
      "hue": 281.9,
      "saturation": 18.1,
      "v_vec": 32.7
    },
    {
      "start_time": 24723,
      "end_time": 24755,
      "state": "TRANSITION SPIKE!",
      "hue": 0.0,
      "saturation": 100.0,
      "v_vec": 97.9
    },
    {
      "start_time": 24755,
      "end_time": 24895,
      "state": "Stable",
      "hue": 49.1,
      "saturation": 67.0,
      "v_vec": 70.8
    },
    {
      "start_time": 24895,
      "end_time": 25031,
      "state": "TRANSITION SPIKE!",
      "hue": 67.3,
      "saturation": 54.7,
      "v_vec": 22.8
    },
    {
      "start_time": 25031,
      "end_time": 25177,
      "state": "Stable",
      "hue": 90.2,
      "saturation": 70.1,
      "v_vec": 29.0
    },
    {
      "start_time": 25177,
      "end_time": 26114,
      "state": "TRANSITION SPIKE!",
      "hue": 150.0,
      "saturation": 100.0,
      "v_vec": 59.3
    },
    {
      "start_time": 26114,
      "end_time": 26125,
      "state": "Undefined / Gray Void",
      "hue": 94.5,
      "saturation": 27.5,
      "v_vec": 87.4
    },
    {
      "start_time": 26125,
      "end_time": 26265,
      "state": "Stable",
      "hue": 346.2,
      "saturation": 41.9,
      "v_vec": 56.8
    },
    {
      "start_time": 26265,
      "end_time": 26572,
      "state": "TRANSITION SPIKE!",
      "hue": 61.4,
      "saturation": 86.6,
      "v_vec": 23.6
    },
    {
      "start_time": 26572,
      "end_time": 27489,
      "state": "Regime Locked",
      "hue": 58.9,
      "saturation": 86.6,
      "v_vec": 3.7
    },
    {
      "start_time": 27489,
      "end_time": 27505,
      "state": "TRANSITION SPIKE!",
      "hue": 30.0,
      "saturation": 100.0,
      "v_vec": 48.4
    },
    {
      "start_time": 27505,
      "end_time": 27515,
      "state": "Stable",
      "hue": 7.1,
      "saturation": 90.2,
      "v_vec": 50.0
    },
    {
      "start_time": 27515,
      "end_time": 27703,
      "state": "Regime Locked",
      "hue": 5.5,
      "saturation": 92.1,
      "v_vec": 3.1
    },
    {
      "start_time": 27703,
      "end_time": 28989,
      "state": "TRANSITION SPIKE!",
      "hue": 88.0,
      "saturation": 86.7,
      "v_vec": 17.6
    },
    {
      "start_time": 28989,
      "end_time": 28994,
      "state": "Undefined / Gray Void",
      "hue": 31.8,
      "saturation": 26.6,
      "v_vec": 75.2
    },
    {
      "start_time": 28994,
      "end_time": 29000,
      "state": "TRANSITION SPIKE!",
      "hue": 69.6,
      "saturation": 44.2,
      "v_vec": 28.4
    },
    {
      "start_time": 29000,
      "end_time": 29380,
      "state": "Stable",
      "hue": 40.8,
      "saturation": 47.8,
      "v_vec": 23.2
    },
    {
      "start_time": 29380,
      "end_time": 29385,
      "state": "TRANSITION SPIKE!",
      "hue": 90.0,
      "saturation": 100.0,
      "v_vec": 77.7
    },
    {
      "start_time": 29385,
      "end_time": 29593,
      "state": "Stable",
      "hue": 45.1,
      "saturation": 84.1,
      "v_vec": 25.4
    },
    {
      "start_time": 29593,
      "end_time": 29598,
      "state": "TRANSITION SPIKE!",
      "hue": 54.0,
      "saturation": 82.7,
      "v_vec": 12.9
    },
    {
      "start_time": 29598,
      "end_time": 29812,
      "state": "Stable",
      "hue": 44.2,
      "saturation": 71.6,
      "v_vec": 21.6
    },
    {
      "start_time": 29812,
      "end_time": 29822,
      "state": "TRANSITION SPIKE!",
      "hue": 15.4,
      "saturation": 56.2,
      "v_vec": 35.1
    },
    {
      "start_time": 29822,
      "end_time": 30234,
      "state": "Stable",
      "hue": 31.8,
      "saturation": 61.5,
      "v_vec": 8.0
    },
    {
      "start_time": 30234,
      "end_time": 30239,
      "state": "TRANSITION SPIKE!",
      "hue": 90.0,
      "saturation": 100.0,
      "v_vec": 85.5
    },
    {
      "start_time": 30239,
      "end_time": 30723,
      "state": "Stable",
      "hue": 104.9,
      "saturation": 52.8,
      "v_vec": 49.3
    },
    {
      "start_time": 30723,
      "end_time": 30729,
      "state": "TRANSITION SPIKE!",
      "hue": 300.0,
      "saturation": 100.0,
      "v_vec": 151.6
    },
    {
      "start_time": 30729,
      "end_time": 33328,
      "state": "Stable",
      "hue": 61.8,
      "saturation": 37.7,
      "v_vec": 114.7
    },
    {
      "start_time": 33328,
      "end_time": 34208,
      "state": "TRANSITION SPIKE!",
      "hue": 28.7,
      "saturation": 86.6,
      "v_vec": 69.1
    },
    {
      "start_time": 34208,
      "end_time": 34666,
      "state": "Regime Locked",
      "hue": 26.1,
      "saturation": 86.8,
      "v_vec": 4.0
    },
    {
      "start_time": 34666,
      "end_time": 35541,
      "state": "TRANSITION SPIKE!",
      "hue": 0.0,
      "saturation": 100.0,
      "v_vec": 99.5
    },
    {
      "start_time": 35541,
      "end_time": 35973,
      "state": "Stable",
      "hue": 26.2,
      "saturation": 86.8,
      "v_vec": 44.2
    },
    {
      "start_time": 35973,
      "end_time": 35994,
      "state": "TRANSITION SPIKE!",
      "hue": 90.0,
      "saturation": 100.0,
      "v_vec": 99.4
    },
    {
      "start_time": 35994,
      "end_time": 36421,
      "state": "Stable",
      "hue": 72.3,
      "saturation": 96.7,
      "v_vec": 30.4
    },
    {
      "start_time": 36421,
      "end_time": 36427,
      "state": "TRANSITION SPIKE!",
      "hue": 210.0,
      "saturation": 100.0,
      "v_vec": 183.4
    },
    {
      "start_time": 36427,
      "end_time": 36432,
      "state": "Stable",
      "hue": 175.1,
      "saturation": 33.8,
      "v_vec": 74.8
    },
    {
      "start_time": 36432,
      "end_time": 36843,
      "state": "Undefined / Gray Void",
      "hue": 302.8,
      "saturation": 29.3,
      "v_vec": 34.8
    },
    {
      "start_time": 36843,
      "end_time": 36859,
      "state": "TRANSITION SPIKE!",
      "hue": 353.2,
      "saturation": 65.8,
      "v_vec": 52.3
    },
    {
      "start_time": 36859,
      "end_time": 37234,
      "state": "Stable",
      "hue": 25.7,
      "saturation": 52.1,
      "v_vec": 35.5
    },
    {
      "start_time": 37234,
      "end_time": 37260,
      "state": "TRANSITION SPIKE!",
      "hue": 90.0,
      "saturation": 100.0,
      "v_vec": 90.6
    },
    {
      "start_time": 37260,
      "end_time": 37708,
      "state": "Regime Locked",
      "hue": 90.0,
      "saturation": 100.0,
      "v_vec": 0.0
    },
    {
      "start_time": 37708,
      "end_time": 37718,
      "state": "TRANSITION SPIKE!",
      "hue": 150.0,
      "saturation": 100.0,
      "v_vec": 100.0
    },
    {
      "start_time": 37718,
      "end_time": 37906,
      "state": "Stable",
      "hue": 121.8,
      "saturation": 82.4,
      "v_vec": 21.2
    },
    {
      "start_time": 37906,
      "end_time": 38489,
      "state": "Undefined / Gray Void",
      "hue": 200.0,
      "saturation": 17.2,
      "v_vec": 57.3
    },
    {
      "start_time": 38489,
      "end_time": 38500,
      "state": "TRANSITION SPIKE!",
      "hue": 90.0,
      "saturation": 100.0,
      "v_vec": 107.1
    },
    {
      "start_time": 38500,
      "end_time": 38526,
      "state": "Regime Locked",
      "hue": 90.0,
      "saturation": 100.0,
      "v_vec": 0.0
    },
    {
      "start_time": 38526,
      "end_time": 38968,
      "state": "Stable",
      "hue": 135.0,
      "saturation": 51.8,
      "v_vec": 73.2
    },
    {
      "start_time": 38968,
      "end_time": 38973,
      "state": "TRANSITION SPIKE!",
      "hue": 60.0,
      "saturation": 100.0,
      "v_vec": 100.0
    },
    {
      "start_time": 38973,
      "end_time": 39411,
      "state": "Stable",
      "hue": 45.2,
      "saturation": 89.7,
      "v_vec": 49.5
    },
    {
      "start_time": 39411,
      "end_time": 39416,
      "state": "TRANSITION SPIKE!",
      "hue": 0.0,
      "saturation": 100.0,
      "v_vec": 73.5
    },
    {
      "start_time": 39416,
      "end_time": 39906,
      "state": "Stable",
      "hue": 29.0,
      "saturation": 86.6,
      "v_vec": 48.4
    },
    {
      "start_time": 39906,
      "end_time": 40333,
      "state": "TRANSITION SPIKE!",
      "hue": 0.0,
      "saturation": 100.0,
      "v_vec": 95.5
    },
    {
      "start_time": 40333,
      "end_time": 40744,
      "state": "Stable",
      "hue": 28.4,
      "saturation": 86.6,
      "v_vec": 47.7
    },
    {
      "start_time": 40744,
      "end_time": 40755,
      "state": "TRANSITION SPIKE!",
      "hue": 0.0,
      "saturation": 100.0,
      "v_vec": 47.7
    },
    {
      "start_time": 40755,
      "end_time": 41203,
      "state": "Stable",
      "hue": 28.3,
      "saturation": 86.6,
      "v_vec": 47.4
    },
    {
      "start_time": 41203,
      "end_time": 41671,
      "state": "TRANSITION SPIKE!",
      "hue": 96.6,
      "saturation": 33.0,
      "v_vec": 96.4
    },
    {
      "start_time": 41671,
      "end_time": 41875,
      "state": "Stable",
      "hue": 50.6,
      "saturation": 32.5,
      "v_vec": 25.6
    },
    {
      "start_time": 41875,
      "end_time": 42098,
      "state": "TRANSITION SPIKE!",
      "hue": 318.6,
      "saturation": 66.7,
      "v_vec": 47.7
    },
    {
      "start_time": 42098,
      "end_time": 42328,
      "state": "Stable",
      "hue": 329.4,
      "saturation": 69.5,
      "v_vec": 13.1
    },
    {
      "start_time": 42328,
      "end_time": 43010,
      "state": "TRANSITION SPIKE!",
      "hue": 75.6,
      "saturation": 96.6,
      "v_vec": 54.6
    },
    {
      "start_time": 43010,
      "end_time": 43223,
      "state": "Stable",
      "hue": 106.4,
      "saturation": 83.2,
      "v_vec": 43.0
    },
    {
      "start_time": 43223,
      "end_time": 43442,
      "state": "TRANSITION SPIKE!",
      "hue": 340.4,
      "saturation": 53.1,
      "v_vec": 52.8
    },
    {
      "start_time": 43442,
      "end_time": 43645,
      "state": "Stable",
      "hue": 330.9,
      "saturation": 33.8,
      "v_vec": 20.5
    },
    {
      "start_time": 43645,
      "end_time": 43864,
      "state": "Undefined / Gray Void",
      "hue": 202.8,
      "saturation": 11.6,
      "v_vec": 42.0
    },
    {
      "start_time": 43864,
      "end_time": 43906,
      "state": "TRANSITION SPIKE!",
      "hue": 126.4,
      "saturation": 54.6,
      "v_vec": 53.0
    },
    {
      "start_time": 43906,
      "end_time": 44348,
      "state": "Stable",
      "hue": 161.3,
      "saturation": 51.0,
      "v_vec": 31.9
    },
    {
      "start_time": 44348,
      "end_time": 44354,
      "state": "TRANSITION SPIKE!",
      "hue": 60.0,
      "saturation": 100.0,
      "v_vec": 120.8
    },
    {
      "start_time": 44354,
      "end_time": 44796,
      "state": "Stable",
      "hue": 42.3,
      "saturation": 88.6,
      "v_vec": 31.1
    },
    {
      "start_time": 44796,
      "end_time": 44802,
      "state": "TRANSITION SPIKE!",
      "hue": 0.0,
      "saturation": 100.0,
      "v_vec": 68.9
    },
    {
      "start_time": 44802,
      "end_time": 45276,
      "state": "Stable",
      "hue": 27.6,
      "saturation": 86.7,
      "v_vec": 46.4
    },
    {
      "start_time": 45276,
      "end_time": 45750,
      "state": "TRANSITION SPIKE!",
      "hue": 0.0,
      "saturation": 100.0,
      "v_vec": 97.4
    },
    {
      "start_time": 45750,
      "end_time": 46171,
      "state": "Stable",
      "hue": 27.9,
      "saturation": 86.7,
      "v_vec": 46.8
    },
    {
      "start_time": 46171,
      "end_time": 46177,
      "state": "TRANSITION SPIKE!",
      "hue": 0.0,
      "saturation": 100.0,
      "v_vec": 46.8
    },
    {
      "start_time": 46177,
      "end_time": 46625,
      "state": "Stable",
      "hue": 23.5,
      "saturation": 87.2,
      "v_vec": 40.1
    },
    {
      "start_time": 46625,
      "end_time": 46630,
      "state": "TRANSITION SPIKE!",
      "hue": 30.0,
      "saturation": 100.0,
      "v_vec": 16.6
    },
    {
      "start_time": 46630,
      "end_time": 47062,
      "state": "Stable",
      "hue": 39.1,
      "saturation": 91.7,
      "v_vec": 25.4
    },
    {
      "start_time": 47062,
      "end_time": 47078,
      "state": "TRANSITION SPIKE!",
      "hue": 330.0,
      "saturation": 100.0,
      "v_vec": 108.9
    },
    {
      "start_time": 47078,
      "end_time": 47484,
      "state": "Stable",
      "hue": 347.6,
      "saturation": 72.7,
      "v_vec": 26.5
    },
    {
      "start_time": 47484,
      "end_time": 47489,
      "state": "TRANSITION SPIKE!",
      "hue": 210.0,
      "saturation": 100.0,
      "v_vec": 161.3
    },
    {
      "start_time": 47489,
      "end_time": 47505,
      "state": "Undefined / Gray Void",
      "hue": 137.2,
      "saturation": 25.9,
      "v_vec": 95.6
    },
    {
      "start_time": 47505,
      "end_time": 47911,
      "state": "Stable",
      "hue": 66.4,
      "saturation": 35.0,
      "v_vec": 25.3
    },
    {
      "start_time": 47911,
      "end_time": 47921,
      "state": "TRANSITION SPIKE!",
      "hue": 60.0,
      "saturation": 100.0,
      "v_vec": 65.4
    },
    {
      "start_time": 47921,
      "end_time": 48067,
      "state": "Stable",
      "hue": 76.3,
      "saturation": 68.0,
      "v_vec": 23.6
    },
    {
      "start_time": 48067,
      "end_time": 48348,
      "state": "TRANSITION SPIKE!",
      "hue": 94.2,
      "saturation": 56.0,
      "v_vec": 11.5
    },
    {
      "start_time": 48348,
      "end_time": 49447,
      "state": "Stable",
      "hue": 91.6,
      "saturation": 58.7,
      "v_vec": 3.7
    },
    {
      "start_time": 49447,
      "end_time": 49453,
      "state": "TRANSITION SPIKE!",
      "hue": 0.0,
      "saturation": 100.0,
      "v_vec": 117.4
    },
    {
      "start_time": 49453,
      "end_time": 49880,
      "state": "Stable",
      "hue": 31.1,
      "saturation": 80.9,
      "v_vec": 35.8
    },
    {
      "start_time": 49880,
      "end_time": 49890,
      "state": "Undefined / Gray Void",
      "hue": 49.8,
      "saturation": 26.0,
      "v_vec": 56.9
    },
    {
      "start_time": 49890,
      "end_time": 49901,
      "state": "TRANSITION SPIKE!",
      "hue": 17.1,
      "saturation": 45.7,
      "v_vec": 27.7
    },
    {
      "start_time": 49901,
      "end_time": 50291,
      "state": "Stable",
      "hue": 40.9,
      "saturation": 46.4,
      "v_vec": 19.0
    },
    {
      "start_time": 50291,
      "end_time": 50302,
      "state": "TRANSITION SPIKE!",
      "hue": 270.0,
      "saturation": 100.0,
      "v_vec": 135.0
    },
    {
      "start_time": 50302,
      "end_time": 50703,
      "state": "Stable",
      "hue": 273.4,
      "saturation": 32.4,
      "v_vec": 48.1
    },
    {
      "start_time": 50703,
      "end_time": 50718,
      "state": "TRANSITION SPIKE!",
      "hue": 0.0,
      "saturation": 100.0,
      "v_vec": 103.3
    },
    {
      "start_time": 50718,
      "end_time": 50729,
      "state": "Undefined / Gray Void",
      "hue": 47.5,
      "saturation": 29.2,
      "v_vec": 83.1
    },
    {
      "start_time": 50729,
      "end_time": 50875,
      "state": "Stable",
      "hue": 49.1,
      "saturation": 67.0,
      "v_vec": 37.9
    },
    {
      "start_time": 50875,
      "end_time": 51005,
      "state": "TRANSITION SPIKE!",
      "hue": 66.8,
      "saturation": 55.0,
      "v_vec": 22.2
    },
    {
      "start_time": 51005,
      "end_time": 51130,
      "state": "Stable",
      "hue": 89.3,
      "saturation": 70.4,
      "v_vec": 28.8
    },
    {
      "start_time": 51130,
      "end_time": 52223,
      "state": "TRANSITION SPIKE!",
      "hue": 130.9,
      "saturation": 88.2,
      "v_vec": 58.7
    },
    {
      "start_time": 52223,
      "end_time": 52255,
      "state": "Undefined / Gray Void",
      "hue": 7.7,
      "saturation": 24.7,
      "v_vec": 66.0
    },
    {
      "start_time": 52255,
      "end_time": 52395,
      "state": "TRANSITION SPIKE!",
      "hue": 347.8,
      "saturation": 38.7,
      "v_vec": 17.6
    },
    {
      "start_time": 52395,
      "end_time": 52536,
      "state": "Stable",
      "hue": 25.2,
      "saturation": 33.2,
      "v_vec": 23.6
    },
    {
      "start_time": 52536,
      "end_time": 53734,
      "state": "TRANSITION SPIKE!",
      "hue": 30.0,
      "saturation": 100.0,
      "v_vec": 33.7
    },
    {
      "start_time": 53734,
      "end_time": 53750,
      "state": "Stable",
      "hue": 17.0,
      "saturation": 96.7,
      "v_vec": 22.5
    },
    {
      "start_time": 53750,
      "end_time": 53755,
      "state": "Regime Locked",
      "hue": 16.2,
      "saturation": 96.6,
      "v_vec": 1.3
    },
    {
      "start_time": 53755,
      "end_time": 53906,
      "state": "Stable",
      "hue": 6.7,
      "saturation": 92.1,
      "v_vec": 16.3
    },
    {
      "start_time": 53906,
      "end_time": 54046,
      "state": "TRANSITION SPIKE!",
      "hue": 17.8,
      "saturation": 87.0,
      "v_vec": 18.1
    },
    {
      "start_time": 54046,
      "end_time": 54213,
      "state": "Stable",
      "hue": 41.1,
      "saturation": 61.7,
      "v_vec": 38.9
    },
    {
      "start_time": 54213,
      "end_time": 55416,
      "state": "TRANSITION SPIKE!",
      "hue": 104.5,
      "saturation": 96.6,
      "v_vec": 70.7
    },
    {
      "start_time": 55416,
      "end_time": 55802,
      "state": "Stable",
      "hue": 44.3,
      "saturation": 48.1,
      "v_vec": 62.6
    },
    {
      "start_time": 55802,
      "end_time": 55812,
      "state": "TRANSITION SPIKE!",
      "hue": 60.0,
      "saturation": 100.0,
      "v_vec": 55.3
    },
    {
      "start_time": 55812,
      "end_time": 56000,
      "state": "Stable",
      "hue": 45.8,
      "saturation": 85.0,
      "v_vec": 27.1
    },
    {
      "start_time": 56000,
      "end_time": 56020,
      "state": "TRANSITION SPIKE!",
      "hue": 55.2,
      "saturation": 83.6,
      "v_vec": 13.9
    },
    {
      "start_time": 56020,
      "end_time": 56239,
      "state": "Stable",
      "hue": 43.6,
      "saturation": 71.7,
      "v_vec": 29.9
    },
    {
      "start_time": 56239,
      "end_time": 56244,
      "state": "TRANSITION SPIKE!",
      "hue": 64.4,
      "saturation": 54.1,
      "v_vec": 28.6
    },
    {
      "start_time": 56244,
      "end_time": 56713,
      "state": "Stable",
      "hue": 41.3,
      "saturation": 52.5,
      "v_vec": 11.6
    },
    {
      "start_time": 56713,
      "end_time": 56718,
      "state": "TRANSITION SPIKE!",
      "hue": 330.0,
      "saturation": 100.0,
      "v_vec": 96.9
    },
    {
      "start_time": 56718,
      "end_time": 57333,
      "state": "Stable",
      "hue": 103.2,
      "saturation": 48.4,
      "v_vec": 123.0
    },
    {
      "start_time": 57333,
      "end_time": 57338,
      "state": "TRANSITION SPIKE!",
      "hue": 60.0,
      "saturation": 100.0,
      "v_vec": 72.7
    },
    {
      "start_time": 57338,
      "end_time": 58906,
      "state": "Stable",
      "hue": 60.4,
      "saturation": 42.5,
      "v_vec": 53.2
    },
    {
      "start_time": 58906,
      "end_time": 59395,
      "state": "TRANSITION SPIKE!",
      "hue": 60.0,
      "saturation": 100.0,
      "v_vec": 66.5
    },
    {
      "start_time": 59395,
      "end_time": 59786,
      "state": "Stable",
      "hue": 37.4,
      "saturation": 87.3,
      "v_vec": 38.8
    },
    {
      "start_time": 59786,
      "end_time": 59796,
      "state": "TRANSITION SPIKE!",
      "hue": 60.0,
      "saturation": 100.0,
      "v_vec": 38.8
    },
    {
      "start_time": 59796,
      "end_time": 60250,
      "state": "Stable",
      "hue": 28.5,
      "saturation": 86.6,
      "v_vec": 52.3
    },
    {
      "start_time": 60250,
      "end_time": 60718,
      "state": "TRANSITION SPIKE!",
      "hue": 60.0,
      "saturation": 100.0,
      "v_vec": 96.1
    },
    {
      "start_time": 60718,
      "end_time": 61177,
      "state": "Stable",
      "hue": 29.8,
      "saturation": 86.6,
      "v_vec": 50.4
    },
    {
      "start_time": 61177,
      "end_time": 61619,
      "state": "TRANSITION SPIKE!",
      "hue": 90.0,
      "saturation": 100.0,
      "v_vec": 3.8
    },
    {
      "start_time": 61619,
      "end_time": 62041,
      "state": "Stable",
      "hue": 71.0,
      "saturation": 96.8,
      "v_vec": 32.6
    },
    {
      "start_time": 62041,
      "end_time": 62046,
      "state": "TRANSITION SPIKE!",
      "hue": 0.0,
      "saturation": 100.0,
      "v_vec": 114.3
    },
    {
      "start_time": 62046,
      "end_time": 62250,
      "state": "Undefined / Gray Void",
      "hue": 302.7,
      "saturation": 3.7,
      "v_vec": 98.1
    },
    {
      "start_time": 62250,
      "end_time": 62473,
      "state": "TRANSITION SPIKE!",
      "hue": 324.5,
      "saturation": 87.0,
      "v_vec": 30.3
    },
    {
      "start_time": 62473,
      "end_time": 62869,
      "state": "Stable",
      "hue": 21.0,
      "saturation": 50.1,
      "v_vec": 36.4
    },
    {
      "start_time": 62869,
      "end_time": 62885,
      "state": "TRANSITION SPIKE!",
      "hue": 90.0,
      "saturation": 100.0,
      "v_vec": 94.5
    },
    {
      "start_time": 62885,
      "end_time": 63317,
      "state": "Regime Locked",
      "hue": 90.0,
      "saturation": 100.0,
      "v_vec": 0.0
    },
    {
      "start_time": 63317,
      "end_time": 63333,
      "state": "TRANSITION SPIKE!",
      "hue": 150.0,
      "saturation": 100.0,
      "v_vec": 100.0
    },
    {
      "start_time": 63333,
      "end_time": 63526,
      "state": "Stable",
      "hue": 120.6,
      "saturation": 82.9,
      "v_vec": 23.7
    },
    {
      "start_time": 63526,
      "end_time": 64109,
      "state": "Undefined / Gray Void",
      "hue": 192.2,
      "saturation": 16.7,
      "v_vec": 53.4
    },
    {
      "start_time": 64109,
      "end_time": 64135,
      "state": "TRANSITION SPIKE!",
      "hue": 90.0,
      "saturation": 100.0,
      "v_vec": 104.8
    },
    {
      "start_time": 64135,
      "end_time": 64161,
      "state": "Regime Locked",
      "hue": 90.0,
      "saturation": 100.0,
      "v_vec": 0.0
    },
    {
      "start_time": 64161,
      "end_time": 64593,
      "state": "Stable",
      "hue": 133.1,
      "saturation": 52.3,
      "v_vec": 71.4
    },
    {
      "start_time": 64593,
      "end_time": 64598,
      "state": "TRANSITION SPIKE!",
      "hue": 60.0,
      "saturation": 100.0,
      "v_vec": 98.5
    },
    {
      "start_time": 64598,
      "end_time": 64604,
      "state": "Regime Locked",
      "hue": 60.0,
      "saturation": 100.0,
      "v_vec": 0.0
    },
    {
      "start_time": 64604,
      "end_time": 65046,
      "state": "Stable",
      "hue": 42.9,
      "saturation": 88.8,
      "v_vec": 30.2
    },
    {
      "start_time": 65046,
      "end_time": 65052,
      "state": "TRANSITION SPIKE!",
      "hue": 0.0,
      "saturation": 100.0,
      "v_vec": 69.8
    },
    {
      "start_time": 65052,
      "end_time": 65546,
      "state": "Stable",
      "hue": 28.1,
      "saturation": 86.7,
      "v_vec": 47.1
    },
    {
      "start_time": 65546,
      "end_time": 65968,
      "state": "TRANSITION SPIKE!",
      "hue": 60.0,
      "saturation": 100.0,
      "v_vec": 96.7
    },
    {
      "start_time": 65968,
      "end_time": 66427,
      "state": "Stable",
      "hue": 29.0,
      "saturation": 86.6,
      "v_vec": 51.5
    },
    {
      "start_time": 66427,
      "end_time": 66479,
      "state": "TRANSITION SPIKE!",
      "hue": 0.0,
      "saturation": 100.0,
      "v_vec": 48.5
    },
    {
      "start_time": 66479,
      "end_time": 66885,
      "state": "Stable",
      "hue": 13.0,
      "saturation": 90.6,
      "v_vec": 23.5
    },
    {
      "start_time": 66885,
      "end_time": 67333,
      "state": "TRANSITION SPIKE!",
      "hue": 32.7,
      "saturation": 86.7,
      "v_vec": 118.9
    },
    {
      "start_time": 67333,
      "end_time": 67557,
      "state": "Undefined / Gray Void",
      "hue": 53.2,
      "saturation": 27.0,
      "v_vec": 62.1
    },
    {
      "start_time": 67557,
      "end_time": 67776,
      "state": "TRANSITION SPIKE!",
      "hue": 317.0,
      "saturation": 88.9,
      "v_vec": 49.1
    },
    {
      "start_time": 67776,
      "end_time": 68005,
      "state": "Stable",
      "hue": 332.7,
      "saturation": 69.9,
      "v_vec": 28.7
    },
    {
      "start_time": 68005,
      "end_time": 68677,
      "state": "TRANSITION SPIKE!",
      "hue": 102.6,
      "saturation": 79.5,
      "v_vec": 54.0
    },
    {
      "start_time": 68677,
      "end_time": 68875,
      "state": "Stable",
      "hue": 108.0,
      "saturation": 84.0,
      "v_vec": 8.8
    },
    {
      "start_time": 68875,
      "end_time": 69088,
      "state": "TRANSITION SPIKE!",
      "hue": 111.4,
      "saturation": 33.3,
      "v_vec": 50.9
    },
    {
      "start_time": 69088,
      "end_time": 69531,
      "state": "Undefined / Gray Void",
      "hue": 192.0,
      "saturation": 13.1,
      "v_vec": 42.9
    },
    {
      "start_time": 69531,
      "end_time": 69552,
      "state": "TRANSITION SPIKE!",
      "hue": 166.5,
      "saturation": 52.2,
      "v_vec": 40.7
    },
    {
      "start_time": 69552,
      "end_time": 70015,
      "state": "Stable",
      "hue": 167.6,
      "saturation": 52.4,
      "v_vec": 32.2
    },
    {
      "start_time": 70015,
      "end_time": 70026,
      "state": "TRANSITION SPIKE!",
      "hue": 27.2,
      "saturation": 86.7,
      "v_vec": 131.4
    },
    {
      "start_time": 70026,
      "end_time": 70468,
      "state": "Stable",
      "hue": 41.4,
      "saturation": 88.4,
      "v_vec": 21.7
    },
    {
      "start_time": 70468,
      "end_time": 70479,
      "state": "TRANSITION SPIKE!",
      "hue": 0.0,
      "saturation": 100.0,
      "v_vec": 67.5
    },
    {
      "start_time": 70479,
      "end_time": 70953,
      "state": "Stable",
      "hue": 24.3,
      "saturation": 87.0,
      "v_vec": 41.4
    },
    {
      "start_time": 70953,
      "end_time": 71421,
      "state": "TRANSITION SPIKE!",
      "hue": 60.0,
      "saturation": 100.0,
      "v_vec": 102.0
    },
    {
      "start_time": 71421,
      "end_time": 71848,
      "state": "Stable",
      "hue": 29.1,
      "saturation": 86.6,
      "v_vec": 51.4
    },
    {
      "start_time": 71848,
      "end_time": 71859,
      "state": "TRANSITION SPIKE!",
      "hue": 60.0,
      "saturation": 100.0,
      "v_vec": 51.4
    },
    {
      "start_time": 71859,
      "end_time": 72302,
      "state": "Stable",
      "hue": 24.5,
      "saturation": 87.0,
      "v_vec": 58.3
    },
    {
      "start_time": 72302,
      "end_time": 72312,
      "state": "TRANSITION SPIKE!",
      "hue": 30.0,
      "saturation": 100.0,
      "v_vec": 15.8
    },
    {
      "start_time": 72312,
      "end_time": 72770,
      "state": "Stable",
      "hue": 37.9,
      "saturation": 91.3,
      "v_vec": 8.9
    },
    {
      "start_time": 72770,
      "end_time": 72776,
      "state": "TRANSITION SPIKE!",
      "hue": 313.7,
      "saturation": 96.6,
      "v_vec": 126.1
    },
    {
      "start_time": 72776,
      "end_time": 73203,
      "state": "Stable",
      "hue": 347.2,
      "saturation": 71.6,
      "v_vec": 49.8
    },
    {
      "start_time": 73203,
      "end_time": 73208,
      "state": "TRANSITION SPIKE!",
      "hue": 210.0,
      "saturation": 100.0,
      "v_vec": 160.0
    },
    {
      "start_time": 73208,
      "end_time": 73223,
      "state": "Undefined / Gray Void",
      "hue": 135.0,
      "saturation": 25.9,
      "v_vec": 96.6
    },
    {
      "start_time": 73223,
      "end_time": 73645,
      "state": "Stable",
      "hue": 66.3,
      "saturation": 35.3,
      "v_vec": 35.4
    },
    {
      "start_time": 73645,
      "end_time": 73661,
      "state": "TRANSITION SPIKE!",
      "hue": 60.0,
      "saturation": 100.0,
      "v_vec": 65.0
    },
    {
      "start_time": 73661,
      "end_time": 73812,
      "state": "Stable",
      "hue": 77.4,
      "saturation": 67.7,
      "v_vec": 65.9
    },
    {
      "start_time": 73812,
      "end_time": 73958,
      "state": "TRANSITION SPIKE!",
      "hue": 86.4,
      "saturation": 69.5,
      "v_vec": 10.9
    },
    {
      "start_time": 73958,
      "end_time": 74057,
      "state": "Stable",
      "hue": 78.6,
      "saturation": 55.4,
      "v_vec": 16.4
    },
    {
      "start_time": 74057,
      "end_time": 75270,
      "state": "TRANSITION SPIKE!",
      "hue": 0.0,
      "saturation": 100.0,
      "v_vec": 14.7
    },
    {
      "start_time": 75270,
      "end_time": 75692,
      "state": "Stable",
      "hue": 34.4,
      "saturation": 79.4,
      "v_vec": 35.5
    },
    {
      "start_time": 75692,
      "end_time": 75708,
      "state": "Undefined / Gray Void",
      "hue": 41.6,
      "saturation": 25.9,
      "v_vec": 53.8
    },
    {
      "start_time": 75708,
      "end_time": 75718,
      "state": "TRANSITION SPIKE!",
      "hue": 15.7,
      "saturation": 44.9,
      "v_vec": 24.3
    },
    {
      "start_time": 75718,
      "end_time": 76151,
      "state": "Stable",
      "hue": 41.6,
      "saturation": 45.8,
      "v_vec": 20.3
    },
    {
      "start_time": 76151,
      "end_time": 76166,
      "state": "TRANSITION SPIKE!",
      "hue": 274.5,
      "saturation": 51.4,
      "v_vec": 87.0
    },
    {
      "start_time": 76166,
      "end_time": 76583,
      "state": "Undefined / Gray Void",
      "hue": 280.0,
      "saturation": 18.0,
      "v_vec": 33.5
    },
    {
      "start_time": 76583,
      "end_time": 76598,
      "state": "TRANSITION SPIKE!",
      "hue": 0.0,
      "saturation": 100.0,
      "v_vec": 98.5
    },
    {
      "start_time": 76598,
      "end_time": 76776,
      "state": "Stable",
      "hue": 49.7,
      "saturation": 65.9,
      "v_vec": 80.6
    },
    {
      "start_time": 76776,
      "end_time": 76921,
      "state": "TRANSITION SPIKE!",
      "hue": 68.8,
      "saturation": 53.9,
      "v_vec": 23.2
    },
    {
      "start_time": 76921,
      "end_time": 77078,
      "state": "Stable",
      "hue": 118.1,
      "saturation": 86.7,
      "v_vec": 65.7
    },
    {
      "start_time": 77078,
      "end_time": 78213,
      "state": "TRANSITION SPIKE!",
      "hue": 150.0,
      "saturation": 100.0,
      "v_vec": 0.7
    },
    {
      "start_time": 78213,
      "end_time": 78218,
      "state": "Undefined / Gray Void",
      "hue": 150.0,
      "saturation": 4.1,
      "v_vec": 95.9
    },
    {
      "start_time": 78218,
      "end_time": 78369,
      "state": "Stable",
      "hue": 347.8,
      "saturation": 37.5,
      "v_vec": 41.4
    },
    {
      "start_time": 78369,
      "end_time": 78671,
      "state": "TRANSITION SPIKE!",
      "hue": 58.7,
      "saturation": 86.6,
      "v_vec": 25.4
    },
    {
      "start_time": 78671,
      "end_time": 79635,
      "state": "Regime Locked",
      "hue": 59.5,
      "saturation": 86.6,
      "v_vec": 1.2
    },
    {
      "start_time": 79635,
      "end_time": 79640,
      "state": "TRANSITION SPIKE!",
      "hue": 30.0,
      "saturation": 100.0,
      "v_vec": 49.2
    },
    {
      "start_time": 79640,
      "end_time": 79807,
      "state": "Stable",
      "hue": 5.3,
      "saturation": 91.8,
      "v_vec": 50.3
    },
    {
      "start_time": 79807,
      "end_time": 79947,
      "state": "TRANSITION SPIKE!",
      "hue": 16.4,
      "saturation": 86.5,
      "v_vec": 17.9
    },
    {
      "start_time": 79947,
      "end_time": 80088,
      "state": "Stable",
      "hue": 89.6,
      "saturation": 86.6,
      "v_vec": 103.3
    },
    {
      "start_time": 80088,
      "end_time": 81703,
      "state": "TRANSITION SPIKE!",
      "hue": 60.0,
      "saturation": 100.0,
      "v_vec": 15.8
    },
    {
      "start_time": 81703,
      "end_time": 81906,
      "state": "Stable",
      "hue": 52.0,
      "saturation": 82.3,
      "v_vec": 28.2
    },
    {
      "start_time": 81906,
      "end_time": 81911,
      "state": "TRANSITION SPIKE!",
      "hue": 47.3,
      "saturation": 71.4,
      "v_vec": 12.5
    },
    {
      "start_time": 81911,
      "end_time": 82125,
      "state": "Stable",
      "hue": 42.6,
      "saturation": 71.3,
      "v_vec": 5.9
    },
    {
      "start_time": 82125,
      "end_time": 82135,
      "state": "TRANSITION SPIKE!",
      "hue": 11.8,
      "saturation": 63.3,
      "v_vec": 36.6
    },
    {
      "start_time": 82135,
      "end_time": 82588,
      "state": "Stable",
      "hue": 41.5,
      "saturation": 52.0,
      "v_vec": 31.5
    },
    {
      "start_time": 82588,
      "end_time": 82593,
      "state": "TRANSITION SPIKE!",
      "hue": 31.1,
      "saturation": 50.0,
      "v_vec": 9.5
    },
    {
      "start_time": 82593,
      "end_time": 83197,
      "state": "Stable",
      "hue": 105.3,
      "saturation": 50.5,
      "v_vec": 41.0
    },
    {
      "start_time": 83197,
      "end_time": 83203,
      "state": "TRANSITION SPIKE!",
      "hue": 12.1,
      "saturation": 51.1,
      "v_vec": 73.8
    },
    {
      "start_time": 83203,
      "end_time": 85463,
      "state": "Stable",
      "hue": 60.7,
      "saturation": 43.7,
      "v_vec": 24.2
    },
    {
      "start_time": 85463,
      "end_time": 86109,
      "state": "TRANSITION SPIKE!",
      "hue": 180.0,
      "saturation": 100.0,
      "v_vec": 65.5
    },
    {
      "start_time": 86109,
      "end_time": 86635,
      "state": "Stable",
      "hue": 120.9,
      "saturation": 50.0,
      "v_vec": 85.8
    },
    {
      "start_time": 86635,
      "end_time": 86656,
      "state": "TRANSITION SPIKE!",
      "hue": 165.5,
      "saturation": 96.6,
      "v_vec": 70.3
    },
    {
      "start_time": 86656,
      "end_time": 86916,
      "state": "Stable",
      "hue": 139.3,
      "saturation": 66.1,
      "v_vec": 47.3
    },
    {
      "start_time": 86916,
      "end_time": 87130,
      "state": "Undefined / Gray Void",
      "hue": 166.3,
      "saturation": 21.3,
      "v_vec": 48.1
    },
    {
      "start_time": 87130,
      "end_time": 87223,
      "state": "TRANSITION SPIKE!",
      "hue": 300.0,
      "saturation": 100.0,
      "v_vec": 115.8
    },
    {
      "start_time": 87223,
      "end_time": 87484,
      "state": "Stable",
      "hue": 247.7,
      "saturation": 71.3,
      "v_vec": 79.8
    },
    {
      "start_time": 87484,
      "end_time": 87802,
      "state": "Undefined / Gray Void",
      "hue": 141.2,
      "saturation": 26.0,
      "v_vec": 82.5
    },
    {
      "start_time": 87802,
      "end_time": 87822,
      "state": "TRANSITION SPIKE!",
      "hue": 60.0,
      "saturation": 100.0,
      "v_vec": 99.4
    },
    {
      "start_time": 87822,
      "end_time": 88411,
      "state": "Stable",
      "hue": 61.1,
      "saturation": 56.1,
      "v_vec": 72.1
    },
    {
      "start_time": 88411,
      "end_time": 88421,
      "state": "TRANSITION SPIKE!",
      "hue": 300.0,
      "saturation": 100.0,
      "v_vec": 137.6
    },
    {
      "start_time": 88421,
      "end_time": 88953,
      "state": "Stable",
      "hue": 47.5,
      "saturation": 31.7,
      "v_vec": 84.7
    },
    {
      "start_time": 88953,
      "end_time": 89468,
      "state": "TRANSITION SPIKE!",
      "hue": 150.0,
      "saturation": 100.0,
      "v_vec": 79.6
    },
    {
      "start_time": 89468,
      "end_time": 89729,
      "state": "Stable",
      "hue": 133.9,
      "saturation": 63.3,
      "v_vec": 27.0
    },
    {
      "start_time": 89729,
      "end_time": 90005,
      "state": "TRANSITION SPIKE!",
      "hue": 180.0,
      "saturation": 100.0,
      "v_vec": 17.6
    },
    {
      "start_time": 90005,
      "end_time": 90270,
      "state": "Stable",
      "hue": 130.1,
      "saturation": 60.3,
      "v_vec": 47.4
    },
    {
      "start_time": 90270,
      "end_time": 90562,
      "state": "TRANSITION SPIKE!",
      "hue": 259.5,
      "saturation": 70.9,
      "v_vec": 14.2
    },
    {
      "start_time": 90562,
      "end_time": 90828,
      "state": "Stable",
      "hue": 240.1,
      "saturation": 73.2,
      "v_vec": 24.3
    },
    {
      "start_time": 90828,
      "end_time": 91130,
      "state": "Undefined / Gray Void",
      "hue": 125.9,
      "saturation": 26.2,
      "v_vec": 87.3
    },
    {
      "start_time": 91130,
      "end_time": 91145,
      "state": "TRANSITION SPIKE!",
      "hue": 60.0,
      "saturation": 100.0,
      "v_vec": 92.4
    },
    {
      "start_time": 91145,
      "end_time": 91156,
      "state": "Regime Locked",
      "hue": 60.0,
      "saturation": 100.0,
      "v_vec": 0.0
    },
    {
      "start_time": 91156,
      "end_time": 91744,
      "state": "Stable",
      "hue": 58.5,
      "saturation": 57.5,
      "v_vec": 47.0
    },
    {
      "start_time": 91744,
      "end_time": 92307,
      "state": "Undefined / Gray Void",
      "hue": 50.5,
      "saturation": 26.8,
      "v_vec": 61.2
    },
    {
      "start_time": 92307,
      "end_time": 92833,
      "state": "TRANSITION SPIKE!",
      "hue": 60.0,
      "saturation": 100.0,
      "v_vec": 81.1
    },
    {
      "start_time": 92833,
      "end_time": 93307,
      "state": "Stable",
      "hue": 120.8,
      "saturation": 50.0,
      "v_vec": 87.3
    },
    {
      "start_time": 93307,
      "end_time": 94406,
      "state": "TRANSITION SPIKE!",
      "hue": 300.0,
      "saturation": 100.0,
      "v_vec": 29.3
    },
    {
      "start_time": 94406,
      "end_time": 95010,
      "state": "Undefined / Gray Void",
      "hue": 317.2,
      "saturation": 13.7,
      "v_vec": 87.0
    },
    {
      "start_time": 95010,
      "end_time": 95015,
      "state": "TRANSITION SPIKE!",
      "hue": 60.0,
      "saturation": 100.0,
      "v_vec": 103.9
    },
    {
      "start_time": 95015,
      "end_time": 95500,
      "state": "Stable",
      "hue": 123.6,
      "saturation": 50.1,
      "v_vec": 89.8
    },
    {
      "start_time": 95500,
      "end_time": 95770,
      "state": "TRANSITION SPIKE!",
      "hue": 300.0,
      "saturation": 100.0,
      "v_vec": 150.0
    },
    {
      "start_time": 95770,
      "end_time": 96015,
      "state": "Undefined / Gray Void",
      "hue": 233.7,
      "saturation": 26.2,
      "v_vec": 92.6
    },
    {
      "start_time": 96015,
      "end_time": 96036,
      "state": "TRANSITION SPIKE!",
      "hue": 150.0,
      "saturation": 100.0,
      "v_vec": 100.5
    },
    {
      "start_time": 96036,
      "end_time": 96286,
      "state": "Stable",
      "hue": 141.3,
      "saturation": 72.6,
      "v_vec": 18.6
    },
    {
      "start_time": 96286,
      "end_time": 96572,
      "state": "TRANSITION SPIKE!",
      "hue": 75.1,
      "saturation": 96.6,
      "v_vec": 24.9
    },
    {
      "start_time": 96572,
      "end_time": 96833,
      "state": "Stable",
      "hue": 91.0,
      "saturation": 68.2,
      "v_vec": 50.8
    },
    {
      "start_time": 96833,
      "end_time": 97760,
      "state": "TRANSITION SPIKE!",
      "hue": 300.0,
      "saturation": 100.0,
      "v_vec": 46.7
    },
    {
      "start_time": 97760,
      "end_time": 97765,
      "state": "Regime Locked",
      "hue": 300.0,
      "saturation": 100.0,
      "v_vec": 0.0
    },
    {
      "start_time": 97765,
      "end_time": 97781,
      "state": "TRANSITION SPIKE!",
      "hue": 347.5,
      "saturation": 51.2,
      "v_vec": 75.5
    },
    {
      "start_time": 97781,
      "end_time": 98625,
      "state": "Undefined / Gray Void",
      "hue": 314.5,
      "saturation": 11.2,
      "v_vec": 42.3
    },
    {
      "start_time": 98625,
      "end_time": 98635,
      "state": "TRANSITION SPIKE!",
      "hue": 180.0,
      "saturation": 100.0,
      "v_vec": 108.1
    },
    {
      "start_time": 98635,
      "end_time": 99432,
      "state": "Stable",
      "hue": 127.0,
      "saturation": 50.4,
      "v_vec": 80.5
    },
    {
      "start_time": 99432,
      "end_time": 100000,
      "state": "TRANSITION SPIKE!",
      "hue": 180.0,
      "saturation": 100.0,
      "v_vec": 67.0
    },
    {
      "start_time": 100000,
      "end_time": 100473,
      "state": "Stable",
      "hue": 123.1,
      "saturation": 50.1,
      "v_vec": 83.9
    },
    {
      "start_time": 100473,
      "end_time": 100479,
      "state": "TRANSITION SPIKE!",
      "hue": 150.0,
      "saturation": 100.0,
      "v_vec": 59.8
    },
    {
      "start_time": 100479,
      "end_time": 100739,
      "state": "Stable",
      "hue": 136.1,
      "saturation": 65.2,
      "v_vec": 25.3
    },
    {
      "start_time": 100739,
      "end_time": 100968,
      "state": "Undefined / Gray Void",
      "hue": 153.7,
      "saturation": 24.1,
      "v_vec": 42.9
    },
    {
      "start_time": 100968,
      "end_time": 101067,
      "state": "TRANSITION SPIKE!",
      "hue": 300.0,
      "saturation": 100.0,
      "v_vec": 120.7
    },
    {
      "start_time": 101067,
      "end_time": 101312,
      "state": "Stable",
      "hue": 253.6,
      "saturation": 70.7,
      "v_vec": 72.5
    },
    {
      "start_time": 101312,
      "end_time": 101604,
      "state": "Undefined / Gray Void",
      "hue": 130.0,
      "saturation": 26.0,
      "v_vec": 87.8
    },
    {
      "start_time": 101604,
      "end_time": 101609,
      "state": "TRANSITION SPIKE!",
      "hue": 60.0,
      "saturation": 100.0,
      "v_vec": 94.3
    },
    {
      "start_time": 101609,
      "end_time": 102239,
      "state": "Stable",
      "hue": 59.0,
      "saturation": 52.9,
      "v_vec": 38.2
    },
    {
      "start_time": 102239,
      "end_time": 102255,
      "state": "TRANSITION SPIKE!",
      "hue": 354.7,
      "saturation": 50.2,
      "v_vec": 54.9
    },
    {
      "start_time": 102255,
      "end_time": 102750,
      "state": "Stable",
      "hue": 46.5,
      "saturation": 30.3,
      "v_vec": 39.5
    },
    {
      "start_time": 102750,
      "end_time": 103265,
      "state": "TRANSITION SPIKE!",
      "hue": 150.0,
      "saturation": 100.0,
      "v_vec": 80.8
    },
    {
      "start_time": 103265,
      "end_time": 103520,
      "state": "Stable",
      "hue": 135.0,
      "saturation": 63.7,
      "v_vec": 27.1
    },
    {
      "start_time": 103520,
      "end_time": 103791,
      "state": "TRANSITION SPIKE!",
      "hue": 180.0,
      "saturation": 100.0,
      "v_vec": 17.9
    },
    {
      "start_time": 103791,
      "end_time": 104067,
      "state": "Stable",
      "hue": 130.3,
      "saturation": 61.3,
      "v_vec": 50.7
    },
    {
      "start_time": 104067,
      "end_time": 104380,
      "state": "TRANSITION SPIKE!",
      "hue": 260.1,
      "saturation": 71.0,
      "v_vec": 14.9
    },
    {
      "start_time": 104380,
      "end_time": 104645,
      "state": "Stable",
      "hue": 259.7,
      "saturation": 71.0,
      "v_vec": 0.5
    },
    {
      "start_time": 104645,
      "end_time": 104953,
      "state": "Undefined / Gray Void",
      "hue": 125.9,
      "saturation": 26.2,
      "v_vec": 91.1
    },
    {
      "start_time": 104953,
      "end_time": 104973,
      "state": "TRANSITION SPIKE!",
      "hue": 60.0,
      "saturation": 100.0,
      "v_vec": 92.4
    },
    {
      "start_time": 104973,
      "end_time": 104984,
      "state": "Regime Locked",
      "hue": 60.0,
      "saturation": 100.0,
      "v_vec": 0.0
    },
    {
      "start_time": 104984,
      "end_time": 105578,
      "state": "Stable",
      "hue": 55.5,
      "saturation": 57.0,
      "v_vec": 48.2
    },
    {
      "start_time": 105578,
      "end_time": 105593,
      "state": "TRANSITION SPIKE!",
      "hue": 300.0,
      "saturation": 100.0,
      "v_vec": 134.7
    },
    {
      "start_time": 105593,
      "end_time": 105598,
      "state": "Stable",
      "hue": 348.9,
      "saturation": 50.9,
      "v_vec": 76.8
    },
    {
      "start_time": 105598,
      "end_time": 106171,
      "state": "Undefined / Gray Void",
      "hue": 44.8,
      "saturation": 27.7,
      "v_vec": 42.2
    },
    {
      "start_time": 106171,
      "end_time": 106723,
      "state": "TRANSITION SPIKE!",
      "hue": 60.0,
      "saturation": 100.0,
      "v_vec": 82.9
    },
    {
      "start_time": 106723,
      "end_time": 107239,
      "state": "Stable",
      "hue": 125.7,
      "saturation": 50.2,
      "v_vec": 91.6
    },
    {
      "start_time": 107239,
      "end_time": 107250,
      "state": "TRANSITION SPIKE!",
      "hue": 60.0,
      "saturation": 100.0,
      "v_vec": 91.6
    },
    {
      "start_time": 107250,
      "end_time": 107255,
      "state": "Regime Locked",
      "hue": 60.0,
      "saturation": 100.0,
      "v_vec": 0.0
    },
    {
      "start_time": 107255,
      "end_time": 107552,
      "state": "Stable",
      "hue": 82.9,
      "saturation": 62.7,
      "v_vec": 48.8
    },
    {
      "start_time": 107552,
      "end_time": 108145,
      "state": "TRANSITION SPIKE!",
      "hue": 210.0,
      "saturation": 100.0,
      "v_vec": 136.1
    },
    {
      "start_time": 108145,
      "end_time": 108494,
      "state": "Undefined / Gray Void",
      "hue": 210.0,
      "saturation": 1.9,
      "v_vec": 98.1
    },
    {
      "start_time": 108494,
      "end_time": 108515,
      "state": "TRANSITION SPIKE!",
      "hue": 30.0,
      "saturation": 100.0,
      "v_vec": 101.9
    },
    {
      "start_time": 108515,
      "end_time": 108520,
      "state": "Undefined / Gray Void",
      "hue": 94.4,
      "saturation": 26.3,
      "v_vec": 91.7
    },
    {
      "start_time": 108520,
      "end_time": 109265,
      "state": "Stable",
      "hue": 73.0,
      "saturation": 46.3,
      "v_vec": 23.7
    },
    {
      "start_time": 109265,
      "end_time": 109270,
      "state": "TRANSITION SPIKE!",
      "hue": 180.0,
      "saturation": 100.0,
      "v_vec": 121.8
    },
    {
      "start_time": 109270,
      "end_time": 109828,
      "state": "Stable",
      "hue": 122.8,
      "saturation": 50.1,
      "v_vec": 84.2
    },
    {
      "start_time": 109828,
      "end_time": 110458,
      "state": "TRANSITION SPIKE!",
      "hue": 300.0,
      "saturation": 100.0,
      "v_vec": 114.0
    },
    {
      "start_time": 110458,
      "end_time": 110473,
      "state": "Regime Locked",
      "hue": 300.0,
      "saturation": 100.0,
      "v_vec": 0.0
    },
    {
      "start_time": 110473,
      "end_time": 110479,
      "state": "TRANSITION SPIKE!",
      "hue": 352.3,
      "saturation": 50.5,
      "v_vec": 79.9
    },
    {
      "start_time": 110479,
      "end_time": 111286,
      "state": "Undefined / Gray Void",
      "hue": 288.3,
      "saturation": 4.8,
      "v_vec": 48.5
    },
    {
      "start_time": 111286,
      "end_time": 111291,
      "state": "TRANSITION SPIKE!",
      "hue": 180.0,
      "saturation": 100.0,
      "v_vec": 101.6
    },
    {
      "start_time": 111291,
      "end_time": 112015,
      "state": "Stable",
      "hue": 126.5,
      "saturation": 50.3,
      "v_vec": 80.9
    },
    {
      "start_time": 112015,
      "end_time": 112713,
      "state": "TRANSITION SPIKE!",
      "hue": 90.0,
      "saturation": 100.0,
      "v_vec": 150.1
    },
    {
      "start_time": 112713,
      "end_time": 112729,
      "state": "Regime Locked",
      "hue": 90.0,
      "saturation": 100.0,
      "v_vec": 0.0
    },
    {
      "start_time": 112729,
      "end_time": 115427,
      "state": "TRANSITION SPIKE!",
      "hue": 0.0,
      "saturation": 100.0,
      "v_vec": 41.5
    },
    {
      "start_time": 115427,
      "end_time": 115843,
      "state": "Stable",
      "hue": 26.9,
      "saturation": 86.7,
      "v_vec": 45.3
    },
    {
      "start_time": 115843,
      "end_time": 115854,
      "state": "TRANSITION SPIKE!",
      "hue": 0.0,
      "saturation": 100.0,
      "v_vec": 45.3
    },
    {
      "start_time": 115854,
      "end_time": 116307,
      "state": "Stable",
      "hue": 22.8,
      "saturation": 87.3,
      "v_vec": 39.0
    },
    {
      "start_time": 116307,
      "end_time": 116765,
      "state": "TRANSITION SPIKE!",
      "hue": 60.0,
      "saturation": 100.0,
      "v_vec": 104.3
    },
    {
      "start_time": 116765,
      "end_time": 117197,
      "state": "Stable",
      "hue": 28.1,
      "saturation": 86.7,
      "v_vec": 52.9
    },
    {
      "start_time": 117197,
      "end_time": 118031,
      "state": "TRANSITION SPIKE!",
      "hue": 188.4,
      "saturation": 43.4,
      "v_vec": 5.3
    },
    {
      "start_time": 118031,
      "end_time": 118223,
      "state": "Undefined / Gray Void",
      "hue": 216.7,
      "saturation": 7.9,
      "v_vec": 36.6
    },
    {
      "start_time": 118223,
      "end_time": 118453,
      "state": "TRANSITION SPIKE!",
      "hue": 291.1,
      "saturation": 34.1,
      "v_vec": 32.9
    },
    {
      "start_time": 118453,
      "end_time": 118463,
      "state": "Undefined / Gray Void",
      "hue": 17.6,
      "saturation": 25.9,
      "v_vec": 41.5
    },
    {
      "start_time": 118463,
      "end_time": 118854,
      "state": "TRANSITION SPIKE!",
      "hue": 90.0,
      "saturation": 100.0,
      "v_vec": 20.2
    },
    {
      "start_time": 118854,
      "end_time": 119286,
      "state": "Regime Locked",
      "hue": 90.0,
      "saturation": 100.0,
      "v_vec": 0.0
    },
    {
      "start_time": 119286,
      "end_time": 119291,
      "state": "TRANSITION SPIKE!",
      "hue": 150.0,
      "saturation": 100.0,
      "v_vec": 100.0
    },
    {
      "start_time": 119291,
      "end_time": 119520,
      "state": "Stable",
      "hue": 118.9,
      "saturation": 81.2,
      "v_vec": 21.9
    },
    {
      "start_time": 119520,
      "end_time": 120078,
      "state": "Undefined / Gray Void",
      "hue": 195.3,
      "saturation": 14.1,
      "v_vec": 53.5
    },
    {
      "start_time": 120078,
      "end_time": 120098,
      "state": "TRANSITION SPIKE!",
      "hue": 90.0,
      "saturation": 100.0,
      "v_vec": 104.6
    },
    {
      "start_time": 120098,
      "end_time": 120130,
      "state": "Regime Locked",
      "hue": 90.0,
      "saturation": 100.0,
      "v_vec": 0.0
    },
    {
      "start_time": 120130,
      "end_time": 120536,
      "state": "Stable",
      "hue": 126.6,
      "saturation": 54.5,
      "v_vec": 65.0
    },
    {
      "start_time": 120536,
      "end_time": 120546,
      "state": "TRANSITION SPIKE!",
      "hue": 0.0,
      "saturation": 100.0,
      "v_vec": 139.5
    },
    {
      "start_time": 120546,
      "end_time": 120958,
      "state": "Stable",
      "hue": 39.8,
      "saturation": 87.9,
      "v_vec": 42.1
    },
    {
      "start_time": 120958,
      "end_time": 120973,
      "state": "TRANSITION SPIKE!",
      "hue": 0.0,
      "saturation": 100.0,
      "v_vec": 65.0
    },
    {
      "start_time": 120973,
      "end_time": 121411,
      "state": "Stable",
      "hue": 24.3,
      "saturation": 87.0,
      "v_vec": 41.3
    },
    {
      "start_time": 121411,
      "end_time": 121859,
      "state": "TRANSITION SPIKE!",
      "hue": 0.0,
      "saturation": 100.0,
      "v_vec": 102.1
    },
    {
      "start_time": 121859,
      "end_time": 122265,
      "state": "Stable",
      "hue": 25.1,
      "saturation": 86.9,
      "v_vec": 42.5
    },
    {
      "start_time": 122265,
      "end_time": 122270,
      "state": "TRANSITION SPIKE!",
      "hue": 0.0,
      "saturation": 100.0,
      "v_vec": 42.5
    },
    {
      "start_time": 122270,
      "end_time": 122666,
      "state": "Stable",
      "hue": 24.9,
      "saturation": 87.0,
      "v_vec": 42.2
    },
    {
      "start_time": 122666,
      "end_time": 123083,
      "state": "TRANSITION SPIKE!",
      "hue": 60.0,
      "saturation": 100.0,
      "v_vec": 101.2
    },
    {
      "start_time": 123083,
      "end_time": 123312,
      "state": "Stable",
      "hue": 51.6,
      "saturation": 35.0,
      "v_vec": 31.8
    },
    {
      "start_time": 123312,
      "end_time": 123520,
      "state": "TRANSITION SPIKE!",
      "hue": 300.0,
      "saturation": 100.0,
      "v_vec": 49.9
    },
    {
      "start_time": 123520,
      "end_time": 123750,
      "state": "Stable",
      "hue": 333.2,
      "saturation": 69.2,
      "v_vec": 56.6
    },
    {
      "start_time": 123750,
      "end_time": 124401,
      "state": "TRANSITION SPIKE!",
      "hue": 119.9,
      "saturation": 91.1,
      "v_vec": 53.4
    },
    {
      "start_time": 124401,
      "end_time": 124619,
      "state": "Stable",
      "hue": 107.8,
      "saturation": 84.6,
      "v_vec": 19.5
    },
    {
      "start_time": 124619,
      "end_time": 124838,
      "state": "TRANSITION SPIKE!",
      "hue": 300.0,
      "saturation": 100.0,
      "v_vec": 50.4
    },
    {
      "start_time": 124838,
      "end_time": 125036,
      "state": "Stable",
      "hue": 336.2,
      "saturation": 31.1,
      "v_vec": 77.1
    },
    {
      "start_time": 125036,
      "end_time": 125250,
      "state": "Undefined / Gray Void",
      "hue": 182.2,
      "saturation": 11.0,
      "v_vec": 41.3
    },
    {
      "start_time": 125250,
      "end_time": 125296,
      "state": "TRANSITION SPIKE!",
      "hue": 123.7,
      "saturation": 55.8,
      "v_vec": 50.9
    },
    {
      "start_time": 125296,
      "end_time": 125708,
      "state": "Stable",
      "hue": 157.7,
      "saturation": 50.5,
      "v_vec": 31.5
    },
    {
      "start_time": 125708,
      "end_time": 125713,
      "state": "TRANSITION SPIKE!",
      "hue": 60.0,
      "saturation": 100.0,
      "v_vec": 117.9
    },
    {
      "start_time": 125713,
      "end_time": 125723,
      "state": "Regime Locked",
      "hue": 60.0,
      "saturation": 100.0,
      "v_vec": 0.0
    },
    {
      "start_time": 125723,
      "end_time": 126145,
      "state": "Stable",
      "hue": 46.3,
      "saturation": 90.2,
      "v_vec": 24.7
    },
    {
      "start_time": 126145,
      "end_time": 126156,
      "state": "TRANSITION SPIKE!",
      "hue": 0.0,
      "saturation": 100.0,
      "v_vec": 75.3
    },
    {
      "start_time": 126156,
      "end_time": 126645,
      "state": "Stable",
      "hue": 24.0,
      "saturation": 87.1,
      "v_vec": 40.9
    },
    {
      "start_time": 126645,
      "end_time": 127119,
      "state": "TRANSITION SPIKE!",
      "hue": 0.0,
      "saturation": 100.0,
      "v_vec": 102.4
    },
    {
      "start_time": 127119,
      "end_time": 127546,
      "state": "Stable",
      "hue": 28.9,
      "saturation": 86.6,
      "v_vec": 48.3
    },
    {
      "start_time": 127546,
      "end_time": 127552,
      "state": "TRANSITION SPIKE!",
      "hue": 60.0,
      "saturation": 100.0,
      "v_vec": 51.7
    },
    {
      "start_time": 127552,
      "end_time": 128000,
      "state": "Stable",
      "hue": 28.2,
      "saturation": 91.5,
      "v_vec": 55.7
    },
    {
      "start_time": 128000,
      "end_time": 128447,
      "state": "TRANSITION SPIKE!",
      "hue": 330.0,
      "saturation": 100.0,
      "v_vec": 14.1
    },
    {
      "start_time": 128447,
      "end_time": 128854,
      "state": "Stable",
      "hue": 346.6,
      "saturation": 74.0,
      "v_vec": 8.9
    },
    {
      "start_time": 128854,
      "end_time": 128859,
      "state": "TRANSITION SPIKE!",
      "hue": 210.0,
      "saturation": 100.0,
      "v_vec": 162.0
    },
    {
      "start_time": 128859,
      "end_time": 128869,
      "state": "Undefined / Gray Void",
      "hue": 137.3,
      "saturation": 25.9,
      "v_vec": 95.6
    },
    {
      "start_time": 128869,
      "end_time": 129281,
      "state": "Stable",
      "hue": 66.9,
      "saturation": 36.4,
      "v_vec": 27.2
    },
    {
      "start_time": 129281,
      "end_time": 129307,
      "state": "TRANSITION SPIKE!",
      "hue": 60.0,
      "saturation": 100.0,
      "v_vec": 64.1
    },
    {
      "start_time": 129307,
      "end_time": 129453,
      "state": "Stable",
      "hue": 75.8,
      "saturation": 68.7,
      "v_vec": 72.7
    },
    {
      "start_time": 129453,
      "end_time": 129588,
      "state": "TRANSITION SPIKE!",
      "hue": 85.4,
      "saturation": 70.2,
      "v_vec": 11.7
    },
    {
      "start_time": 129588,
      "end_time": 129682,
      "state": "Stable",
      "hue": 75.6,
      "saturation": 55.2,
      "v_vec": 18.4
    },
    {
      "start_time": 129682,
      "end_time": 130874,
      "state": "TRANSITION SPIKE!",
      "hue": 90.0,
      "saturation": 100.0,
      "v_vec": 13.7
    },
    {
      "start_time": 130874,
      "end_time": 131276,
      "state": "Stable",
      "hue": 39.7,
      "saturation": 78.0,
      "v_vec": 78.3
    },
    {
      "start_time": 131276,
      "end_time": 131281,
      "state": "TRANSITION SPIKE!",
      "hue": 120.0,
      "saturation": 100.0,
      "v_vec": 116.0
    },
    {
      "start_time": 131281,
      "end_time": 131296,
      "state": "Undefined / Gray Void",
      "hue": 50.7,
      "saturation": 26.0,
      "v_vec": 94.0
    },
    {
      "start_time": 131296,
      "end_time": 131703,
      "state": "Stable",
      "hue": 46.9,
      "saturation": 47.3,
      "v_vec": 21.4
    },
    {
      "start_time": 131703,
      "end_time": 131708,
      "state": "TRANSITION SPIKE!",
      "hue": 270.0,
      "saturation": 100.0,
      "v_vec": 138.4
    },
    {
      "start_time": 131708,
      "end_time": 131718,
      "state": "Stable",
      "hue": 271.8,
      "saturation": 53.0,
      "v_vec": 47.7
    },
    {
      "start_time": 131718,
      "end_time": 132182,
      "state": "Undefined / Gray Void",
      "hue": 274.8,
      "saturation": 14.6,
      "v_vec": 38.5
    },
    {
      "start_time": 132182,
      "end_time": 132192,
      "state": "TRANSITION SPIKE!",
      "hue": 0.0,
      "saturation": 100.0,
      "v_vec": 99.9
    },
    {
      "start_time": 132192,
      "end_time": 132343,
      "state": "Stable",
      "hue": 51.1,
      "saturation": 67.5,
      "v_vec": 48.5
    },
    {
      "start_time": 132343,
      "end_time": 132390,
      "state": "TRANSITION SPIKE!",
      "hue": 49.1,
      "saturation": 69.2,
      "v_vec": 2.9
    },
    {
      "start_time": 132390,
      "end_time": 132531,
      "state": "Stable",
      "hue": 65.3,
      "saturation": 57.2,
      "v_vec": 21.4
    },
    {
      "start_time": 132531,
      "end_time": 132614,
      "state": "TRANSITION SPIKE!",
      "hue": 109.9,
      "saturation": 75.0,
      "v_vec": 52.8
    },
    {
      "start_time": 132614,
      "end_time": 133755,
      "state": "Stable",
      "hue": 123.9,
      "saturation": 77.7,
      "v_vec": 18.7
    },
    {
      "start_time": 133755,
      "end_time": 133776,
      "state": "TRANSITION SPIKE!",
      "hue": 150.0,
      "saturation": 100.0,
      "v_vec": 45.7
    },
    {
      "start_time": 133776,
      "end_time": 133781,
      "state": "Stable",
      "hue": 108.4,
      "saturation": 31.0,
      "v_vec": 79.5
    },
    {
      "start_time": 133781,
      "end_time": 133791,
      "state": "Undefined / Gray Void",
      "hue": 10.7,
      "saturation": 21.4,
      "v_vec": 40.0
    },
    {
      "start_time": 133791,
      "end_time": 133932,
      "state": "Stable",
      "hue": 349.6,
      "saturation": 33.9,
      "v_vec": 15.9
    },
    {
      "start_time": 133932,
      "end_time": 134078,
      "state": "TRANSITION SPIKE!",
      "hue": 29.8,
      "saturation": 30.7,
      "v_vec": 22.4
    },
    {
      "start_time": 134078,
      "end_time": 134229,
      "state": "Stable",
      "hue": 15.3,
      "saturation": 67.0,
      "v_vec": 38.1
    },
    {
      "start_time": 134229,
      "end_time": 135223,
      "state": "TRANSITION SPIKE!",
      "hue": 30.0,
      "saturation": 100.0,
      "v_vec": 71.6
    },
    {
      "start_time": 135223,
      "end_time": 135427,
      "state": "Stable",
      "hue": 5.0,
      "saturation": 91.9,
      "v_vec": 24.9
    },
    {
      "start_time": 135427,
      "end_time": 136901,
      "state": "TRANSITION SPIKE!",
      "hue": 44.4,
      "saturation": 70.7,
      "v_vec": 17.3
    },
    {
      "start_time": 136901,
      "end_time": 137270,
      "state": "Stable",
      "hue": 42.7,
      "saturation": 49.5,
      "v_vec": 21.3
    },
    {
      "start_time": 137270,
      "end_time": 137286,
      "state": "TRANSITION SPIKE!",
      "hue": 60.0,
      "saturation": 100.0,
      "v_vec": 54.8
    },
    {
      "start_time": 137286,
      "end_time": 137489,
      "state": "Stable",
      "hue": 45.7,
      "saturation": 84.2,
      "v_vec": 9.2
    },
    {
      "start_time": 137489,
      "end_time": 137500,
      "state": "TRANSITION SPIKE!",
      "hue": 54.7,
      "saturation": 82.8,
      "v_vec": 13.2
    },
    {
      "start_time": 137500,
      "end_time": 137734,
      "state": "Stable",
      "hue": 45.1,
      "saturation": 71.9,
      "v_vec": 12.5
    },
    {
      "start_time": 137734,
      "end_time": 137744,
      "state": "TRANSITION SPIKE!",
      "hue": 70.6,
      "saturation": 55.2,
      "v_vec": 32.4
    },
    {
      "start_time": 137744,
      "end_time": 138182,
      "state": "Stable",
      "hue": 44.4,
      "saturation": 52.1,
      "v_vec": 13.2
    },
    {
      "start_time": 138182,
      "end_time": 138192,
      "state": "TRANSITION SPIKE!",
      "hue": 78.0,
      "saturation": 48.6,
      "v_vec": 29.3
    },
    {
      "start_time": 138192,
      "end_time": 138833,
      "state": "Stable",
      "hue": 104.6,
      "saturation": 49.7,
      "v_vec": 22.7
    },
    {
      "start_time": 138833,
      "end_time": 138854,
      "state": "TRANSITION SPIKE!",
      "hue": 60.0,
      "saturation": 100.0,
      "v_vec": 73.5
    },
    {
      "start_time": 138854,
      "end_time": 141333,
      "state": "Stable",
      "hue": 62.9,
      "saturation": 47.4,
      "v_vec": 52.9
    },
    {
      "start_time": 141333,
      "end_time": 141343,
      "state": "TRANSITION SPIKE!",
      "hue": 60.0,
      "saturation": 100.0,
      "v_vec": 52.7
    },
    {
      "start_time": 141343,
      "end_time": 142489,
      "state": "Stable",
      "hue": 105.4,
      "saturation": 70.8,
      "v_vec": 24.6
    },
    {
      "start_time": 142489,
      "end_time": 143088,
      "state": "TRANSITION SPIKE!",
      "hue": 300.0,
      "saturation": 100.0,
      "v_vec": 70.2
    },
    {
      "start_time": 143088,
      "end_time": 143114,
      "state": "Undefined / Gray Void",
      "hue": 300.0,
      "saturation": 0.7,
      "v_vec": 99.3
    },
    {
      "start_time": 143114,
      "end_time": 143411,
      "state": "Stable",
      "hue": 210.7,
      "saturation": 35.7,
      "v_vec": 35.7
    },
    {
      "start_time": 143411,
      "end_time": 143833,
      "state": "Undefined / Gray Void",
      "hue": 138.8,
      "saturation": 25.9,
      "v_vec": 37.0
    },
    {
      "start_time": 143833,
      "end_time": 145093,
      "state": "TRANSITION SPIKE!",
      "hue": 77.2,
      "saturation": 96.7,
      "v_vec": 98.3
    },
    {
      "start_time": 145093,
      "end_time": 145677,
      "state": "Stable",
      "hue": 103.2,
      "saturation": 71.4,
      "v_vec": 45.1
    },
    {
      "start_time": 145677,
      "end_time": 146802,
      "state": "TRANSITION SPIKE!",
      "hue": 300.0,
      "saturation": 100.0,
      "v_vec": 72.9
    },
    {
      "start_time": 146802,
      "end_time": 146828,
      "state": "Undefined / Gray Void",
      "hue": 300.0,
      "saturation": 1.7,
      "v_vec": 98.3
    },
    {
      "start_time": 146828,
      "end_time": 147161,
      "state": "Stable",
      "hue": 211.8,
      "saturation": 35.9,
      "v_vec": 35.9
    },
    {
      "start_time": 147161,
      "end_time": 147572,
      "state": "TRANSITION SPIKE!",
      "hue": 60.0,
      "saturation": 100.0,
      "v_vec": 132.8
    },
    {
      "start_time": 147572,
      "end_time": 148744,
      "state": "Regime Locked",
      "hue": 60.0,
      "saturation": 100.0,
      "v_vec": 0.0
    },
    {
      "start_time": 148744,
      "end_time": 148828,
      "state": "TRANSITION SPIKE!",
      "hue": 90.0,
      "saturation": 100.0,
      "v_vec": 51.8
    },
    {
      "start_time": 148828,
      "end_time": 149677,
      "state": "Stable",
      "hue": 128.7,
      "saturation": 52.5,
      "v_vec": 17.4
    },
    {
      "start_time": 149677,
      "end_time": 152901,
      "state": "TRANSITION SPIKE!",
      "hue": 90.0,
      "saturation": 100.0,
      "v_vec": 94.6
    },
    {
      "start_time": 152901,
      "end_time": 153817,
      "state": "Stable",
      "hue": 40.6,
      "saturation": 65.1,
      "v_vec": 57.2
    },
    {
      "start_time": 153817,
      "end_time": 158176,
      "state": "TRANSITION SPIKE!",
      "hue": 90.0,
      "saturation": 100.0,
      "v_vec": 44.2
    }
  ],
  "stats": {
    "total_notes": 783,
    "total_regimes": 463,
    "melody_notes": 338,
    "background_notes": 445
  }
}